<?xml version="1.0" encoding="utf-8" standalone="no"?>
<!DOCTYPE svg PUBLIC "-//W3C//DTD SVG 1.1//EN"
  "http://www.w3.org/Graphics/SVG/1.1/DTD/svg11.dtd">
<svg xmlns:xlink="http://www.w3.org/1999/xlink" width="592.125pt" height="363.718125pt" viewBox="0 0 592.125 363.718125" xmlns="http://www.w3.org/2000/svg" version="1.1">
 <metadata>
  <rdf:RDF xmlns:dc="http://purl.org/dc/elements/1.1/" xmlns:cc="http://creativecommons.org/ns#" xmlns:rdf="http://www.w3.org/1999/02/22-rdf-syntax-ns#">
   <cc:Work>
    <dc:type rdf:resource="http://purl.org/dc/dcmitype/StillImage"/>
    <dc:date>2024-10-19T16:58:03.774647</dc:date>
    <dc:format>image/svg+xml</dc:format>
    <dc:creator>
     <cc:Agent>
      <dc:title>Matplotlib v3.8.4, https://matplotlib.org/</dc:title>
     </cc:Agent>
    </dc:creator>
   </cc:Work>
  </rdf:RDF>
 </metadata>
 <defs>
  <style type="text/css">*{stroke-linejoin: round; stroke-linecap: butt}</style>
 </defs>
 <g id="figure_1">
  <g id="patch_1">
   <path d="M 0 363.718125 
L 592.125 363.718125 
L 592.125 0 
L 0 0 
z
" style="fill: #ffffff"/>
  </g>
  <g id="axes_1">
   <g id="patch_2">
    <path d="M 26.925 339.84 
L 584.925 339.84 
L 584.925 7.2 
L 26.925 7.2 
z
" style="fill: #ffffff"/>
   </g>
   <g id="matplotlib.axis_1">
    <g id="xtick_1">
     <g id="line2d_1">
      <defs>
       <path id="mafbf886523" d="M 0 0 
L 0 3.5 
" style="stroke: #000000; stroke-width: 0.8"/>
      </defs>
      <g>
       <use xlink:href="#mafbf886523" x="77.460849" y="339.84" style="stroke: #000000; stroke-width: 0.8"/>
      </g>
     </g>
     <g id="text_1">
      <!-- 2021-02 -->
      <g transform="translate(56.569443 354.438437) scale(0.1 -0.1)">
       <defs>
        <path id="DejaVuSans-32" d="M 1228 531 
L 3431 531 
L 3431 0 
L 469 0 
L 469 531 
Q 828 903 1448 1529 
Q 2069 2156 2228 2338 
Q 2531 2678 2651 2914 
Q 2772 3150 2772 3378 
Q 2772 3750 2511 3984 
Q 2250 4219 1831 4219 
Q 1534 4219 1204 4116 
Q 875 4013 500 3803 
L 500 4441 
Q 881 4594 1212 4672 
Q 1544 4750 1819 4750 
Q 2544 4750 2975 4387 
Q 3406 4025 3406 3419 
Q 3406 3131 3298 2873 
Q 3191 2616 2906 2266 
Q 2828 2175 2409 1742 
Q 1991 1309 1228 531 
z
" transform="scale(0.015625)"/>
        <path id="DejaVuSans-30" d="M 2034 4250 
Q 1547 4250 1301 3770 
Q 1056 3291 1056 2328 
Q 1056 1369 1301 889 
Q 1547 409 2034 409 
Q 2525 409 2770 889 
Q 3016 1369 3016 2328 
Q 3016 3291 2770 3770 
Q 2525 4250 2034 4250 
z
M 2034 4750 
Q 2819 4750 3233 4129 
Q 3647 3509 3647 2328 
Q 3647 1150 3233 529 
Q 2819 -91 2034 -91 
Q 1250 -91 836 529 
Q 422 1150 422 2328 
Q 422 3509 836 4129 
Q 1250 4750 2034 4750 
z
" transform="scale(0.015625)"/>
        <path id="DejaVuSans-31" d="M 794 531 
L 1825 531 
L 1825 4091 
L 703 3866 
L 703 4441 
L 1819 4666 
L 2450 4666 
L 2450 531 
L 3481 531 
L 3481 0 
L 794 0 
L 794 531 
z
" transform="scale(0.015625)"/>
        <path id="DejaVuSans-2d" d="M 313 2009 
L 1997 2009 
L 1997 1497 
L 313 1497 
L 313 2009 
z
" transform="scale(0.015625)"/>
       </defs>
       <use xlink:href="#DejaVuSans-32"/>
       <use xlink:href="#DejaVuSans-30" x="63.623047"/>
       <use xlink:href="#DejaVuSans-32" x="127.246094"/>
       <use xlink:href="#DejaVuSans-31" x="190.869141"/>
       <use xlink:href="#DejaVuSans-2d" x="254.492188"/>
       <use xlink:href="#DejaVuSans-30" x="290.576172"/>
       <use xlink:href="#DejaVuSans-32" x="354.199219"/>
      </g>
     </g>
    </g>
    <g id="xtick_2">
     <g id="line2d_2">
      <g>
       <use xlink:href="#mafbf886523" x="136.41934" y="339.84" style="stroke: #000000; stroke-width: 0.8"/>
      </g>
     </g>
     <g id="text_2">
      <!-- 2021-03 -->
      <g transform="translate(115.527933 354.438437) scale(0.1 -0.1)">
       <defs>
        <path id="DejaVuSans-33" d="M 2597 2516 
Q 3050 2419 3304 2112 
Q 3559 1806 3559 1356 
Q 3559 666 3084 287 
Q 2609 -91 1734 -91 
Q 1441 -91 1130 -33 
Q 819 25 488 141 
L 488 750 
Q 750 597 1062 519 
Q 1375 441 1716 441 
Q 2309 441 2620 675 
Q 2931 909 2931 1356 
Q 2931 1769 2642 2001 
Q 2353 2234 1838 2234 
L 1294 2234 
L 1294 2753 
L 1863 2753 
Q 2328 2753 2575 2939 
Q 2822 3125 2822 3475 
Q 2822 3834 2567 4026 
Q 2313 4219 1838 4219 
Q 1578 4219 1281 4162 
Q 984 4106 628 3988 
L 628 4550 
Q 988 4650 1302 4700 
Q 1616 4750 1894 4750 
Q 2613 4750 3031 4423 
Q 3450 4097 3450 3541 
Q 3450 3153 3228 2886 
Q 3006 2619 2597 2516 
z
" transform="scale(0.015625)"/>
       </defs>
       <use xlink:href="#DejaVuSans-32"/>
       <use xlink:href="#DejaVuSans-30" x="63.623047"/>
       <use xlink:href="#DejaVuSans-32" x="127.246094"/>
       <use xlink:href="#DejaVuSans-31" x="190.869141"/>
       <use xlink:href="#DejaVuSans-2d" x="254.492188"/>
       <use xlink:href="#DejaVuSans-30" x="290.576172"/>
       <use xlink:href="#DejaVuSans-33" x="354.199219"/>
      </g>
     </g>
    </g>
    <g id="xtick_3">
     <g id="line2d_3">
      <g>
       <use xlink:href="#mafbf886523" x="201.694811" y="339.84" style="stroke: #000000; stroke-width: 0.8"/>
      </g>
     </g>
     <g id="text_3">
      <!-- 2021-04 -->
      <g transform="translate(180.803405 354.438437) scale(0.1 -0.1)">
       <defs>
        <path id="DejaVuSans-34" d="M 2419 4116 
L 825 1625 
L 2419 1625 
L 2419 4116 
z
M 2253 4666 
L 3047 4666 
L 3047 1625 
L 3713 1625 
L 3713 1100 
L 3047 1100 
L 3047 0 
L 2419 0 
L 2419 1100 
L 313 1100 
L 313 1709 
L 2253 4666 
z
" transform="scale(0.015625)"/>
       </defs>
       <use xlink:href="#DejaVuSans-32"/>
       <use xlink:href="#DejaVuSans-30" x="63.623047"/>
       <use xlink:href="#DejaVuSans-32" x="127.246094"/>
       <use xlink:href="#DejaVuSans-31" x="190.869141"/>
       <use xlink:href="#DejaVuSans-2d" x="254.492188"/>
       <use xlink:href="#DejaVuSans-30" x="290.576172"/>
       <use xlink:href="#DejaVuSans-34" x="354.199219"/>
      </g>
     </g>
    </g>
    <g id="xtick_4">
     <g id="line2d_4">
      <g>
       <use xlink:href="#mafbf886523" x="264.864623" y="339.84" style="stroke: #000000; stroke-width: 0.8"/>
      </g>
     </g>
     <g id="text_4">
      <!-- 2021-05 -->
      <g transform="translate(243.973216 354.438437) scale(0.1 -0.1)">
       <defs>
        <path id="DejaVuSans-35" d="M 691 4666 
L 3169 4666 
L 3169 4134 
L 1269 4134 
L 1269 2991 
Q 1406 3038 1543 3061 
Q 1681 3084 1819 3084 
Q 2600 3084 3056 2656 
Q 3513 2228 3513 1497 
Q 3513 744 3044 326 
Q 2575 -91 1722 -91 
Q 1428 -91 1123 -41 
Q 819 9 494 109 
L 494 744 
Q 775 591 1075 516 
Q 1375 441 1709 441 
Q 2250 441 2565 725 
Q 2881 1009 2881 1497 
Q 2881 1984 2565 2268 
Q 2250 2553 1709 2553 
Q 1456 2553 1204 2497 
Q 953 2441 691 2322 
L 691 4666 
z
" transform="scale(0.015625)"/>
       </defs>
       <use xlink:href="#DejaVuSans-32"/>
       <use xlink:href="#DejaVuSans-30" x="63.623047"/>
       <use xlink:href="#DejaVuSans-32" x="127.246094"/>
       <use xlink:href="#DejaVuSans-31" x="190.869141"/>
       <use xlink:href="#DejaVuSans-2d" x="254.492188"/>
       <use xlink:href="#DejaVuSans-30" x="290.576172"/>
       <use xlink:href="#DejaVuSans-35" x="354.199219"/>
      </g>
     </g>
    </g>
    <g id="xtick_5">
     <g id="line2d_5">
      <g>
       <use xlink:href="#mafbf886523" x="330.140094" y="339.84" style="stroke: #000000; stroke-width: 0.8"/>
      </g>
     </g>
     <g id="text_5">
      <!-- 2021-06 -->
      <g transform="translate(309.248688 354.438437) scale(0.1 -0.1)">
       <defs>
        <path id="DejaVuSans-36" d="M 2113 2584 
Q 1688 2584 1439 2293 
Q 1191 2003 1191 1497 
Q 1191 994 1439 701 
Q 1688 409 2113 409 
Q 2538 409 2786 701 
Q 3034 994 3034 1497 
Q 3034 2003 2786 2293 
Q 2538 2584 2113 2584 
z
M 3366 4563 
L 3366 3988 
Q 3128 4100 2886 4159 
Q 2644 4219 2406 4219 
Q 1781 4219 1451 3797 
Q 1122 3375 1075 2522 
Q 1259 2794 1537 2939 
Q 1816 3084 2150 3084 
Q 2853 3084 3261 2657 
Q 3669 2231 3669 1497 
Q 3669 778 3244 343 
Q 2819 -91 2113 -91 
Q 1303 -91 875 529 
Q 447 1150 447 2328 
Q 447 3434 972 4092 
Q 1497 4750 2381 4750 
Q 2619 4750 2861 4703 
Q 3103 4656 3366 4563 
z
" transform="scale(0.015625)"/>
       </defs>
       <use xlink:href="#DejaVuSans-32"/>
       <use xlink:href="#DejaVuSans-30" x="63.623047"/>
       <use xlink:href="#DejaVuSans-32" x="127.246094"/>
       <use xlink:href="#DejaVuSans-31" x="190.869141"/>
       <use xlink:href="#DejaVuSans-2d" x="254.492188"/>
       <use xlink:href="#DejaVuSans-30" x="290.576172"/>
       <use xlink:href="#DejaVuSans-36" x="354.199219"/>
      </g>
     </g>
    </g>
    <g id="xtick_6">
     <g id="line2d_6">
      <g>
       <use xlink:href="#mafbf886523" x="393.309906" y="339.84" style="stroke: #000000; stroke-width: 0.8"/>
      </g>
     </g>
     <g id="text_6">
      <!-- 2021-07 -->
      <g transform="translate(372.418499 354.438437) scale(0.1 -0.1)">
       <defs>
        <path id="DejaVuSans-37" d="M 525 4666 
L 3525 4666 
L 3525 4397 
L 1831 0 
L 1172 0 
L 2766 4134 
L 525 4134 
L 525 4666 
z
" transform="scale(0.015625)"/>
       </defs>
       <use xlink:href="#DejaVuSans-32"/>
       <use xlink:href="#DejaVuSans-30" x="63.623047"/>
       <use xlink:href="#DejaVuSans-32" x="127.246094"/>
       <use xlink:href="#DejaVuSans-31" x="190.869141"/>
       <use xlink:href="#DejaVuSans-2d" x="254.492188"/>
       <use xlink:href="#DejaVuSans-30" x="290.576172"/>
       <use xlink:href="#DejaVuSans-37" x="354.199219"/>
      </g>
     </g>
    </g>
    <g id="xtick_7">
     <g id="line2d_7">
      <g>
       <use xlink:href="#mafbf886523" x="458.585377" y="339.84" style="stroke: #000000; stroke-width: 0.8"/>
      </g>
     </g>
     <g id="text_7">
      <!-- 2021-08 -->
      <g transform="translate(437.693971 354.438437) scale(0.1 -0.1)">
       <defs>
        <path id="DejaVuSans-38" d="M 2034 2216 
Q 1584 2216 1326 1975 
Q 1069 1734 1069 1313 
Q 1069 891 1326 650 
Q 1584 409 2034 409 
Q 2484 409 2743 651 
Q 3003 894 3003 1313 
Q 3003 1734 2745 1975 
Q 2488 2216 2034 2216 
z
M 1403 2484 
Q 997 2584 770 2862 
Q 544 3141 544 3541 
Q 544 4100 942 4425 
Q 1341 4750 2034 4750 
Q 2731 4750 3128 4425 
Q 3525 4100 3525 3541 
Q 3525 3141 3298 2862 
Q 3072 2584 2669 2484 
Q 3125 2378 3379 2068 
Q 3634 1759 3634 1313 
Q 3634 634 3220 271 
Q 2806 -91 2034 -91 
Q 1263 -91 848 271 
Q 434 634 434 1313 
Q 434 1759 690 2068 
Q 947 2378 1403 2484 
z
M 1172 3481 
Q 1172 3119 1398 2916 
Q 1625 2713 2034 2713 
Q 2441 2713 2670 2916 
Q 2900 3119 2900 3481 
Q 2900 3844 2670 4047 
Q 2441 4250 2034 4250 
Q 1625 4250 1398 4047 
Q 1172 3844 1172 3481 
z
" transform="scale(0.015625)"/>
       </defs>
       <use xlink:href="#DejaVuSans-32"/>
       <use xlink:href="#DejaVuSans-30" x="63.623047"/>
       <use xlink:href="#DejaVuSans-32" x="127.246094"/>
       <use xlink:href="#DejaVuSans-31" x="190.869141"/>
       <use xlink:href="#DejaVuSans-2d" x="254.492188"/>
       <use xlink:href="#DejaVuSans-30" x="290.576172"/>
       <use xlink:href="#DejaVuSans-38" x="354.199219"/>
      </g>
     </g>
    </g>
    <g id="xtick_8">
     <g id="line2d_8">
      <g>
       <use xlink:href="#mafbf886523" x="523.860849" y="339.84" style="stroke: #000000; stroke-width: 0.8"/>
      </g>
     </g>
     <g id="text_8">
      <!-- 2021-09 -->
      <g transform="translate(502.969443 354.438437) scale(0.1 -0.1)">
       <defs>
        <path id="DejaVuSans-39" d="M 703 97 
L 703 672 
Q 941 559 1184 500 
Q 1428 441 1663 441 
Q 2288 441 2617 861 
Q 2947 1281 2994 2138 
Q 2813 1869 2534 1725 
Q 2256 1581 1919 1581 
Q 1219 1581 811 2004 
Q 403 2428 403 3163 
Q 403 3881 828 4315 
Q 1253 4750 1959 4750 
Q 2769 4750 3195 4129 
Q 3622 3509 3622 2328 
Q 3622 1225 3098 567 
Q 2575 -91 1691 -91 
Q 1453 -91 1209 -44 
Q 966 3 703 97 
z
M 1959 2075 
Q 2384 2075 2632 2365 
Q 2881 2656 2881 3163 
Q 2881 3666 2632 3958 
Q 2384 4250 1959 4250 
Q 1534 4250 1286 3958 
Q 1038 3666 1038 3163 
Q 1038 2656 1286 2365 
Q 1534 2075 1959 2075 
z
" transform="scale(0.015625)"/>
       </defs>
       <use xlink:href="#DejaVuSans-32"/>
       <use xlink:href="#DejaVuSans-30" x="63.623047"/>
       <use xlink:href="#DejaVuSans-32" x="127.246094"/>
       <use xlink:href="#DejaVuSans-31" x="190.869141"/>
       <use xlink:href="#DejaVuSans-2d" x="254.492188"/>
       <use xlink:href="#DejaVuSans-30" x="290.576172"/>
       <use xlink:href="#DejaVuSans-39" x="354.199219"/>
      </g>
     </g>
    </g>
   </g>
   <g id="matplotlib.axis_2">
    <g id="ytick_1">
     <g id="line2d_9">
      <defs>
       <path id="mcff549ee1d" d="M 0 0 
L -3.5 0 
" style="stroke: #000000; stroke-width: 0.8"/>
      </defs>
      <g>
       <use xlink:href="#mcff549ee1d" x="26.925" y="334.296494" style="stroke: #000000; stroke-width: 0.8"/>
      </g>
     </g>
     <g id="text_9">
      <!-- 0 -->
      <g transform="translate(13.5625 338.095713) scale(0.1 -0.1)">
       <use xlink:href="#DejaVuSans-30"/>
      </g>
     </g>
    </g>
    <g id="ytick_2">
     <g id="line2d_10">
      <g>
       <use xlink:href="#mcff549ee1d" x="26.925" y="278.032009" style="stroke: #000000; stroke-width: 0.8"/>
      </g>
     </g>
     <g id="text_10">
      <!-- 10 -->
      <g transform="translate(7.2 281.831228) scale(0.1 -0.1)">
       <use xlink:href="#DejaVuSans-31"/>
       <use xlink:href="#DejaVuSans-30" x="63.623047"/>
      </g>
     </g>
    </g>
    <g id="ytick_3">
     <g id="line2d_11">
      <g>
       <use xlink:href="#mcff549ee1d" x="26.925" y="221.767524" style="stroke: #000000; stroke-width: 0.8"/>
      </g>
     </g>
     <g id="text_11">
      <!-- 20 -->
      <g transform="translate(7.2 225.566742) scale(0.1 -0.1)">
       <use xlink:href="#DejaVuSans-32"/>
       <use xlink:href="#DejaVuSans-30" x="63.623047"/>
      </g>
     </g>
    </g>
    <g id="ytick_4">
     <g id="line2d_12">
      <g>
       <use xlink:href="#mcff549ee1d" x="26.925" y="165.503038" style="stroke: #000000; stroke-width: 0.8"/>
      </g>
     </g>
     <g id="text_12">
      <!-- 30 -->
      <g transform="translate(7.2 169.302257) scale(0.1 -0.1)">
       <use xlink:href="#DejaVuSans-33"/>
       <use xlink:href="#DejaVuSans-30" x="63.623047"/>
      </g>
     </g>
    </g>
    <g id="ytick_5">
     <g id="line2d_13">
      <g>
       <use xlink:href="#mcff549ee1d" x="26.925" y="109.238553" style="stroke: #000000; stroke-width: 0.8"/>
      </g>
     </g>
     <g id="text_13">
      <!-- 40 -->
      <g transform="translate(7.2 113.037772) scale(0.1 -0.1)">
       <use xlink:href="#DejaVuSans-34"/>
       <use xlink:href="#DejaVuSans-30" x="63.623047"/>
      </g>
     </g>
    </g>
    <g id="ytick_6">
     <g id="line2d_14">
      <g>
       <use xlink:href="#mcff549ee1d" x="26.925" y="52.974068" style="stroke: #000000; stroke-width: 0.8"/>
      </g>
     </g>
     <g id="text_14">
      <!-- 50 -->
      <g transform="translate(7.2 56.773287) scale(0.1 -0.1)">
       <use xlink:href="#DejaVuSans-35"/>
       <use xlink:href="#DejaVuSans-30" x="63.623047"/>
      </g>
     </g>
    </g>
   </g>
   <g id="line2d_15">
    <path d="M 26.925 213.29107 
L 33.241981 216.013526 
L 35.347642 207.484741 
L 37.453302 260.744867 
L 39.558962 255.207078 
L 41.664623 225.723599 
L 47.981604 215.541954 
L 50.087264 238.751223 
L 52.192925 237.972704 
L 56.404245 240.395469 
L 64.826887 251.484214 
L 66.932547 195.397222 
L 69.038208 198.017332 
L 71.143868 196.826007 
L 77.460849 233.516974 
L 79.566509 216.988522 
L 81.67217 252.269608 
L 83.77783 252.710766 
L 85.883491 257.725111 
L 92.200472 249.696708 
L 94.306132 255.882974 
L 96.411792 288.352748 
L 98.517453 192.983636 
L 100.623113 147.34928 
L 106.940094 149.732738 
L 109.045755 148.421136 
L 111.151415 150.704116 
L 115.362736 298.707036 
L 121.679717 304.655659 
L 123.785377 324.72 
L 125.891038 295.794101 
L 127.996698 276.555664 
L 130.102358 278.90964 
L 136.41934 274.41293 
L 138.525 279.193631 
L 140.63066 272.54243 
L 142.736321 282.907273 
L 144.841981 259.518446 
L 153.264623 267.025721 
L 155.370283 272.520262 
L 157.475943 268.185362 
L 159.581604 288.59885 
L 165.898585 288.739231 
L 168.004245 290.26178 
L 170.109906 302.261115 
L 172.215566 301.978133 
L 174.321226 303.642608 
L 180.638208 265.696467 
L 182.743868 263.071855 
L 184.849528 264.395756 
L 186.955189 256.086416 
L 189.060849 254.456364 
L 195.37783 258.193205 
L 197.483491 271.732726 
L 199.589151 287.474598 
L 201.694811 166.485192 
L 210.117453 170.704766 
L 212.223113 188.96088 
L 214.328774 155.327496 
L 216.434434 165.447781 
L 218.540094 193.482944 
L 224.857075 173.902885 
L 226.962736 184.251664 
L 229.068396 177.867126 
L 231.174057 162.115052 
L 233.279717 200.397128 
L 241.702358 152.923875 
L 243.808019 198.515652 
L 245.913679 198.845924 
L 248.01934 200.817145 
L 254.336321 252.414601 
L 256.441981 235.560319 
L 258.547642 236.663939 
L 260.653302 264.240578 
L 262.758962 245.295287 
L 269.075943 236.248032 
L 271.181604 262.087025 
L 273.287264 258.01662 
L 275.392925 274.564225 
L 277.498585 277.046832 
L 283.815566 283.347662 
L 285.921226 284.221563 
L 288.026887 255.450119 
L 290.132547 257.455554 
L 292.238208 256.055418 
L 298.555189 214.100257 
L 300.660849 207.944502 
L 302.766509 225.944841 
L 306.97783 217.059442 
L 313.294811 249.969239 
L 315.400472 256.857528 
L 317.506132 173.918884 
L 319.611792 180.541377 
L 321.717453 184.380272 
L 328.034434 183.993806 
L 330.140094 196.392079 
L 332.245755 209.565261 
L 336.457075 224.427436 
L 342.774057 162.380811 
L 344.879717 158.634449 
L 346.985377 162.057739 
L 349.091038 200.83751 
L 351.196698 234.049611 
L 357.513679 262.374894 
L 359.61934 246.491723 
L 361.725 258.689405 
L 363.83066 247.931504 
L 365.936321 255.798869 
L 372.253302 251.195096 
L 374.358962 256.887663 
L 376.464623 256.503594 
L 378.570283 227.564052 
L 380.675943 241.643197 
L 386.992925 281.242336 
L 389.098585 273.441476 
L 391.204245 284.445575 
L 393.309906 228.331846 
L 395.415566 230.978492 
L 401.732547 226.052808 
L 403.838208 224.718927 
L 405.943868 216.872653 
L 408.049528 274.520124 
L 410.155189 228.099172 
L 416.47217 225.84369 
L 418.57783 226.498908 
L 420.683491 204.346459 
L 422.789151 199.215388 
L 424.894811 160.46757 
L 431.211792 165.45893 
L 433.317453 159.049521 
L 435.423113 189.839482 
L 437.528774 182.264084 
L 439.634434 173.896393 
L 445.951415 132.240491 
L 448.057075 132.954648 
L 450.162736 150.944081 
L 452.268396 215.629637 
L 454.374057 217.762536 
L 460.691038 282.235109 
L 462.796698 260.003719 
L 464.902358 272.548667 
L 467.008019 273.823524 
L 469.113679 289.297575 
L 475.43066 273.232533 
L 477.536321 217.23219 
L 479.641981 209.222442 
L 481.747642 223.335819 
L 483.853302 247.988794 
L 492.275943 257.49739 
L 494.381604 279.998134 
L 496.487264 220.082201 
L 498.592925 213.108141 
L 504.909906 147.146662 
L 507.015566 147.43039 
L 509.121226 139.815071 
L 511.226887 152.579791 
L 513.332547 50.49156 
L 519.649528 66.849306 
L 521.755189 66.938099 
L 523.860849 56.16019 
L 525.966509 27.528433 
L 528.07217 75.750962 
L 534.389151 129.942467 
L 536.494811 117.436708 
L 538.600472 158.073554 
L 540.706132 75.002205 
L 542.811792 65.3874 
L 549.128774 22.467494 
L 551.234434 22.32 
L 553.340094 97.552222 
L 555.445755 134.654517 
L 557.551415 163.029146 
L 563.868396 172.405663 
L 565.974057 196.754633 
L 568.079717 227.78455 
L 570.185377 250.234882 
L 578.608019 254.73542 
L 580.713679 259.134519 
L 582.81934 215.031836 
L 584.925 222.761684 
L 584.925 222.761684 
" clip-path="url(#pa7dc6477c7)" style="fill: none; stroke: #0000ff; stroke-width: 1.5; stroke-linecap: square"/>
   </g>
   <g id="line2d_16">
    <path d="M 26.925 197.925744 
L 33.241981 202.732124 
L 35.347642 192.044909 
L 37.453302 201.288851 
L 39.558962 191.705234 
L 41.664623 197.566906 
L 47.981604 204.223557 
L 50.087264 210.734853 
L 52.192925 216.221123 
L 56.404245 203.642858 
L 64.826887 211.527444 
L 66.932547 181.665405 
L 69.038208 190.968467 
L 71.143868 197.292991 
L 77.460849 205.510185 
L 79.566509 208.503515 
L 81.67217 203.886964 
L 83.77783 211.658951 
L 85.883491 217.154662 
L 92.200472 216.425295 
L 94.306132 221.51381 
L 96.411792 221.099908 
L 98.517453 178.402837 
L 100.623113 153.649983 
L 106.940094 169.360313 
L 109.045755 179.628192 
L 111.151415 191.555218 
L 113.257075 201.512012 
L 115.362736 209.764851 
L 121.679717 216.144 
L 123.785377 221.375088 
L 125.891038 221.751833 
L 127.996698 217.509756 
L 130.102358 221.939208 
L 136.41934 225.086494 
L 138.525 228.945443 
L 140.63066 222.794586 
L 142.736321 226.578664 
L 144.841981 212.454849 
L 151.158962 218.463988 
L 153.264623 223.342744 
L 155.370283 225.624182 
L 157.475943 229.337455 
L 159.581604 227.312911 
L 165.898585 230.714233 
L 168.004245 233.416912 
L 170.109906 235.512161 
L 172.215566 237.240228 
L 180.638208 223.546594 
L 182.743868 225.29756 
L 184.849528 227.880373 
L 186.955189 228.57871 
L 189.060849 226.480804 
L 195.37783 216.786256 
L 197.483491 222.225336 
L 199.589151 216.105673 
L 201.694811 168.218911 
L 210.117453 181.532981 
L 212.223113 188.745566 
L 214.328774 178.821391 
L 216.434434 189.517864 
L 218.540094 174.142066 
L 224.857075 171.844856 
L 226.962736 183.495373 
L 229.068396 174.711566 
L 231.174057 175.183476 
L 233.279717 187.222891 
L 239.596698 149.654124 
L 243.808019 176.583745 
L 245.913679 177.18683 
L 248.01934 187.560516 
L 254.336321 197.57349 
L 256.441981 195.444582 
L 258.547642 204.75479 
L 260.653302 207.626351 
L 262.758962 205.774283 
L 269.075943 209.619337 
L 271.181604 216.441226 
L 275.392925 225.616324 
L 277.498585 222.552849 
L 283.815566 224.707808 
L 285.921226 228.496656 
L 288.026887 211.994418 
L 292.238208 222.176495 
L 298.555189 201.364042 
L 300.660849 204.040139 
L 302.766509 203.085895 
L 304.87217 208.021195 
L 306.97783 213.993641 
L 313.294811 216.982562 
L 315.400472 219.877335 
L 317.506132 158.265251 
L 319.611792 173.39417 
L 321.717453 186.284067 
L 328.034434 192.448749 
L 330.140094 185.146993 
L 332.245755 149.715876 
L 336.457075 147.046531 
L 342.774057 148.416125 
L 344.879717 164.75282 
L 346.985377 175.584069 
L 349.091038 187.60349 
L 351.196698 190.218684 
L 357.513679 198.325031 
L 359.61934 200.312778 
L 361.725 208.441085 
L 363.83066 211.45753 
L 365.936321 212.653218 
L 372.253302 214.130875 
L 374.358962 215.298143 
L 376.464623 220.627562 
L 378.570283 202.622805 
L 380.675943 203.034543 
L 386.992925 202.923138 
L 389.098585 210.280781 
L 391.204245 208.111378 
L 393.309906 200.549612 
L 395.415566 204.177724 
L 401.732547 199.36655 
L 403.838208 207.998481 
L 405.943868 198.866982 
L 408.049528 206.127476 
L 410.155189 203.697514 
L 416.47217 197.032584 
L 418.57783 199.102877 
L 420.683491 171.389672 
L 422.789151 184.635775 
L 424.894811 166.03229 
L 431.211792 174.819733 
L 433.317453 172.992424 
L 435.423113 184.117485 
L 437.528774 186.951664 
L 439.634434 149.607877 
L 445.951415 109.225674 
L 448.057075 125.108506 
L 450.162736 143.841758 
L 452.268396 144.99692 
L 454.374057 159.35652 
L 460.691038 160.896507 
L 462.796698 146.0784 
L 464.902358 156.780241 
L 467.008019 157.594667 
L 469.113679 155.177351 
L 475.43066 167.52926 
L 477.536321 173.617679 
L 479.641981 186.037773 
L 481.747642 196.913642 
L 483.853302 198.531807 
L 492.275943 207.12249 
L 494.381604 213.976053 
L 496.487264 178.63991 
L 498.592925 166.817688 
L 504.909906 153.769176 
L 507.015566 169.662029 
L 509.121226 161.002343 
L 511.226887 171.195618 
L 513.332547 67.465012 
L 519.649528 86.769549 
L 521.755189 88.588942 
L 523.860849 112.522318 
L 525.966509 38.397562 
L 528.07217 57.661311 
L 534.389151 48.652605 
L 536.494811 77.058665 
L 538.600472 31.961632 
L 540.706132 47.583824 
L 542.811792 42.818258 
L 549.128774 54.615955 
L 551.234434 80.873895 
L 553.340094 105.392414 
L 555.445755 128.229607 
L 557.551415 117.128307 
L 563.868396 120.39378 
L 565.974057 137.553064 
L 568.079717 141.829997 
L 570.185377 158.363133 
L 578.608019 173.60399 
L 580.713679 186.00695 
L 582.81934 156.574964 
L 584.925 168.670682 
L 584.925 168.670682 
" clip-path="url(#pa7dc6477c7)" style="fill: none; stroke-dasharray: 5.55,2.4; stroke-dashoffset: 0; stroke: #ff0000; stroke-width: 1.5"/>
   </g>
   <g id="patch_3">
    <path d="M 26.925 339.84 
L 26.925 7.2 
" style="fill: none; stroke: #000000; stroke-width: 0.8; stroke-linejoin: miter; stroke-linecap: square"/>
   </g>
   <g id="patch_4">
    <path d="M 584.925 339.84 
L 584.925 7.2 
" style="fill: none; stroke: #000000; stroke-width: 0.8; stroke-linejoin: miter; stroke-linecap: square"/>
   </g>
   <g id="patch_5">
    <path d="M 26.925 339.84 
L 584.925 339.84 
" style="fill: none; stroke: #000000; stroke-width: 0.8; stroke-linejoin: miter; stroke-linecap: square"/>
   </g>
   <g id="patch_6">
    <path d="M 26.925 7.2 
L 584.925 7.2 
" style="fill: none; stroke: #000000; stroke-width: 0.8; stroke-linejoin: miter; stroke-linecap: square"/>
   </g>
   <g id="legend_1">
    <g id="patch_7">
     <path d="M 33.925 44.55625 
L 265.129687 44.55625 
Q 267.129687 44.55625 267.129687 42.55625 
L 267.129687 14.2 
Q 267.129687 12.2 265.129687 12.2 
L 33.925 12.2 
Q 31.925 12.2 31.925 14.2 
L 31.925 42.55625 
Q 31.925 44.55625 33.925 44.55625 
z
" style="fill: #ffffff; opacity: 0.8; stroke: #cccccc; stroke-linejoin: miter"/>
    </g>
    <g id="line2d_17">
     <path d="M 35.925 20.298437 
L 45.925 20.298437 
L 55.925 20.298437 
" style="fill: none; stroke: #0000ff; stroke-width: 1.5; stroke-linecap: square"/>
    </g>
    <g id="text_15">
     <!-- Desviación Estándar Móvil Real -->
     <g transform="translate(63.925 23.798437) scale(0.1 -0.1)">
      <defs>
       <path id="DejaVuSans-44" d="M 1259 4147 
L 1259 519 
L 2022 519 
Q 2988 519 3436 956 
Q 3884 1394 3884 2338 
Q 3884 3275 3436 3711 
Q 2988 4147 2022 4147 
L 1259 4147 
z
M 628 4666 
L 1925 4666 
Q 3281 4666 3915 4102 
Q 4550 3538 4550 2338 
Q 4550 1131 3912 565 
Q 3275 0 1925 0 
L 628 0 
L 628 4666 
z
" transform="scale(0.015625)"/>
       <path id="DejaVuSans-65" d="M 3597 1894 
L 3597 1613 
L 953 1613 
Q 991 1019 1311 708 
Q 1631 397 2203 397 
Q 2534 397 2845 478 
Q 3156 559 3463 722 
L 3463 178 
Q 3153 47 2828 -22 
Q 2503 -91 2169 -91 
Q 1331 -91 842 396 
Q 353 884 353 1716 
Q 353 2575 817 3079 
Q 1281 3584 2069 3584 
Q 2775 3584 3186 3129 
Q 3597 2675 3597 1894 
z
M 3022 2063 
Q 3016 2534 2758 2815 
Q 2500 3097 2075 3097 
Q 1594 3097 1305 2825 
Q 1016 2553 972 2059 
L 3022 2063 
z
" transform="scale(0.015625)"/>
       <path id="DejaVuSans-73" d="M 2834 3397 
L 2834 2853 
Q 2591 2978 2328 3040 
Q 2066 3103 1784 3103 
Q 1356 3103 1142 2972 
Q 928 2841 928 2578 
Q 928 2378 1081 2264 
Q 1234 2150 1697 2047 
L 1894 2003 
Q 2506 1872 2764 1633 
Q 3022 1394 3022 966 
Q 3022 478 2636 193 
Q 2250 -91 1575 -91 
Q 1294 -91 989 -36 
Q 684 19 347 128 
L 347 722 
Q 666 556 975 473 
Q 1284 391 1588 391 
Q 1994 391 2212 530 
Q 2431 669 2431 922 
Q 2431 1156 2273 1281 
Q 2116 1406 1581 1522 
L 1381 1569 
Q 847 1681 609 1914 
Q 372 2147 372 2553 
Q 372 3047 722 3315 
Q 1072 3584 1716 3584 
Q 2034 3584 2315 3537 
Q 2597 3491 2834 3397 
z
" transform="scale(0.015625)"/>
       <path id="DejaVuSans-76" d="M 191 3500 
L 800 3500 
L 1894 563 
L 2988 3500 
L 3597 3500 
L 2284 0 
L 1503 0 
L 191 3500 
z
" transform="scale(0.015625)"/>
       <path id="DejaVuSans-69" d="M 603 3500 
L 1178 3500 
L 1178 0 
L 603 0 
L 603 3500 
z
M 603 4863 
L 1178 4863 
L 1178 4134 
L 603 4134 
L 603 4863 
z
" transform="scale(0.015625)"/>
       <path id="DejaVuSans-61" d="M 2194 1759 
Q 1497 1759 1228 1600 
Q 959 1441 959 1056 
Q 959 750 1161 570 
Q 1363 391 1709 391 
Q 2188 391 2477 730 
Q 2766 1069 2766 1631 
L 2766 1759 
L 2194 1759 
z
M 3341 1997 
L 3341 0 
L 2766 0 
L 2766 531 
Q 2569 213 2275 61 
Q 1981 -91 1556 -91 
Q 1019 -91 701 211 
Q 384 513 384 1019 
Q 384 1609 779 1909 
Q 1175 2209 1959 2209 
L 2766 2209 
L 2766 2266 
Q 2766 2663 2505 2880 
Q 2244 3097 1772 3097 
Q 1472 3097 1187 3025 
Q 903 2953 641 2809 
L 641 3341 
Q 956 3463 1253 3523 
Q 1550 3584 1831 3584 
Q 2591 3584 2966 3190 
Q 3341 2797 3341 1997 
z
" transform="scale(0.015625)"/>
       <path id="DejaVuSans-63" d="M 3122 3366 
L 3122 2828 
Q 2878 2963 2633 3030 
Q 2388 3097 2138 3097 
Q 1578 3097 1268 2742 
Q 959 2388 959 1747 
Q 959 1106 1268 751 
Q 1578 397 2138 397 
Q 2388 397 2633 464 
Q 2878 531 3122 666 
L 3122 134 
Q 2881 22 2623 -34 
Q 2366 -91 2075 -91 
Q 1284 -91 818 406 
Q 353 903 353 1747 
Q 353 2603 823 3093 
Q 1294 3584 2113 3584 
Q 2378 3584 2631 3529 
Q 2884 3475 3122 3366 
z
" transform="scale(0.015625)"/>
       <path id="DejaVuSans-f3" d="M 1959 3097 
Q 1497 3097 1228 2736 
Q 959 2375 959 1747 
Q 959 1119 1226 758 
Q 1494 397 1959 397 
Q 2419 397 2687 759 
Q 2956 1122 2956 1747 
Q 2956 2369 2687 2733 
Q 2419 3097 1959 3097 
z
M 1959 3584 
Q 2709 3584 3137 3096 
Q 3566 2609 3566 1747 
Q 3566 888 3137 398 
Q 2709 -91 1959 -91 
Q 1206 -91 779 398 
Q 353 888 353 1747 
Q 353 2609 779 3096 
Q 1206 3584 1959 3584 
z
M 2394 5119 
L 3016 5119 
L 1997 3944 
L 1519 3944 
L 2394 5119 
z
" transform="scale(0.015625)"/>
       <path id="DejaVuSans-6e" d="M 3513 2113 
L 3513 0 
L 2938 0 
L 2938 2094 
Q 2938 2591 2744 2837 
Q 2550 3084 2163 3084 
Q 1697 3084 1428 2787 
Q 1159 2491 1159 1978 
L 1159 0 
L 581 0 
L 581 3500 
L 1159 3500 
L 1159 2956 
Q 1366 3272 1645 3428 
Q 1925 3584 2291 3584 
Q 2894 3584 3203 3211 
Q 3513 2838 3513 2113 
z
" transform="scale(0.015625)"/>
       <path id="DejaVuSans-20" transform="scale(0.015625)"/>
       <path id="DejaVuSans-45" d="M 628 4666 
L 3578 4666 
L 3578 4134 
L 1259 4134 
L 1259 2753 
L 3481 2753 
L 3481 2222 
L 1259 2222 
L 1259 531 
L 3634 531 
L 3634 0 
L 628 0 
L 628 4666 
z
" transform="scale(0.015625)"/>
       <path id="DejaVuSans-74" d="M 1172 4494 
L 1172 3500 
L 2356 3500 
L 2356 3053 
L 1172 3053 
L 1172 1153 
Q 1172 725 1289 603 
Q 1406 481 1766 481 
L 2356 481 
L 2356 0 
L 1766 0 
Q 1100 0 847 248 
Q 594 497 594 1153 
L 594 3053 
L 172 3053 
L 172 3500 
L 594 3500 
L 594 4494 
L 1172 4494 
z
" transform="scale(0.015625)"/>
       <path id="DejaVuSans-e1" d="M 2194 1759 
Q 1497 1759 1228 1600 
Q 959 1441 959 1056 
Q 959 750 1161 570 
Q 1363 391 1709 391 
Q 2188 391 2477 730 
Q 2766 1069 2766 1631 
L 2766 1759 
L 2194 1759 
z
M 3341 1997 
L 3341 0 
L 2766 0 
L 2766 531 
Q 2569 213 2275 61 
Q 1981 -91 1556 -91 
Q 1019 -91 701 211 
Q 384 513 384 1019 
Q 384 1609 779 1909 
Q 1175 2209 1959 2209 
L 2766 2209 
L 2766 2266 
Q 2766 2663 2505 2880 
Q 2244 3097 1772 3097 
Q 1472 3097 1187 3025 
Q 903 2953 641 2809 
L 641 3341 
Q 956 3463 1253 3523 
Q 1550 3584 1831 3584 
Q 2591 3584 2966 3190 
Q 3341 2797 3341 1997 
z
M 2291 5119 
L 2913 5119 
L 1894 3944 
L 1416 3944 
L 2291 5119 
z
" transform="scale(0.015625)"/>
       <path id="DejaVuSans-64" d="M 2906 2969 
L 2906 4863 
L 3481 4863 
L 3481 0 
L 2906 0 
L 2906 525 
Q 2725 213 2448 61 
Q 2172 -91 1784 -91 
Q 1150 -91 751 415 
Q 353 922 353 1747 
Q 353 2572 751 3078 
Q 1150 3584 1784 3584 
Q 2172 3584 2448 3432 
Q 2725 3281 2906 2969 
z
M 947 1747 
Q 947 1113 1208 752 
Q 1469 391 1925 391 
Q 2381 391 2643 752 
Q 2906 1113 2906 1747 
Q 2906 2381 2643 2742 
Q 2381 3103 1925 3103 
Q 1469 3103 1208 2742 
Q 947 2381 947 1747 
z
" transform="scale(0.015625)"/>
       <path id="DejaVuSans-72" d="M 2631 2963 
Q 2534 3019 2420 3045 
Q 2306 3072 2169 3072 
Q 1681 3072 1420 2755 
Q 1159 2438 1159 1844 
L 1159 0 
L 581 0 
L 581 3500 
L 1159 3500 
L 1159 2956 
Q 1341 3275 1631 3429 
Q 1922 3584 2338 3584 
Q 2397 3584 2469 3576 
Q 2541 3569 2628 3553 
L 2631 2963 
z
" transform="scale(0.015625)"/>
       <path id="DejaVuSans-4d" d="M 628 4666 
L 1569 4666 
L 2759 1491 
L 3956 4666 
L 4897 4666 
L 4897 0 
L 4281 0 
L 4281 4097 
L 3078 897 
L 2444 897 
L 1241 4097 
L 1241 0 
L 628 0 
L 628 4666 
z
" transform="scale(0.015625)"/>
       <path id="DejaVuSans-6c" d="M 603 4863 
L 1178 4863 
L 1178 0 
L 603 0 
L 603 4863 
z
" transform="scale(0.015625)"/>
       <path id="DejaVuSans-52" d="M 2841 2188 
Q 3044 2119 3236 1894 
Q 3428 1669 3622 1275 
L 4263 0 
L 3584 0 
L 2988 1197 
Q 2756 1666 2539 1819 
Q 2322 1972 1947 1972 
L 1259 1972 
L 1259 0 
L 628 0 
L 628 4666 
L 2053 4666 
Q 2853 4666 3247 4331 
Q 3641 3997 3641 3322 
Q 3641 2881 3436 2590 
Q 3231 2300 2841 2188 
z
M 1259 4147 
L 1259 2491 
L 2053 2491 
Q 2509 2491 2742 2702 
Q 2975 2913 2975 3322 
Q 2975 3731 2742 3939 
Q 2509 4147 2053 4147 
L 1259 4147 
z
" transform="scale(0.015625)"/>
      </defs>
      <use xlink:href="#DejaVuSans-44"/>
      <use xlink:href="#DejaVuSans-65" x="77.001953"/>
      <use xlink:href="#DejaVuSans-73" x="138.525391"/>
      <use xlink:href="#DejaVuSans-76" x="190.625"/>
      <use xlink:href="#DejaVuSans-69" x="249.804688"/>
      <use xlink:href="#DejaVuSans-61" x="277.587891"/>
      <use xlink:href="#DejaVuSans-63" x="338.867188"/>
      <use xlink:href="#DejaVuSans-69" x="393.847656"/>
      <use xlink:href="#DejaVuSans-f3" x="421.630859"/>
      <use xlink:href="#DejaVuSans-6e" x="482.8125"/>
      <use xlink:href="#DejaVuSans-20" x="546.191406"/>
      <use xlink:href="#DejaVuSans-45" x="577.978516"/>
      <use xlink:href="#DejaVuSans-73" x="641.162109"/>
      <use xlink:href="#DejaVuSans-74" x="693.261719"/>
      <use xlink:href="#DejaVuSans-e1" x="732.470703"/>
      <use xlink:href="#DejaVuSans-6e" x="793.75"/>
      <use xlink:href="#DejaVuSans-64" x="857.128906"/>
      <use xlink:href="#DejaVuSans-61" x="920.605469"/>
      <use xlink:href="#DejaVuSans-72" x="981.884766"/>
      <use xlink:href="#DejaVuSans-20" x="1022.998047"/>
      <use xlink:href="#DejaVuSans-4d" x="1054.785156"/>
      <use xlink:href="#DejaVuSans-f3" x="1141.064453"/>
      <use xlink:href="#DejaVuSans-76" x="1202.246094"/>
      <use xlink:href="#DejaVuSans-69" x="1261.425781"/>
      <use xlink:href="#DejaVuSans-6c" x="1289.208984"/>
      <use xlink:href="#DejaVuSans-20" x="1316.992188"/>
      <use xlink:href="#DejaVuSans-52" x="1348.779297"/>
      <use xlink:href="#DejaVuSans-65" x="1413.761719"/>
      <use xlink:href="#DejaVuSans-61" x="1475.285156"/>
      <use xlink:href="#DejaVuSans-6c" x="1536.564453"/>
     </g>
    </g>
    <g id="line2d_18">
     <path d="M 35.925 34.976562 
L 45.925 34.976562 
L 55.925 34.976562 
" style="fill: none; stroke-dasharray: 5.55,2.4; stroke-dashoffset: 0; stroke: #ff0000; stroke-width: 1.5"/>
    </g>
    <g id="text_16">
     <!-- Desviación Estándar Móvil Pronosticada -->
     <g transform="translate(63.925 38.476562) scale(0.1 -0.1)">
      <defs>
       <path id="DejaVuSans-50" d="M 1259 4147 
L 1259 2394 
L 2053 2394 
Q 2494 2394 2734 2622 
Q 2975 2850 2975 3272 
Q 2975 3691 2734 3919 
Q 2494 4147 2053 4147 
L 1259 4147 
z
M 628 4666 
L 2053 4666 
Q 2838 4666 3239 4311 
Q 3641 3956 3641 3272 
Q 3641 2581 3239 2228 
Q 2838 1875 2053 1875 
L 1259 1875 
L 1259 0 
L 628 0 
L 628 4666 
z
" transform="scale(0.015625)"/>
       <path id="DejaVuSans-6f" d="M 1959 3097 
Q 1497 3097 1228 2736 
Q 959 2375 959 1747 
Q 959 1119 1226 758 
Q 1494 397 1959 397 
Q 2419 397 2687 759 
Q 2956 1122 2956 1747 
Q 2956 2369 2687 2733 
Q 2419 3097 1959 3097 
z
M 1959 3584 
Q 2709 3584 3137 3096 
Q 3566 2609 3566 1747 
Q 3566 888 3137 398 
Q 2709 -91 1959 -91 
Q 1206 -91 779 398 
Q 353 888 353 1747 
Q 353 2609 779 3096 
Q 1206 3584 1959 3584 
z
" transform="scale(0.015625)"/>
      </defs>
      <use xlink:href="#DejaVuSans-44"/>
      <use xlink:href="#DejaVuSans-65" x="77.001953"/>
      <use xlink:href="#DejaVuSans-73" x="138.525391"/>
      <use xlink:href="#DejaVuSans-76" x="190.625"/>
      <use xlink:href="#DejaVuSans-69" x="249.804688"/>
      <use xlink:href="#DejaVuSans-61" x="277.587891"/>
      <use xlink:href="#DejaVuSans-63" x="338.867188"/>
      <use xlink:href="#DejaVuSans-69" x="393.847656"/>
      <use xlink:href="#DejaVuSans-f3" x="421.630859"/>
      <use xlink:href="#DejaVuSans-6e" x="482.8125"/>
      <use xlink:href="#DejaVuSans-20" x="546.191406"/>
      <use xlink:href="#DejaVuSans-45" x="577.978516"/>
      <use xlink:href="#DejaVuSans-73" x="641.162109"/>
      <use xlink:href="#DejaVuSans-74" x="693.261719"/>
      <use xlink:href="#DejaVuSans-e1" x="732.470703"/>
      <use xlink:href="#DejaVuSans-6e" x="793.75"/>
      <use xlink:href="#DejaVuSans-64" x="857.128906"/>
      <use xlink:href="#DejaVuSans-61" x="920.605469"/>
      <use xlink:href="#DejaVuSans-72" x="981.884766"/>
      <use xlink:href="#DejaVuSans-20" x="1022.998047"/>
      <use xlink:href="#DejaVuSans-4d" x="1054.785156"/>
      <use xlink:href="#DejaVuSans-f3" x="1141.064453"/>
      <use xlink:href="#DejaVuSans-76" x="1202.246094"/>
      <use xlink:href="#DejaVuSans-69" x="1261.425781"/>
      <use xlink:href="#DejaVuSans-6c" x="1289.208984"/>
      <use xlink:href="#DejaVuSans-20" x="1316.992188"/>
      <use xlink:href="#DejaVuSans-50" x="1348.779297"/>
      <use xlink:href="#DejaVuSans-72" x="1407.332031"/>
      <use xlink:href="#DejaVuSans-6f" x="1446.195312"/>
      <use xlink:href="#DejaVuSans-6e" x="1507.376953"/>
      <use xlink:href="#DejaVuSans-6f" x="1570.755859"/>
      <use xlink:href="#DejaVuSans-73" x="1631.9375"/>
      <use xlink:href="#DejaVuSans-74" x="1684.037109"/>
      <use xlink:href="#DejaVuSans-69" x="1723.246094"/>
      <use xlink:href="#DejaVuSans-63" x="1751.029297"/>
      <use xlink:href="#DejaVuSans-61" x="1806.009766"/>
      <use xlink:href="#DejaVuSans-64" x="1867.289062"/>
      <use xlink:href="#DejaVuSans-61" x="1930.765625"/>
     </g>
    </g>
   </g>
  </g>
 </g>
 <defs>
  <clipPath id="pa7dc6477c7">
   <rect x="26.925" y="7.2" width="558" height="332.64"/>
  </clipPath>
 </defs>
</svg>
