<?xml version="1.0" encoding="utf-8" standalone="no"?>
<!DOCTYPE svg PUBLIC "-//W3C//DTD SVG 1.1//EN"
  "http://www.w3.org/Graphics/SVG/1.1/DTD/svg11.dtd">
<svg xmlns:xlink="http://www.w3.org/1999/xlink" width="712.789062pt" height="567.72125pt" viewBox="0 0 712.789062 567.72125" xmlns="http://www.w3.org/2000/svg" version="1.1">
 <metadata>
  <rdf:RDF xmlns:dc="http://purl.org/dc/elements/1.1/" xmlns:cc="http://creativecommons.org/ns#" xmlns:rdf="http://www.w3.org/1999/02/22-rdf-syntax-ns#">
   <cc:Work>
    <dc:type rdf:resource="http://purl.org/dc/dcmitype/StillImage"/>
    <dc:date>2024-10-19T16:13:10.714852</dc:date>
    <dc:format>image/svg+xml</dc:format>
    <dc:creator>
     <cc:Agent>
      <dc:title>Matplotlib v3.8.4, https://matplotlib.org/</dc:title>
     </cc:Agent>
    </dc:creator>
   </cc:Work>
  </rdf:RDF>
 </metadata>
 <defs>
  <style type="text/css">*{stroke-linejoin: round; stroke-linecap: butt}</style>
 </defs>
 <g id="figure_1">
  <g id="patch_1">
   <path d="M 0 567.72125 
L 712.789062 567.72125 
L 712.789062 0 
L 0 0 
z
" style="fill: #ffffff"/>
  </g>
  <g id="axes_1">
   <g id="patch_2">
    <path d="M 44.845313 261.243125 
L 705.589063 261.243125 
L 705.589063 22.318125 
L 44.845313 22.318125 
z
" style="fill: #ffffff"/>
   </g>
   <g id="PolyCollection_1">
    <path d="M 87.137816 136.46607 
L 87.137816 147.09518 
L 123.913906 147.103688 
L 148.431299 147.110293 
L 172.948693 147.138015 
L 197.466086 147.208701 
L 221.983479 147.210031 
L 246.500873 147.237342 
L 271.018266 147.26672 
L 295.535659 147.279053 
L 320.053053 147.281148 
L 344.570446 147.290639 
L 369.087839 147.291791 
L 393.605232 147.292161 
L 418.122626 147.312847 
L 442.640019 147.312852 
L 467.157412 147.314624 
L 491.674806 147.317642 
L 516.192199 147.31985 
L 540.709592 147.322373 
L 565.226986 147.322827 
L 589.744379 147.327876 
L 614.261772 147.328633 
L 638.779166 147.328659 
L 675.555256 147.32866 
L 675.555256 136.23259 
L 675.555256 136.23259 
L 638.779166 136.232591 
L 614.261772 136.232617 
L 589.744379 136.233374 
L 565.226986 136.238423 
L 540.709592 136.238877 
L 516.192199 136.2414 
L 491.674806 136.243608 
L 467.157412 136.246626 
L 442.640019 136.248398 
L 418.122626 136.248403 
L 393.605232 136.269089 
L 369.087839 136.269459 
L 344.570446 136.270611 
L 320.053053 136.280102 
L 295.535659 136.282197 
L 271.018266 136.29453 
L 246.500873 136.323908 
L 221.983479 136.351219 
L 197.466086 136.352549 
L 172.948693 136.423235 
L 148.431299 136.450957 
L 123.913906 136.457562 
L 87.137816 136.46607 
z
" clip-path="url(#p8fb2dcb00e)" style="fill: #1f77b4; fill-opacity: 0.25"/>
   </g>
   <g id="matplotlib.axis_1">
    <g id="xtick_1">
     <g id="line2d_1">
      <defs>
       <path id="mae9690f68f" d="M 0 0 
L 0 3.5 
" style="stroke: #000000; stroke-width: 0.8"/>
      </defs>
      <g>
       <use xlink:href="#mae9690f68f" x="74.879119" y="261.243125" style="stroke: #000000; stroke-width: 0.8"/>
      </g>
     </g>
     <g id="text_1">
      <!-- 0 -->
      <g transform="translate(71.697869 275.841562) scale(0.1 -0.1)">
       <defs>
        <path id="DejaVuSans-30" d="M 2034 4250 
Q 1547 4250 1301 3770 
Q 1056 3291 1056 2328 
Q 1056 1369 1301 889 
Q 1547 409 2034 409 
Q 2525 409 2770 889 
Q 3016 1369 3016 2328 
Q 3016 3291 2770 3770 
Q 2525 4250 2034 4250 
z
M 2034 4750 
Q 2819 4750 3233 4129 
Q 3647 3509 3647 2328 
Q 3647 1150 3233 529 
Q 2819 -91 2034 -91 
Q 1250 -91 836 529 
Q 422 1150 422 2328 
Q 422 3509 836 4129 
Q 1250 4750 2034 4750 
z
" transform="scale(0.015625)"/>
       </defs>
       <use xlink:href="#DejaVuSans-30"/>
      </g>
     </g>
    </g>
    <g id="xtick_2">
     <g id="line2d_2">
      <g>
       <use xlink:href="#mae9690f68f" x="197.466086" y="261.243125" style="stroke: #000000; stroke-width: 0.8"/>
      </g>
     </g>
     <g id="text_2">
      <!-- 5 -->
      <g transform="translate(194.284836 275.841562) scale(0.1 -0.1)">
       <defs>
        <path id="DejaVuSans-35" d="M 691 4666 
L 3169 4666 
L 3169 4134 
L 1269 4134 
L 1269 2991 
Q 1406 3038 1543 3061 
Q 1681 3084 1819 3084 
Q 2600 3084 3056 2656 
Q 3513 2228 3513 1497 
Q 3513 744 3044 326 
Q 2575 -91 1722 -91 
Q 1428 -91 1123 -41 
Q 819 9 494 109 
L 494 744 
Q 775 591 1075 516 
Q 1375 441 1709 441 
Q 2250 441 2565 725 
Q 2881 1009 2881 1497 
Q 2881 1984 2565 2268 
Q 2250 2553 1709 2553 
Q 1456 2553 1204 2497 
Q 953 2441 691 2322 
L 691 4666 
z
" transform="scale(0.015625)"/>
       </defs>
       <use xlink:href="#DejaVuSans-35"/>
      </g>
     </g>
    </g>
    <g id="xtick_3">
     <g id="line2d_3">
      <g>
       <use xlink:href="#mae9690f68f" x="320.053053" y="261.243125" style="stroke: #000000; stroke-width: 0.8"/>
      </g>
     </g>
     <g id="text_3">
      <!-- 10 -->
      <g transform="translate(313.690553 275.841562) scale(0.1 -0.1)">
       <defs>
        <path id="DejaVuSans-31" d="M 794 531 
L 1825 531 
L 1825 4091 
L 703 3866 
L 703 4441 
L 1819 4666 
L 2450 4666 
L 2450 531 
L 3481 531 
L 3481 0 
L 794 0 
L 794 531 
z
" transform="scale(0.015625)"/>
       </defs>
       <use xlink:href="#DejaVuSans-31"/>
       <use xlink:href="#DejaVuSans-30" x="63.623047"/>
      </g>
     </g>
    </g>
    <g id="xtick_4">
     <g id="line2d_4">
      <g>
       <use xlink:href="#mae9690f68f" x="442.640019" y="261.243125" style="stroke: #000000; stroke-width: 0.8"/>
      </g>
     </g>
     <g id="text_4">
      <!-- 15 -->
      <g transform="translate(436.277519 275.841562) scale(0.1 -0.1)">
       <use xlink:href="#DejaVuSans-31"/>
       <use xlink:href="#DejaVuSans-35" x="63.623047"/>
      </g>
     </g>
    </g>
    <g id="xtick_5">
     <g id="line2d_5">
      <g>
       <use xlink:href="#mae9690f68f" x="565.226986" y="261.243125" style="stroke: #000000; stroke-width: 0.8"/>
      </g>
     </g>
     <g id="text_5">
      <!-- 20 -->
      <g transform="translate(558.864486 275.841562) scale(0.1 -0.1)">
       <defs>
        <path id="DejaVuSans-32" d="M 1228 531 
L 3431 531 
L 3431 0 
L 469 0 
L 469 531 
Q 828 903 1448 1529 
Q 2069 2156 2228 2338 
Q 2531 2678 2651 2914 
Q 2772 3150 2772 3378 
Q 2772 3750 2511 3984 
Q 2250 4219 1831 4219 
Q 1534 4219 1204 4116 
Q 875 4013 500 3803 
L 500 4441 
Q 881 4594 1212 4672 
Q 1544 4750 1819 4750 
Q 2544 4750 2975 4387 
Q 3406 4025 3406 3419 
Q 3406 3131 3298 2873 
Q 3191 2616 2906 2266 
Q 2828 2175 2409 1742 
Q 1991 1309 1228 531 
z
" transform="scale(0.015625)"/>
       </defs>
       <use xlink:href="#DejaVuSans-32"/>
       <use xlink:href="#DejaVuSans-30" x="63.623047"/>
      </g>
     </g>
    </g>
    <g id="xtick_6">
     <g id="line2d_6">
      <g>
       <use xlink:href="#mae9690f68f" x="687.813952" y="261.243125" style="stroke: #000000; stroke-width: 0.8"/>
      </g>
     </g>
     <g id="text_6">
      <!-- 25 -->
      <g transform="translate(681.451452 275.841562) scale(0.1 -0.1)">
       <use xlink:href="#DejaVuSans-32"/>
       <use xlink:href="#DejaVuSans-35" x="63.623047"/>
      </g>
     </g>
    </g>
   </g>
   <g id="matplotlib.axis_2">
    <g id="ytick_1">
     <g id="line2d_7">
      <defs>
       <path id="m72da06b8b9" d="M 0 0 
L -3.5 0 
" style="stroke: #000000; stroke-width: 0.8"/>
      </defs>
      <g>
       <use xlink:href="#m72da06b8b9" x="44.845313" y="261.243125" style="stroke: #000000; stroke-width: 0.8"/>
      </g>
     </g>
     <g id="text_7">
      <!-- −1.00 -->
      <g transform="translate(7.2 265.042344) scale(0.1 -0.1)">
       <defs>
        <path id="DejaVuSans-2212" d="M 678 2272 
L 4684 2272 
L 4684 1741 
L 678 1741 
L 678 2272 
z
" transform="scale(0.015625)"/>
        <path id="DejaVuSans-2e" d="M 684 794 
L 1344 794 
L 1344 0 
L 684 0 
L 684 794 
z
" transform="scale(0.015625)"/>
       </defs>
       <use xlink:href="#DejaVuSans-2212"/>
       <use xlink:href="#DejaVuSans-31" x="83.789062"/>
       <use xlink:href="#DejaVuSans-2e" x="147.412109"/>
       <use xlink:href="#DejaVuSans-30" x="179.199219"/>
       <use xlink:href="#DejaVuSans-30" x="242.822266"/>
      </g>
     </g>
    </g>
    <g id="ytick_2">
     <g id="line2d_8">
      <g>
       <use xlink:href="#m72da06b8b9" x="44.845313" y="231.3775" style="stroke: #000000; stroke-width: 0.8"/>
      </g>
     </g>
     <g id="text_8">
      <!-- −0.75 -->
      <g transform="translate(7.2 235.176719) scale(0.1 -0.1)">
       <defs>
        <path id="DejaVuSans-37" d="M 525 4666 
L 3525 4666 
L 3525 4397 
L 1831 0 
L 1172 0 
L 2766 4134 
L 525 4134 
L 525 4666 
z
" transform="scale(0.015625)"/>
       </defs>
       <use xlink:href="#DejaVuSans-2212"/>
       <use xlink:href="#DejaVuSans-30" x="83.789062"/>
       <use xlink:href="#DejaVuSans-2e" x="147.412109"/>
       <use xlink:href="#DejaVuSans-37" x="179.199219"/>
       <use xlink:href="#DejaVuSans-35" x="242.822266"/>
      </g>
     </g>
    </g>
    <g id="ytick_3">
     <g id="line2d_9">
      <g>
       <use xlink:href="#m72da06b8b9" x="44.845313" y="201.511875" style="stroke: #000000; stroke-width: 0.8"/>
      </g>
     </g>
     <g id="text_9">
      <!-- −0.50 -->
      <g transform="translate(7.2 205.311094) scale(0.1 -0.1)">
       <use xlink:href="#DejaVuSans-2212"/>
       <use xlink:href="#DejaVuSans-30" x="83.789062"/>
       <use xlink:href="#DejaVuSans-2e" x="147.412109"/>
       <use xlink:href="#DejaVuSans-35" x="179.199219"/>
       <use xlink:href="#DejaVuSans-30" x="242.822266"/>
      </g>
     </g>
    </g>
    <g id="ytick_4">
     <g id="line2d_10">
      <g>
       <use xlink:href="#m72da06b8b9" x="44.845313" y="171.64625" style="stroke: #000000; stroke-width: 0.8"/>
      </g>
     </g>
     <g id="text_10">
      <!-- −0.25 -->
      <g transform="translate(7.2 175.445469) scale(0.1 -0.1)">
       <use xlink:href="#DejaVuSans-2212"/>
       <use xlink:href="#DejaVuSans-30" x="83.789062"/>
       <use xlink:href="#DejaVuSans-2e" x="147.412109"/>
       <use xlink:href="#DejaVuSans-32" x="179.199219"/>
       <use xlink:href="#DejaVuSans-35" x="242.822266"/>
      </g>
     </g>
    </g>
    <g id="ytick_5">
     <g id="line2d_11">
      <g>
       <use xlink:href="#m72da06b8b9" x="44.845313" y="141.780625" style="stroke: #000000; stroke-width: 0.8"/>
      </g>
     </g>
     <g id="text_11">
      <!-- 0.00 -->
      <g transform="translate(15.579688 145.579844) scale(0.1 -0.1)">
       <use xlink:href="#DejaVuSans-30"/>
       <use xlink:href="#DejaVuSans-2e" x="63.623047"/>
       <use xlink:href="#DejaVuSans-30" x="95.410156"/>
       <use xlink:href="#DejaVuSans-30" x="159.033203"/>
      </g>
     </g>
    </g>
    <g id="ytick_6">
     <g id="line2d_12">
      <g>
       <use xlink:href="#m72da06b8b9" x="44.845313" y="111.915" style="stroke: #000000; stroke-width: 0.8"/>
      </g>
     </g>
     <g id="text_12">
      <!-- 0.25 -->
      <g transform="translate(15.579688 115.714219) scale(0.1 -0.1)">
       <use xlink:href="#DejaVuSans-30"/>
       <use xlink:href="#DejaVuSans-2e" x="63.623047"/>
       <use xlink:href="#DejaVuSans-32" x="95.410156"/>
       <use xlink:href="#DejaVuSans-35" x="159.033203"/>
      </g>
     </g>
    </g>
    <g id="ytick_7">
     <g id="line2d_13">
      <g>
       <use xlink:href="#m72da06b8b9" x="44.845313" y="82.049375" style="stroke: #000000; stroke-width: 0.8"/>
      </g>
     </g>
     <g id="text_13">
      <!-- 0.50 -->
      <g transform="translate(15.579688 85.848594) scale(0.1 -0.1)">
       <use xlink:href="#DejaVuSans-30"/>
       <use xlink:href="#DejaVuSans-2e" x="63.623047"/>
       <use xlink:href="#DejaVuSans-35" x="95.410156"/>
       <use xlink:href="#DejaVuSans-30" x="159.033203"/>
      </g>
     </g>
    </g>
    <g id="ytick_8">
     <g id="line2d_14">
      <g>
       <use xlink:href="#m72da06b8b9" x="44.845313" y="52.18375" style="stroke: #000000; stroke-width: 0.8"/>
      </g>
     </g>
     <g id="text_14">
      <!-- 0.75 -->
      <g transform="translate(15.579688 55.982969) scale(0.1 -0.1)">
       <use xlink:href="#DejaVuSans-30"/>
       <use xlink:href="#DejaVuSans-2e" x="63.623047"/>
       <use xlink:href="#DejaVuSans-37" x="95.410156"/>
       <use xlink:href="#DejaVuSans-35" x="159.033203"/>
      </g>
     </g>
    </g>
    <g id="ytick_9">
     <g id="line2d_15">
      <g>
       <use xlink:href="#m72da06b8b9" x="44.845313" y="22.318125" style="stroke: #000000; stroke-width: 0.8"/>
      </g>
     </g>
     <g id="text_15">
      <!-- 1.00 -->
      <g transform="translate(15.579688 26.117344) scale(0.1 -0.1)">
       <use xlink:href="#DejaVuSans-31"/>
       <use xlink:href="#DejaVuSans-2e" x="63.623047"/>
       <use xlink:href="#DejaVuSans-30" x="95.410156"/>
       <use xlink:href="#DejaVuSans-30" x="159.033203"/>
      </g>
     </g>
    </g>
   </g>
   <g id="LineCollection_1">
    <path d="M 74.879119 141.780625 
L 74.879119 22.318125 
" clip-path="url(#p8fb2dcb00e)" style="fill: none; stroke: #1f77b4; stroke-width: 1.5"/>
    <path d="M 99.396513 141.780625 
L 99.396513 136.99903 
" clip-path="url(#p8fb2dcb00e)" style="fill: none; stroke: #1f77b4; stroke-width: 1.5"/>
    <path d="M 123.913906 141.780625 
L 123.913906 137.564403 
" clip-path="url(#p8fb2dcb00e)" style="fill: none; stroke: #1f77b4; stroke-width: 1.5"/>
    <path d="M 148.431299 141.780625 
L 148.431299 133.129163 
" clip-path="url(#p8fb2dcb00e)" style="fill: none; stroke: #1f77b4; stroke-width: 1.5"/>
    <path d="M 172.948693 141.780625 
L 172.948693 127.902287 
" clip-path="url(#p8fb2dcb00e)" style="fill: none; stroke: #1f77b4; stroke-width: 1.5"/>
    <path d="M 197.466086 141.780625 
L 197.466086 139.871096 
" clip-path="url(#p8fb2dcb00e)" style="fill: none; stroke: #1f77b4; stroke-width: 1.5"/>
    <path d="M 221.983479 141.780625 
L 221.983479 133.113873 
" clip-path="url(#p8fb2dcb00e)" style="fill: none; stroke: #1f77b4; stroke-width: 1.5"/>
    <path d="M 246.500873 141.780625 
L 246.500873 132.768425 
" clip-path="url(#p8fb2dcb00e)" style="fill: none; stroke: #1f77b4; stroke-width: 1.5"/>
    <path d="M 271.018266 141.780625 
L 271.018266 135.930432 
" clip-path="url(#p8fb2dcb00e)" style="fill: none; stroke: #1f77b4; stroke-width: 1.5"/>
    <path d="M 295.535659 141.780625 
L 295.535659 139.368218 
" clip-path="url(#p8fb2dcb00e)" style="fill: none; stroke: #1f77b4; stroke-width: 1.5"/>
    <path d="M 320.053053 141.780625 
L 320.053053 136.64237 
" clip-path="url(#p8fb2dcb00e)" style="fill: none; stroke: #1f77b4; stroke-width: 1.5"/>
    <path d="M 344.570446 141.780625 
L 344.570446 139.98916 
" clip-path="url(#p8fb2dcb00e)" style="fill: none; stroke: #1f77b4; stroke-width: 1.5"/>
    <path d="M 369.087839 141.780625 
L 369.087839 140.765848 
" clip-path="url(#p8fb2dcb00e)" style="fill: none; stroke: #1f77b4; stroke-width: 1.5"/>
    <path d="M 393.605232 141.780625 
L 393.605232 134.18354 
" clip-path="url(#p8fb2dcb00e)" style="fill: none; stroke: #1f77b4; stroke-width: 1.5"/>
    <path d="M 418.122626 141.780625 
L 418.122626 141.895909 
" clip-path="url(#p8fb2dcb00e)" style="fill: none; stroke: #1f77b4; stroke-width: 1.5"/>
    <path d="M 442.640019 141.780625 
L 442.640019 144.006633 
" clip-path="url(#p8fb2dcb00e)" style="fill: none; stroke: #1f77b4; stroke-width: 1.5"/>
    <path d="M 467.157412 141.780625 
L 467.157412 138.875239 
" clip-path="url(#p8fb2dcb00e)" style="fill: none; stroke: #1f77b4; stroke-width: 1.5"/>
    <path d="M 491.674806 141.780625 
L 491.674806 139.294955 
" clip-path="url(#p8fb2dcb00e)" style="fill: none; stroke: #1f77b4; stroke-width: 1.5"/>
    <path d="M 516.192199 141.780625 
L 516.192199 139.123343 
" clip-path="url(#p8fb2dcb00e)" style="fill: none; stroke: #1f77b4; stroke-width: 1.5"/>
    <path d="M 540.709592 141.780625 
L 540.709592 140.652702 
" clip-path="url(#p8fb2dcb00e)" style="fill: none; stroke: #1f77b4; stroke-width: 1.5"/>
    <path d="M 565.226986 141.780625 
L 565.226986 138.019715 
" clip-path="url(#p8fb2dcb00e)" style="fill: none; stroke: #1f77b4; stroke-width: 1.5"/>
    <path d="M 589.744379 141.780625 
L 589.744379 143.237795 
" clip-path="url(#p8fb2dcb00e)" style="fill: none; stroke: #1f77b4; stroke-width: 1.5"/>
    <path d="M 614.261772 141.780625 
L 614.261772 142.051858 
" clip-path="url(#p8fb2dcb00e)" style="fill: none; stroke: #1f77b4; stroke-width: 1.5"/>
    <path d="M 638.779166 141.780625 
L 638.779166 141.74824 
" clip-path="url(#p8fb2dcb00e)" style="fill: none; stroke: #1f77b4; stroke-width: 1.5"/>
    <path d="M 663.296559 141.780625 
L 663.296559 143.903482 
" clip-path="url(#p8fb2dcb00e)" style="fill: none; stroke: #1f77b4; stroke-width: 1.5"/>
   </g>
   <g id="line2d_16">
    <path d="M 44.845313 141.780625 
L 705.589063 141.780625 
" clip-path="url(#p8fb2dcb00e)" style="fill: none; stroke: #1f77b4; stroke-width: 1.5; stroke-linecap: square"/>
   </g>
   <g id="line2d_17">
    <defs>
     <path id="m6e4e7f1e37" d="M 0 2.5 
C 0.663008 2.5 1.29895 2.236584 1.767767 1.767767 
C 2.236584 1.29895 2.5 0.663008 2.5 0 
C 2.5 -0.663008 2.236584 -1.29895 1.767767 -1.767767 
C 1.29895 -2.236584 0.663008 -2.5 0 -2.5 
C -0.663008 -2.5 -1.29895 -2.236584 -1.767767 -1.767767 
C -2.236584 -1.29895 -2.5 -0.663008 -2.5 0 
C -2.5 0.663008 -2.236584 1.29895 -1.767767 1.767767 
C -1.29895 2.236584 -0.663008 2.5 0 2.5 
z
" style="stroke: #1f77b4"/>
    </defs>
    <g clip-path="url(#p8fb2dcb00e)">
     <use xlink:href="#m6e4e7f1e37" x="74.879119" y="22.318125" style="fill: #1f77b4; stroke: #1f77b4"/>
     <use xlink:href="#m6e4e7f1e37" x="99.396513" y="136.99903" style="fill: #1f77b4; stroke: #1f77b4"/>
     <use xlink:href="#m6e4e7f1e37" x="123.913906" y="137.564403" style="fill: #1f77b4; stroke: #1f77b4"/>
     <use xlink:href="#m6e4e7f1e37" x="148.431299" y="133.129163" style="fill: #1f77b4; stroke: #1f77b4"/>
     <use xlink:href="#m6e4e7f1e37" x="172.948693" y="127.902287" style="fill: #1f77b4; stroke: #1f77b4"/>
     <use xlink:href="#m6e4e7f1e37" x="197.466086" y="139.871096" style="fill: #1f77b4; stroke: #1f77b4"/>
     <use xlink:href="#m6e4e7f1e37" x="221.983479" y="133.113873" style="fill: #1f77b4; stroke: #1f77b4"/>
     <use xlink:href="#m6e4e7f1e37" x="246.500873" y="132.768425" style="fill: #1f77b4; stroke: #1f77b4"/>
     <use xlink:href="#m6e4e7f1e37" x="271.018266" y="135.930432" style="fill: #1f77b4; stroke: #1f77b4"/>
     <use xlink:href="#m6e4e7f1e37" x="295.535659" y="139.368218" style="fill: #1f77b4; stroke: #1f77b4"/>
     <use xlink:href="#m6e4e7f1e37" x="320.053053" y="136.64237" style="fill: #1f77b4; stroke: #1f77b4"/>
     <use xlink:href="#m6e4e7f1e37" x="344.570446" y="139.98916" style="fill: #1f77b4; stroke: #1f77b4"/>
     <use xlink:href="#m6e4e7f1e37" x="369.087839" y="140.765848" style="fill: #1f77b4; stroke: #1f77b4"/>
     <use xlink:href="#m6e4e7f1e37" x="393.605232" y="134.18354" style="fill: #1f77b4; stroke: #1f77b4"/>
     <use xlink:href="#m6e4e7f1e37" x="418.122626" y="141.895909" style="fill: #1f77b4; stroke: #1f77b4"/>
     <use xlink:href="#m6e4e7f1e37" x="442.640019" y="144.006633" style="fill: #1f77b4; stroke: #1f77b4"/>
     <use xlink:href="#m6e4e7f1e37" x="467.157412" y="138.875239" style="fill: #1f77b4; stroke: #1f77b4"/>
     <use xlink:href="#m6e4e7f1e37" x="491.674806" y="139.294955" style="fill: #1f77b4; stroke: #1f77b4"/>
     <use xlink:href="#m6e4e7f1e37" x="516.192199" y="139.123343" style="fill: #1f77b4; stroke: #1f77b4"/>
     <use xlink:href="#m6e4e7f1e37" x="540.709592" y="140.652702" style="fill: #1f77b4; stroke: #1f77b4"/>
     <use xlink:href="#m6e4e7f1e37" x="565.226986" y="138.019715" style="fill: #1f77b4; stroke: #1f77b4"/>
     <use xlink:href="#m6e4e7f1e37" x="589.744379" y="143.237795" style="fill: #1f77b4; stroke: #1f77b4"/>
     <use xlink:href="#m6e4e7f1e37" x="614.261772" y="142.051858" style="fill: #1f77b4; stroke: #1f77b4"/>
     <use xlink:href="#m6e4e7f1e37" x="638.779166" y="141.74824" style="fill: #1f77b4; stroke: #1f77b4"/>
     <use xlink:href="#m6e4e7f1e37" x="663.296559" y="143.903482" style="fill: #1f77b4; stroke: #1f77b4"/>
    </g>
   </g>
   <g id="patch_3">
    <path d="M 44.845313 261.243125 
L 44.845313 22.318125 
" style="fill: none; stroke: #000000; stroke-width: 0.8; stroke-linejoin: miter; stroke-linecap: square"/>
   </g>
   <g id="patch_4">
    <path d="M 705.589063 261.243125 
L 705.589063 22.318125 
" style="fill: none; stroke: #000000; stroke-width: 0.8; stroke-linejoin: miter; stroke-linecap: square"/>
   </g>
   <g id="patch_5">
    <path d="M 44.845313 261.243125 
L 705.589062 261.243125 
" style="fill: none; stroke: #000000; stroke-width: 0.8; stroke-linejoin: miter; stroke-linecap: square"/>
   </g>
   <g id="patch_6">
    <path d="M 44.845313 22.318125 
L 705.589062 22.318125 
" style="fill: none; stroke: #000000; stroke-width: 0.8; stroke-linejoin: miter; stroke-linecap: square"/>
   </g>
   <g id="text_16">
    <!-- Función de Autocorrelación (ACF) -->
    <g transform="translate(275.439063 16.318125) scale(0.12 -0.12)">
     <defs>
      <path id="DejaVuSans-46" d="M 628 4666 
L 3309 4666 
L 3309 4134 
L 1259 4134 
L 1259 2759 
L 3109 2759 
L 3109 2228 
L 1259 2228 
L 1259 0 
L 628 0 
L 628 4666 
z
" transform="scale(0.015625)"/>
      <path id="DejaVuSans-75" d="M 544 1381 
L 544 3500 
L 1119 3500 
L 1119 1403 
Q 1119 906 1312 657 
Q 1506 409 1894 409 
Q 2359 409 2629 706 
Q 2900 1003 2900 1516 
L 2900 3500 
L 3475 3500 
L 3475 0 
L 2900 0 
L 2900 538 
Q 2691 219 2414 64 
Q 2138 -91 1772 -91 
Q 1169 -91 856 284 
Q 544 659 544 1381 
z
M 1991 3584 
L 1991 3584 
z
" transform="scale(0.015625)"/>
      <path id="DejaVuSans-6e" d="M 3513 2113 
L 3513 0 
L 2938 0 
L 2938 2094 
Q 2938 2591 2744 2837 
Q 2550 3084 2163 3084 
Q 1697 3084 1428 2787 
Q 1159 2491 1159 1978 
L 1159 0 
L 581 0 
L 581 3500 
L 1159 3500 
L 1159 2956 
Q 1366 3272 1645 3428 
Q 1925 3584 2291 3584 
Q 2894 3584 3203 3211 
Q 3513 2838 3513 2113 
z
" transform="scale(0.015625)"/>
      <path id="DejaVuSans-63" d="M 3122 3366 
L 3122 2828 
Q 2878 2963 2633 3030 
Q 2388 3097 2138 3097 
Q 1578 3097 1268 2742 
Q 959 2388 959 1747 
Q 959 1106 1268 751 
Q 1578 397 2138 397 
Q 2388 397 2633 464 
Q 2878 531 3122 666 
L 3122 134 
Q 2881 22 2623 -34 
Q 2366 -91 2075 -91 
Q 1284 -91 818 406 
Q 353 903 353 1747 
Q 353 2603 823 3093 
Q 1294 3584 2113 3584 
Q 2378 3584 2631 3529 
Q 2884 3475 3122 3366 
z
" transform="scale(0.015625)"/>
      <path id="DejaVuSans-69" d="M 603 3500 
L 1178 3500 
L 1178 0 
L 603 0 
L 603 3500 
z
M 603 4863 
L 1178 4863 
L 1178 4134 
L 603 4134 
L 603 4863 
z
" transform="scale(0.015625)"/>
      <path id="DejaVuSans-f3" d="M 1959 3097 
Q 1497 3097 1228 2736 
Q 959 2375 959 1747 
Q 959 1119 1226 758 
Q 1494 397 1959 397 
Q 2419 397 2687 759 
Q 2956 1122 2956 1747 
Q 2956 2369 2687 2733 
Q 2419 3097 1959 3097 
z
M 1959 3584 
Q 2709 3584 3137 3096 
Q 3566 2609 3566 1747 
Q 3566 888 3137 398 
Q 2709 -91 1959 -91 
Q 1206 -91 779 398 
Q 353 888 353 1747 
Q 353 2609 779 3096 
Q 1206 3584 1959 3584 
z
M 2394 5119 
L 3016 5119 
L 1997 3944 
L 1519 3944 
L 2394 5119 
z
" transform="scale(0.015625)"/>
      <path id="DejaVuSans-20" transform="scale(0.015625)"/>
      <path id="DejaVuSans-64" d="M 2906 2969 
L 2906 4863 
L 3481 4863 
L 3481 0 
L 2906 0 
L 2906 525 
Q 2725 213 2448 61 
Q 2172 -91 1784 -91 
Q 1150 -91 751 415 
Q 353 922 353 1747 
Q 353 2572 751 3078 
Q 1150 3584 1784 3584 
Q 2172 3584 2448 3432 
Q 2725 3281 2906 2969 
z
M 947 1747 
Q 947 1113 1208 752 
Q 1469 391 1925 391 
Q 2381 391 2643 752 
Q 2906 1113 2906 1747 
Q 2906 2381 2643 2742 
Q 2381 3103 1925 3103 
Q 1469 3103 1208 2742 
Q 947 2381 947 1747 
z
" transform="scale(0.015625)"/>
      <path id="DejaVuSans-65" d="M 3597 1894 
L 3597 1613 
L 953 1613 
Q 991 1019 1311 708 
Q 1631 397 2203 397 
Q 2534 397 2845 478 
Q 3156 559 3463 722 
L 3463 178 
Q 3153 47 2828 -22 
Q 2503 -91 2169 -91 
Q 1331 -91 842 396 
Q 353 884 353 1716 
Q 353 2575 817 3079 
Q 1281 3584 2069 3584 
Q 2775 3584 3186 3129 
Q 3597 2675 3597 1894 
z
M 3022 2063 
Q 3016 2534 2758 2815 
Q 2500 3097 2075 3097 
Q 1594 3097 1305 2825 
Q 1016 2553 972 2059 
L 3022 2063 
z
" transform="scale(0.015625)"/>
      <path id="DejaVuSans-41" d="M 2188 4044 
L 1331 1722 
L 3047 1722 
L 2188 4044 
z
M 1831 4666 
L 2547 4666 
L 4325 0 
L 3669 0 
L 3244 1197 
L 1141 1197 
L 716 0 
L 50 0 
L 1831 4666 
z
" transform="scale(0.015625)"/>
      <path id="DejaVuSans-74" d="M 1172 4494 
L 1172 3500 
L 2356 3500 
L 2356 3053 
L 1172 3053 
L 1172 1153 
Q 1172 725 1289 603 
Q 1406 481 1766 481 
L 2356 481 
L 2356 0 
L 1766 0 
Q 1100 0 847 248 
Q 594 497 594 1153 
L 594 3053 
L 172 3053 
L 172 3500 
L 594 3500 
L 594 4494 
L 1172 4494 
z
" transform="scale(0.015625)"/>
      <path id="DejaVuSans-6f" d="M 1959 3097 
Q 1497 3097 1228 2736 
Q 959 2375 959 1747 
Q 959 1119 1226 758 
Q 1494 397 1959 397 
Q 2419 397 2687 759 
Q 2956 1122 2956 1747 
Q 2956 2369 2687 2733 
Q 2419 3097 1959 3097 
z
M 1959 3584 
Q 2709 3584 3137 3096 
Q 3566 2609 3566 1747 
Q 3566 888 3137 398 
Q 2709 -91 1959 -91 
Q 1206 -91 779 398 
Q 353 888 353 1747 
Q 353 2609 779 3096 
Q 1206 3584 1959 3584 
z
" transform="scale(0.015625)"/>
      <path id="DejaVuSans-72" d="M 2631 2963 
Q 2534 3019 2420 3045 
Q 2306 3072 2169 3072 
Q 1681 3072 1420 2755 
Q 1159 2438 1159 1844 
L 1159 0 
L 581 0 
L 581 3500 
L 1159 3500 
L 1159 2956 
Q 1341 3275 1631 3429 
Q 1922 3584 2338 3584 
Q 2397 3584 2469 3576 
Q 2541 3569 2628 3553 
L 2631 2963 
z
" transform="scale(0.015625)"/>
      <path id="DejaVuSans-6c" d="M 603 4863 
L 1178 4863 
L 1178 0 
L 603 0 
L 603 4863 
z
" transform="scale(0.015625)"/>
      <path id="DejaVuSans-61" d="M 2194 1759 
Q 1497 1759 1228 1600 
Q 959 1441 959 1056 
Q 959 750 1161 570 
Q 1363 391 1709 391 
Q 2188 391 2477 730 
Q 2766 1069 2766 1631 
L 2766 1759 
L 2194 1759 
z
M 3341 1997 
L 3341 0 
L 2766 0 
L 2766 531 
Q 2569 213 2275 61 
Q 1981 -91 1556 -91 
Q 1019 -91 701 211 
Q 384 513 384 1019 
Q 384 1609 779 1909 
Q 1175 2209 1959 2209 
L 2766 2209 
L 2766 2266 
Q 2766 2663 2505 2880 
Q 2244 3097 1772 3097 
Q 1472 3097 1187 3025 
Q 903 2953 641 2809 
L 641 3341 
Q 956 3463 1253 3523 
Q 1550 3584 1831 3584 
Q 2591 3584 2966 3190 
Q 3341 2797 3341 1997 
z
" transform="scale(0.015625)"/>
      <path id="DejaVuSans-28" d="M 1984 4856 
Q 1566 4138 1362 3434 
Q 1159 2731 1159 2009 
Q 1159 1288 1364 580 
Q 1569 -128 1984 -844 
L 1484 -844 
Q 1016 -109 783 600 
Q 550 1309 550 2009 
Q 550 2706 781 3412 
Q 1013 4119 1484 4856 
L 1984 4856 
z
" transform="scale(0.015625)"/>
      <path id="DejaVuSans-43" d="M 4122 4306 
L 4122 3641 
Q 3803 3938 3442 4084 
Q 3081 4231 2675 4231 
Q 1875 4231 1450 3742 
Q 1025 3253 1025 2328 
Q 1025 1406 1450 917 
Q 1875 428 2675 428 
Q 3081 428 3442 575 
Q 3803 722 4122 1019 
L 4122 359 
Q 3791 134 3420 21 
Q 3050 -91 2638 -91 
Q 1578 -91 968 557 
Q 359 1206 359 2328 
Q 359 3453 968 4101 
Q 1578 4750 2638 4750 
Q 3056 4750 3426 4639 
Q 3797 4528 4122 4306 
z
" transform="scale(0.015625)"/>
      <path id="DejaVuSans-29" d="M 513 4856 
L 1013 4856 
Q 1481 4119 1714 3412 
Q 1947 2706 1947 2009 
Q 1947 1309 1714 600 
Q 1481 -109 1013 -844 
L 513 -844 
Q 928 -128 1133 580 
Q 1338 1288 1338 2009 
Q 1338 2731 1133 3434 
Q 928 4138 513 4856 
z
" transform="scale(0.015625)"/>
     </defs>
     <use xlink:href="#DejaVuSans-46"/>
     <use xlink:href="#DejaVuSans-75" x="52.019531"/>
     <use xlink:href="#DejaVuSans-6e" x="115.398438"/>
     <use xlink:href="#DejaVuSans-63" x="178.777344"/>
     <use xlink:href="#DejaVuSans-69" x="233.757812"/>
     <use xlink:href="#DejaVuSans-f3" x="261.541016"/>
     <use xlink:href="#DejaVuSans-6e" x="322.722656"/>
     <use xlink:href="#DejaVuSans-20" x="386.101562"/>
     <use xlink:href="#DejaVuSans-64" x="417.888672"/>
     <use xlink:href="#DejaVuSans-65" x="481.365234"/>
     <use xlink:href="#DejaVuSans-20" x="542.888672"/>
     <use xlink:href="#DejaVuSans-41" x="574.675781"/>
     <use xlink:href="#DejaVuSans-75" x="643.083984"/>
     <use xlink:href="#DejaVuSans-74" x="706.462891"/>
     <use xlink:href="#DejaVuSans-6f" x="745.671875"/>
     <use xlink:href="#DejaVuSans-63" x="806.853516"/>
     <use xlink:href="#DejaVuSans-6f" x="861.833984"/>
     <use xlink:href="#DejaVuSans-72" x="923.015625"/>
     <use xlink:href="#DejaVuSans-72" x="962.378906"/>
     <use xlink:href="#DejaVuSans-65" x="1001.242188"/>
     <use xlink:href="#DejaVuSans-6c" x="1062.765625"/>
     <use xlink:href="#DejaVuSans-61" x="1090.548828"/>
     <use xlink:href="#DejaVuSans-63" x="1151.828125"/>
     <use xlink:href="#DejaVuSans-69" x="1206.808594"/>
     <use xlink:href="#DejaVuSans-f3" x="1234.591797"/>
     <use xlink:href="#DejaVuSans-6e" x="1295.773438"/>
     <use xlink:href="#DejaVuSans-20" x="1359.152344"/>
     <use xlink:href="#DejaVuSans-28" x="1390.939453"/>
     <use xlink:href="#DejaVuSans-41" x="1429.953125"/>
     <use xlink:href="#DejaVuSans-43" x="1496.611328"/>
     <use xlink:href="#DejaVuSans-46" x="1566.435547"/>
     <use xlink:href="#DejaVuSans-29" x="1623.955078"/>
    </g>
   </g>
  </g>
  <g id="axes_2">
   <g id="patch_7">
    <path d="M 44.845313 543.843125 
L 705.589063 543.843125 
L 705.589063 304.918125 
L 44.845313 304.918125 
z
" style="fill: #ffffff"/>
   </g>
   <g id="PolyCollection_2">
    <path d="M 98.906165 419.06607 
L 98.906165 429.69518 
L 170.987301 429.69518 
L 219.041392 429.69518 
L 267.095483 429.69518 
L 315.149574 429.69518 
L 363.203665 429.69518 
L 411.257756 429.69518 
L 459.311847 429.69518 
L 507.365938 429.69518 
L 555.420028 429.69518 
L 603.474119 429.69518 
L 675.555256 429.69518 
L 675.555256 419.06607 
L 675.555256 419.06607 
L 603.474119 419.06607 
L 555.420028 419.06607 
L 507.365938 419.06607 
L 459.311847 419.06607 
L 411.257756 419.06607 
L 363.203665 419.06607 
L 315.149574 419.06607 
L 267.095483 419.06607 
L 219.041392 419.06607 
L 170.987301 419.06607 
L 98.906165 419.06607 
z
" clip-path="url(#pe8472d5ba2)" style="fill: #1f77b4; fill-opacity: 0.25"/>
   </g>
   <g id="matplotlib.axis_3">
    <g id="xtick_7">
     <g id="line2d_18">
      <g>
       <use xlink:href="#mae9690f68f" x="74.879119" y="543.843125" style="stroke: #000000; stroke-width: 0.8"/>
      </g>
     </g>
     <g id="text_17">
      <!-- 0 -->
      <g transform="translate(71.697869 558.441562) scale(0.1 -0.1)">
       <use xlink:href="#DejaVuSans-30"/>
      </g>
     </g>
    </g>
    <g id="xtick_8">
     <g id="line2d_19">
      <g>
       <use xlink:href="#mae9690f68f" x="170.987301" y="543.843125" style="stroke: #000000; stroke-width: 0.8"/>
      </g>
     </g>
     <g id="text_18">
      <!-- 2 -->
      <g transform="translate(167.806051 558.441562) scale(0.1 -0.1)">
       <use xlink:href="#DejaVuSans-32"/>
      </g>
     </g>
    </g>
    <g id="xtick_9">
     <g id="line2d_20">
      <g>
       <use xlink:href="#mae9690f68f" x="267.095483" y="543.843125" style="stroke: #000000; stroke-width: 0.8"/>
      </g>
     </g>
     <g id="text_19">
      <!-- 4 -->
      <g transform="translate(263.914233 558.441562) scale(0.1 -0.1)">
       <defs>
        <path id="DejaVuSans-34" d="M 2419 4116 
L 825 1625 
L 2419 1625 
L 2419 4116 
z
M 2253 4666 
L 3047 4666 
L 3047 1625 
L 3713 1625 
L 3713 1100 
L 3047 1100 
L 3047 0 
L 2419 0 
L 2419 1100 
L 313 1100 
L 313 1709 
L 2253 4666 
z
" transform="scale(0.015625)"/>
       </defs>
       <use xlink:href="#DejaVuSans-34"/>
      </g>
     </g>
    </g>
    <g id="xtick_10">
     <g id="line2d_21">
      <g>
       <use xlink:href="#mae9690f68f" x="363.203665" y="543.843125" style="stroke: #000000; stroke-width: 0.8"/>
      </g>
     </g>
     <g id="text_20">
      <!-- 6 -->
      <g transform="translate(360.022415 558.441562) scale(0.1 -0.1)">
       <defs>
        <path id="DejaVuSans-36" d="M 2113 2584 
Q 1688 2584 1439 2293 
Q 1191 2003 1191 1497 
Q 1191 994 1439 701 
Q 1688 409 2113 409 
Q 2538 409 2786 701 
Q 3034 994 3034 1497 
Q 3034 2003 2786 2293 
Q 2538 2584 2113 2584 
z
M 3366 4563 
L 3366 3988 
Q 3128 4100 2886 4159 
Q 2644 4219 2406 4219 
Q 1781 4219 1451 3797 
Q 1122 3375 1075 2522 
Q 1259 2794 1537 2939 
Q 1816 3084 2150 3084 
Q 2853 3084 3261 2657 
Q 3669 2231 3669 1497 
Q 3669 778 3244 343 
Q 2819 -91 2113 -91 
Q 1303 -91 875 529 
Q 447 1150 447 2328 
Q 447 3434 972 4092 
Q 1497 4750 2381 4750 
Q 2619 4750 2861 4703 
Q 3103 4656 3366 4563 
z
" transform="scale(0.015625)"/>
       </defs>
       <use xlink:href="#DejaVuSans-36"/>
      </g>
     </g>
    </g>
    <g id="xtick_11">
     <g id="line2d_22">
      <g>
       <use xlink:href="#mae9690f68f" x="459.311847" y="543.843125" style="stroke: #000000; stroke-width: 0.8"/>
      </g>
     </g>
     <g id="text_21">
      <!-- 8 -->
      <g transform="translate(456.130597 558.441562) scale(0.1 -0.1)">
       <defs>
        <path id="DejaVuSans-38" d="M 2034 2216 
Q 1584 2216 1326 1975 
Q 1069 1734 1069 1313 
Q 1069 891 1326 650 
Q 1584 409 2034 409 
Q 2484 409 2743 651 
Q 3003 894 3003 1313 
Q 3003 1734 2745 1975 
Q 2488 2216 2034 2216 
z
M 1403 2484 
Q 997 2584 770 2862 
Q 544 3141 544 3541 
Q 544 4100 942 4425 
Q 1341 4750 2034 4750 
Q 2731 4750 3128 4425 
Q 3525 4100 3525 3541 
Q 3525 3141 3298 2862 
Q 3072 2584 2669 2484 
Q 3125 2378 3379 2068 
Q 3634 1759 3634 1313 
Q 3634 634 3220 271 
Q 2806 -91 2034 -91 
Q 1263 -91 848 271 
Q 434 634 434 1313 
Q 434 1759 690 2068 
Q 947 2378 1403 2484 
z
M 1172 3481 
Q 1172 3119 1398 2916 
Q 1625 2713 2034 2713 
Q 2441 2713 2670 2916 
Q 2900 3119 2900 3481 
Q 2900 3844 2670 4047 
Q 2441 4250 2034 4250 
Q 1625 4250 1398 4047 
Q 1172 3844 1172 3481 
z
" transform="scale(0.015625)"/>
       </defs>
       <use xlink:href="#DejaVuSans-38"/>
      </g>
     </g>
    </g>
    <g id="xtick_12">
     <g id="line2d_23">
      <g>
       <use xlink:href="#mae9690f68f" x="555.420028" y="543.843125" style="stroke: #000000; stroke-width: 0.8"/>
      </g>
     </g>
     <g id="text_22">
      <!-- 10 -->
      <g transform="translate(549.057528 558.441562) scale(0.1 -0.1)">
       <use xlink:href="#DejaVuSans-31"/>
       <use xlink:href="#DejaVuSans-30" x="63.623047"/>
      </g>
     </g>
    </g>
    <g id="xtick_13">
     <g id="line2d_24">
      <g>
       <use xlink:href="#mae9690f68f" x="651.52821" y="543.843125" style="stroke: #000000; stroke-width: 0.8"/>
      </g>
     </g>
     <g id="text_23">
      <!-- 12 -->
      <g transform="translate(645.16571 558.441562) scale(0.1 -0.1)">
       <use xlink:href="#DejaVuSans-31"/>
       <use xlink:href="#DejaVuSans-32" x="63.623047"/>
      </g>
     </g>
    </g>
   </g>
   <g id="matplotlib.axis_4">
    <g id="ytick_10">
     <g id="line2d_25">
      <g>
       <use xlink:href="#m72da06b8b9" x="44.845313" y="543.843125" style="stroke: #000000; stroke-width: 0.8"/>
      </g>
     </g>
     <g id="text_24">
      <!-- −1.00 -->
      <g transform="translate(7.2 547.642344) scale(0.1 -0.1)">
       <use xlink:href="#DejaVuSans-2212"/>
       <use xlink:href="#DejaVuSans-31" x="83.789062"/>
       <use xlink:href="#DejaVuSans-2e" x="147.412109"/>
       <use xlink:href="#DejaVuSans-30" x="179.199219"/>
       <use xlink:href="#DejaVuSans-30" x="242.822266"/>
      </g>
     </g>
    </g>
    <g id="ytick_11">
     <g id="line2d_26">
      <g>
       <use xlink:href="#m72da06b8b9" x="44.845313" y="513.9775" style="stroke: #000000; stroke-width: 0.8"/>
      </g>
     </g>
     <g id="text_25">
      <!-- −0.75 -->
      <g transform="translate(7.2 517.776719) scale(0.1 -0.1)">
       <use xlink:href="#DejaVuSans-2212"/>
       <use xlink:href="#DejaVuSans-30" x="83.789062"/>
       <use xlink:href="#DejaVuSans-2e" x="147.412109"/>
       <use xlink:href="#DejaVuSans-37" x="179.199219"/>
       <use xlink:href="#DejaVuSans-35" x="242.822266"/>
      </g>
     </g>
    </g>
    <g id="ytick_12">
     <g id="line2d_27">
      <g>
       <use xlink:href="#m72da06b8b9" x="44.845313" y="484.111875" style="stroke: #000000; stroke-width: 0.8"/>
      </g>
     </g>
     <g id="text_26">
      <!-- −0.50 -->
      <g transform="translate(7.2 487.911094) scale(0.1 -0.1)">
       <use xlink:href="#DejaVuSans-2212"/>
       <use xlink:href="#DejaVuSans-30" x="83.789062"/>
       <use xlink:href="#DejaVuSans-2e" x="147.412109"/>
       <use xlink:href="#DejaVuSans-35" x="179.199219"/>
       <use xlink:href="#DejaVuSans-30" x="242.822266"/>
      </g>
     </g>
    </g>
    <g id="ytick_13">
     <g id="line2d_28">
      <g>
       <use xlink:href="#m72da06b8b9" x="44.845313" y="454.24625" style="stroke: #000000; stroke-width: 0.8"/>
      </g>
     </g>
     <g id="text_27">
      <!-- −0.25 -->
      <g transform="translate(7.2 458.045469) scale(0.1 -0.1)">
       <use xlink:href="#DejaVuSans-2212"/>
       <use xlink:href="#DejaVuSans-30" x="83.789062"/>
       <use xlink:href="#DejaVuSans-2e" x="147.412109"/>
       <use xlink:href="#DejaVuSans-32" x="179.199219"/>
       <use xlink:href="#DejaVuSans-35" x="242.822266"/>
      </g>
     </g>
    </g>
    <g id="ytick_14">
     <g id="line2d_29">
      <g>
       <use xlink:href="#m72da06b8b9" x="44.845313" y="424.380625" style="stroke: #000000; stroke-width: 0.8"/>
      </g>
     </g>
     <g id="text_28">
      <!-- 0.00 -->
      <g transform="translate(15.579688 428.179844) scale(0.1 -0.1)">
       <use xlink:href="#DejaVuSans-30"/>
       <use xlink:href="#DejaVuSans-2e" x="63.623047"/>
       <use xlink:href="#DejaVuSans-30" x="95.410156"/>
       <use xlink:href="#DejaVuSans-30" x="159.033203"/>
      </g>
     </g>
    </g>
    <g id="ytick_15">
     <g id="line2d_30">
      <g>
       <use xlink:href="#m72da06b8b9" x="44.845313" y="394.515" style="stroke: #000000; stroke-width: 0.8"/>
      </g>
     </g>
     <g id="text_29">
      <!-- 0.25 -->
      <g transform="translate(15.579688 398.314219) scale(0.1 -0.1)">
       <use xlink:href="#DejaVuSans-30"/>
       <use xlink:href="#DejaVuSans-2e" x="63.623047"/>
       <use xlink:href="#DejaVuSans-32" x="95.410156"/>
       <use xlink:href="#DejaVuSans-35" x="159.033203"/>
      </g>
     </g>
    </g>
    <g id="ytick_16">
     <g id="line2d_31">
      <g>
       <use xlink:href="#m72da06b8b9" x="44.845313" y="364.649375" style="stroke: #000000; stroke-width: 0.8"/>
      </g>
     </g>
     <g id="text_30">
      <!-- 0.50 -->
      <g transform="translate(15.579688 368.448594) scale(0.1 -0.1)">
       <use xlink:href="#DejaVuSans-30"/>
       <use xlink:href="#DejaVuSans-2e" x="63.623047"/>
       <use xlink:href="#DejaVuSans-35" x="95.410156"/>
       <use xlink:href="#DejaVuSans-30" x="159.033203"/>
      </g>
     </g>
    </g>
    <g id="ytick_17">
     <g id="line2d_32">
      <g>
       <use xlink:href="#m72da06b8b9" x="44.845313" y="334.78375" style="stroke: #000000; stroke-width: 0.8"/>
      </g>
     </g>
     <g id="text_31">
      <!-- 0.75 -->
      <g transform="translate(15.579688 338.582969) scale(0.1 -0.1)">
       <use xlink:href="#DejaVuSans-30"/>
       <use xlink:href="#DejaVuSans-2e" x="63.623047"/>
       <use xlink:href="#DejaVuSans-37" x="95.410156"/>
       <use xlink:href="#DejaVuSans-35" x="159.033203"/>
      </g>
     </g>
    </g>
    <g id="ytick_18">
     <g id="line2d_33">
      <g>
       <use xlink:href="#m72da06b8b9" x="44.845313" y="304.918125" style="stroke: #000000; stroke-width: 0.8"/>
      </g>
     </g>
     <g id="text_32">
      <!-- 1.00 -->
      <g transform="translate(15.579688 308.717344) scale(0.1 -0.1)">
       <use xlink:href="#DejaVuSans-31"/>
       <use xlink:href="#DejaVuSans-2e" x="63.623047"/>
       <use xlink:href="#DejaVuSans-30" x="95.410156"/>
       <use xlink:href="#DejaVuSans-30" x="159.033203"/>
      </g>
     </g>
    </g>
   </g>
   <g id="LineCollection_2">
    <path d="M 74.879119 424.380625 
L 74.879119 304.918125 
" clip-path="url(#pe8472d5ba2)" style="fill: none; stroke: #1f77b4; stroke-width: 1.5"/>
    <path d="M 122.93321 424.380625 
L 122.93321 419.59903 
" clip-path="url(#pe8472d5ba2)" style="fill: none; stroke: #1f77b4; stroke-width: 1.5"/>
    <path d="M 170.987301 424.380625 
L 170.987301 420.349333 
" clip-path="url(#pe8472d5ba2)" style="fill: none; stroke: #1f77b4; stroke-width: 1.5"/>
    <path d="M 219.041392 424.380625 
L 219.041392 416.030712 
" clip-path="url(#pe8472d5ba2)" style="fill: none; stroke: #1f77b4; stroke-width: 1.5"/>
    <path d="M 267.095483 424.380625 
L 267.095483 411.18111 
" clip-path="url(#pe8472d5ba2)" style="fill: none; stroke: #1f77b4; stroke-width: 1.5"/>
    <path d="M 315.149574 424.380625 
L 315.149574 423.903504 
" clip-path="url(#pe8472d5ba2)" style="fill: none; stroke: #1f77b4; stroke-width: 1.5"/>
    <path d="M 363.203665 424.380625 
L 363.203665 417.05609 
" clip-path="url(#pe8472d5ba2)" style="fill: none; stroke: #1f77b4; stroke-width: 1.5"/>
    <path d="M 411.257756 424.380625 
L 411.257756 417.590518 
" clip-path="url(#pe8472d5ba2)" style="fill: none; stroke: #1f77b4; stroke-width: 1.5"/>
    <path d="M 459.311847 424.380625 
L 459.311847 420.935273 
" clip-path="url(#pe8472d5ba2)" style="fill: none; stroke: #1f77b4; stroke-width: 1.5"/>
    <path d="M 507.365938 424.380625 
L 507.365938 423.81021 
" clip-path="url(#pe8472d5ba2)" style="fill: none; stroke: #1f77b4; stroke-width: 1.5"/>
    <path d="M 555.420028 424.380625 
L 555.420028 422.171727 
" clip-path="url(#pe8472d5ba2)" style="fill: none; stroke: #1f77b4; stroke-width: 1.5"/>
    <path d="M 603.474119 424.380625 
L 603.474119 425.215915 
" clip-path="url(#pe8472d5ba2)" style="fill: none; stroke: #1f77b4; stroke-width: 1.5"/>
    <path d="M 651.52821 424.380625 
L 651.52821 425.328165 
" clip-path="url(#pe8472d5ba2)" style="fill: none; stroke: #1f77b4; stroke-width: 1.5"/>
   </g>
   <g id="line2d_34">
    <path d="M 44.845313 424.380625 
L 705.589063 424.380625 
" clip-path="url(#pe8472d5ba2)" style="fill: none; stroke: #1f77b4; stroke-width: 1.5; stroke-linecap: square"/>
   </g>
   <g id="line2d_35">
    <g clip-path="url(#pe8472d5ba2)">
     <use xlink:href="#m6e4e7f1e37" x="74.879119" y="304.918125" style="fill: #1f77b4; stroke: #1f77b4"/>
     <use xlink:href="#m6e4e7f1e37" x="122.93321" y="419.59903" style="fill: #1f77b4; stroke: #1f77b4"/>
     <use xlink:href="#m6e4e7f1e37" x="170.987301" y="420.349333" style="fill: #1f77b4; stroke: #1f77b4"/>
     <use xlink:href="#m6e4e7f1e37" x="219.041392" y="416.030712" style="fill: #1f77b4; stroke: #1f77b4"/>
     <use xlink:href="#m6e4e7f1e37" x="267.095483" y="411.18111" style="fill: #1f77b4; stroke: #1f77b4"/>
     <use xlink:href="#m6e4e7f1e37" x="315.149574" y="423.903504" style="fill: #1f77b4; stroke: #1f77b4"/>
     <use xlink:href="#m6e4e7f1e37" x="363.203665" y="417.05609" style="fill: #1f77b4; stroke: #1f77b4"/>
     <use xlink:href="#m6e4e7f1e37" x="411.257756" y="417.590518" style="fill: #1f77b4; stroke: #1f77b4"/>
     <use xlink:href="#m6e4e7f1e37" x="459.311847" y="420.935273" style="fill: #1f77b4; stroke: #1f77b4"/>
     <use xlink:href="#m6e4e7f1e37" x="507.365938" y="423.81021" style="fill: #1f77b4; stroke: #1f77b4"/>
     <use xlink:href="#m6e4e7f1e37" x="555.420028" y="422.171727" style="fill: #1f77b4; stroke: #1f77b4"/>
     <use xlink:href="#m6e4e7f1e37" x="603.474119" y="425.215915" style="fill: #1f77b4; stroke: #1f77b4"/>
     <use xlink:href="#m6e4e7f1e37" x="651.52821" y="425.328165" style="fill: #1f77b4; stroke: #1f77b4"/>
    </g>
   </g>
   <g id="patch_8">
    <path d="M 44.845313 543.843125 
L 44.845313 304.918125 
" style="fill: none; stroke: #000000; stroke-width: 0.8; stroke-linejoin: miter; stroke-linecap: square"/>
   </g>
   <g id="patch_9">
    <path d="M 705.589063 543.843125 
L 705.589063 304.918125 
" style="fill: none; stroke: #000000; stroke-width: 0.8; stroke-linejoin: miter; stroke-linecap: square"/>
   </g>
   <g id="patch_10">
    <path d="M 44.845313 543.843125 
L 705.589063 543.843125 
" style="fill: none; stroke: #000000; stroke-width: 0.8; stroke-linejoin: miter; stroke-linecap: square"/>
   </g>
   <g id="patch_11">
    <path d="M 44.845313 304.918125 
L 705.589063 304.918125 
" style="fill: none; stroke: #000000; stroke-width: 0.8; stroke-linejoin: miter; stroke-linecap: square"/>
   </g>
   <g id="text_33">
    <!-- Función de Autocorrelación Parcial (PACF) -->
    <g transform="translate(250.630938 298.918125) scale(0.12 -0.12)">
     <defs>
      <path id="DejaVuSans-50" d="M 1259 4147 
L 1259 2394 
L 2053 2394 
Q 2494 2394 2734 2622 
Q 2975 2850 2975 3272 
Q 2975 3691 2734 3919 
Q 2494 4147 2053 4147 
L 1259 4147 
z
M 628 4666 
L 2053 4666 
Q 2838 4666 3239 4311 
Q 3641 3956 3641 3272 
Q 3641 2581 3239 2228 
Q 2838 1875 2053 1875 
L 1259 1875 
L 1259 0 
L 628 0 
L 628 4666 
z
" transform="scale(0.015625)"/>
     </defs>
     <use xlink:href="#DejaVuSans-46"/>
     <use xlink:href="#DejaVuSans-75" x="52.019531"/>
     <use xlink:href="#DejaVuSans-6e" x="115.398438"/>
     <use xlink:href="#DejaVuSans-63" x="178.777344"/>
     <use xlink:href="#DejaVuSans-69" x="233.757812"/>
     <use xlink:href="#DejaVuSans-f3" x="261.541016"/>
     <use xlink:href="#DejaVuSans-6e" x="322.722656"/>
     <use xlink:href="#DejaVuSans-20" x="386.101562"/>
     <use xlink:href="#DejaVuSans-64" x="417.888672"/>
     <use xlink:href="#DejaVuSans-65" x="481.365234"/>
     <use xlink:href="#DejaVuSans-20" x="542.888672"/>
     <use xlink:href="#DejaVuSans-41" x="574.675781"/>
     <use xlink:href="#DejaVuSans-75" x="643.083984"/>
     <use xlink:href="#DejaVuSans-74" x="706.462891"/>
     <use xlink:href="#DejaVuSans-6f" x="745.671875"/>
     <use xlink:href="#DejaVuSans-63" x="806.853516"/>
     <use xlink:href="#DejaVuSans-6f" x="861.833984"/>
     <use xlink:href="#DejaVuSans-72" x="923.015625"/>
     <use xlink:href="#DejaVuSans-72" x="962.378906"/>
     <use xlink:href="#DejaVuSans-65" x="1001.242188"/>
     <use xlink:href="#DejaVuSans-6c" x="1062.765625"/>
     <use xlink:href="#DejaVuSans-61" x="1090.548828"/>
     <use xlink:href="#DejaVuSans-63" x="1151.828125"/>
     <use xlink:href="#DejaVuSans-69" x="1206.808594"/>
     <use xlink:href="#DejaVuSans-f3" x="1234.591797"/>
     <use xlink:href="#DejaVuSans-6e" x="1295.773438"/>
     <use xlink:href="#DejaVuSans-20" x="1359.152344"/>
     <use xlink:href="#DejaVuSans-50" x="1390.939453"/>
     <use xlink:href="#DejaVuSans-61" x="1446.742188"/>
     <use xlink:href="#DejaVuSans-72" x="1508.021484"/>
     <use xlink:href="#DejaVuSans-63" x="1546.884766"/>
     <use xlink:href="#DejaVuSans-69" x="1601.865234"/>
     <use xlink:href="#DejaVuSans-61" x="1629.648438"/>
     <use xlink:href="#DejaVuSans-6c" x="1690.927734"/>
     <use xlink:href="#DejaVuSans-20" x="1718.710938"/>
     <use xlink:href="#DejaVuSans-28" x="1750.498047"/>
     <use xlink:href="#DejaVuSans-50" x="1789.511719"/>
     <use xlink:href="#DejaVuSans-41" x="1843.439453"/>
     <use xlink:href="#DejaVuSans-43" x="1910.097656"/>
     <use xlink:href="#DejaVuSans-46" x="1979.921875"/>
     <use xlink:href="#DejaVuSans-29" x="2037.441406"/>
    </g>
   </g>
  </g>
 </g>
 <defs>
  <clipPath id="p8fb2dcb00e">
   <rect x="44.845313" y="22.318125" width="660.74375" height="238.925"/>
  </clipPath>
  <clipPath id="pe8472d5ba2">
   <rect x="44.845313" y="304.918125" width="660.74375" height="238.925"/>
  </clipPath>
 </defs>
</svg>
