<?xml version="1.0" encoding="utf-8" standalone="no"?>
<!DOCTYPE svg PUBLIC "-//W3C//DTD SVG 1.1//EN"
  "http://www.w3.org/Graphics/SVG/1.1/DTD/svg11.dtd">
<svg xmlns:xlink="http://www.w3.org/1999/xlink" width="436.282812pt" height="323.39625pt" viewBox="0 0 436.282812 323.39625" xmlns="http://www.w3.org/2000/svg" version="1.1">
 <metadata>
  <rdf:RDF xmlns:dc="http://purl.org/dc/elements/1.1/" xmlns:cc="http://creativecommons.org/ns#" xmlns:rdf="http://www.w3.org/1999/02/22-rdf-syntax-ns#">
   <cc:Work>
    <dc:type rdf:resource="http://purl.org/dc/dcmitype/StillImage"/>
    <dc:date>2024-10-19T16:13:37.949148</dc:date>
    <dc:format>image/svg+xml</dc:format>
    <dc:creator>
     <cc:Agent>
      <dc:title>Matplotlib v3.8.4, https://matplotlib.org/</dc:title>
     </cc:Agent>
    </dc:creator>
   </cc:Work>
  </rdf:RDF>
 </metadata>
 <defs>
  <style type="text/css">*{stroke-linejoin: round; stroke-linecap: butt}</style>
 </defs>
 <g id="figure_1">
  <g id="patch_1">
   <path d="M 0 323.39625 
L 436.282812 323.39625 
L 436.282812 0 
L 0 0 
z
" style="fill: #ffffff"/>
  </g>
  <g id="axes_1">
   <g id="patch_2">
    <path d="M 38.482813 148.318125 
L 429.082813 148.318125 
L 429.082813 22.318125 
L 38.482813 22.318125 
z
" style="fill: #ffffff"/>
   </g>
   <g id="matplotlib.axis_1">
    <g id="xtick_1">
     <g id="line2d_1">
      <defs>
       <path id="mc49c8cea00" d="M 0 0 
L 0 3.5 
" style="stroke: #000000; stroke-width: 0.8"/>
      </defs>
      <g>
       <use xlink:href="#mc49c8cea00" x="88.155289" y="148.318125" style="stroke: #000000; stroke-width: 0.8"/>
      </g>
     </g>
    </g>
    <g id="xtick_2">
     <g id="line2d_2">
      <g>
       <use xlink:href="#mc49c8cea00" x="138.657945" y="148.318125" style="stroke: #000000; stroke-width: 0.8"/>
      </g>
     </g>
    </g>
    <g id="xtick_3">
     <g id="line2d_3">
      <g>
       <use xlink:href="#mc49c8cea00" x="189.298966" y="148.318125" style="stroke: #000000; stroke-width: 0.8"/>
      </g>
     </g>
    </g>
    <g id="xtick_4">
     <g id="line2d_4">
      <g>
       <use xlink:href="#mc49c8cea00" x="239.801622" y="148.318125" style="stroke: #000000; stroke-width: 0.8"/>
      </g>
     </g>
    </g>
    <g id="xtick_5">
     <g id="line2d_5">
      <g>
       <use xlink:href="#mc49c8cea00" x="290.304279" y="148.318125" style="stroke: #000000; stroke-width: 0.8"/>
      </g>
     </g>
    </g>
    <g id="xtick_6">
     <g id="line2d_6">
      <g>
       <use xlink:href="#mc49c8cea00" x="340.806936" y="148.318125" style="stroke: #000000; stroke-width: 0.8"/>
      </g>
     </g>
    </g>
    <g id="xtick_7">
     <g id="line2d_7">
      <g>
       <use xlink:href="#mc49c8cea00" x="391.447956" y="148.318125" style="stroke: #000000; stroke-width: 0.8"/>
      </g>
     </g>
    </g>
   </g>
   <g id="matplotlib.axis_2">
    <g id="ytick_1">
     <g id="line2d_8">
      <defs>
       <path id="m800b49abfd" d="M 0 0 
L -3.5 0 
" style="stroke: #000000; stroke-width: 0.8"/>
      </defs>
      <g>
       <use xlink:href="#m800b49abfd" x="38.482813" y="137.622846" style="stroke: #000000; stroke-width: 0.8"/>
      </g>
     </g>
     <g id="text_1">
      <!-- −5.0 -->
      <g transform="translate(7.2 141.422064) scale(0.1 -0.1)">
       <defs>
        <path id="DejaVuSans-2212" d="M 678 2272 
L 4684 2272 
L 4684 1741 
L 678 1741 
L 678 2272 
z
" transform="scale(0.015625)"/>
        <path id="DejaVuSans-35" d="M 691 4666 
L 3169 4666 
L 3169 4134 
L 1269 4134 
L 1269 2991 
Q 1406 3038 1543 3061 
Q 1681 3084 1819 3084 
Q 2600 3084 3056 2656 
Q 3513 2228 3513 1497 
Q 3513 744 3044 326 
Q 2575 -91 1722 -91 
Q 1428 -91 1123 -41 
Q 819 9 494 109 
L 494 744 
Q 775 591 1075 516 
Q 1375 441 1709 441 
Q 2250 441 2565 725 
Q 2881 1009 2881 1497 
Q 2881 1984 2565 2268 
Q 2250 2553 1709 2553 
Q 1456 2553 1204 2497 
Q 953 2441 691 2322 
L 691 4666 
z
" transform="scale(0.015625)"/>
        <path id="DejaVuSans-2e" d="M 684 794 
L 1344 794 
L 1344 0 
L 684 0 
L 684 794 
z
" transform="scale(0.015625)"/>
        <path id="DejaVuSans-30" d="M 2034 4250 
Q 1547 4250 1301 3770 
Q 1056 3291 1056 2328 
Q 1056 1369 1301 889 
Q 1547 409 2034 409 
Q 2525 409 2770 889 
Q 3016 1369 3016 2328 
Q 3016 3291 2770 3770 
Q 2525 4250 2034 4250 
z
M 2034 4750 
Q 2819 4750 3233 4129 
Q 3647 3509 3647 2328 
Q 3647 1150 3233 529 
Q 2819 -91 2034 -91 
Q 1250 -91 836 529 
Q 422 1150 422 2328 
Q 422 3509 836 4129 
Q 1250 4750 2034 4750 
z
" transform="scale(0.015625)"/>
       </defs>
       <use xlink:href="#DejaVuSans-2212"/>
       <use xlink:href="#DejaVuSans-35" x="83.789062"/>
       <use xlink:href="#DejaVuSans-2e" x="147.412109"/>
       <use xlink:href="#DejaVuSans-30" x="179.199219"/>
      </g>
     </g>
    </g>
    <g id="ytick_2">
     <g id="line2d_9">
      <g>
       <use xlink:href="#m800b49abfd" x="38.482813" y="115.893086" style="stroke: #000000; stroke-width: 0.8"/>
      </g>
     </g>
     <g id="text_2">
      <!-- −2.5 -->
      <g transform="translate(7.2 119.692304) scale(0.1 -0.1)">
       <defs>
        <path id="DejaVuSans-32" d="M 1228 531 
L 3431 531 
L 3431 0 
L 469 0 
L 469 531 
Q 828 903 1448 1529 
Q 2069 2156 2228 2338 
Q 2531 2678 2651 2914 
Q 2772 3150 2772 3378 
Q 2772 3750 2511 3984 
Q 2250 4219 1831 4219 
Q 1534 4219 1204 4116 
Q 875 4013 500 3803 
L 500 4441 
Q 881 4594 1212 4672 
Q 1544 4750 1819 4750 
Q 2544 4750 2975 4387 
Q 3406 4025 3406 3419 
Q 3406 3131 3298 2873 
Q 3191 2616 2906 2266 
Q 2828 2175 2409 1742 
Q 1991 1309 1228 531 
z
" transform="scale(0.015625)"/>
       </defs>
       <use xlink:href="#DejaVuSans-2212"/>
       <use xlink:href="#DejaVuSans-32" x="83.789062"/>
       <use xlink:href="#DejaVuSans-2e" x="147.412109"/>
       <use xlink:href="#DejaVuSans-35" x="179.199219"/>
      </g>
     </g>
    </g>
    <g id="ytick_3">
     <g id="line2d_10">
      <g>
       <use xlink:href="#m800b49abfd" x="38.482813" y="94.163326" style="stroke: #000000; stroke-width: 0.8"/>
      </g>
     </g>
     <g id="text_3">
      <!-- 0.0 -->
      <g transform="translate(15.579688 97.962545) scale(0.1 -0.1)">
       <use xlink:href="#DejaVuSans-30"/>
       <use xlink:href="#DejaVuSans-2e" x="63.623047"/>
       <use xlink:href="#DejaVuSans-30" x="95.410156"/>
      </g>
     </g>
    </g>
    <g id="ytick_4">
     <g id="line2d_11">
      <g>
       <use xlink:href="#m800b49abfd" x="38.482813" y="72.433566" style="stroke: #000000; stroke-width: 0.8"/>
      </g>
     </g>
     <g id="text_4">
      <!-- 2.5 -->
      <g transform="translate(15.579688 76.232785) scale(0.1 -0.1)">
       <use xlink:href="#DejaVuSans-32"/>
       <use xlink:href="#DejaVuSans-2e" x="63.623047"/>
       <use xlink:href="#DejaVuSans-35" x="95.410156"/>
      </g>
     </g>
    </g>
    <g id="ytick_5">
     <g id="line2d_12">
      <g>
       <use xlink:href="#m800b49abfd" x="38.482813" y="50.703806" style="stroke: #000000; stroke-width: 0.8"/>
      </g>
     </g>
     <g id="text_5">
      <!-- 5.0 -->
      <g transform="translate(15.579688 54.503025) scale(0.1 -0.1)">
       <use xlink:href="#DejaVuSans-35"/>
       <use xlink:href="#DejaVuSans-2e" x="63.623047"/>
       <use xlink:href="#DejaVuSans-30" x="95.410156"/>
      </g>
     </g>
    </g>
    <g id="ytick_6">
     <g id="line2d_13">
      <g>
       <use xlink:href="#m800b49abfd" x="38.482813" y="28.974046" style="stroke: #000000; stroke-width: 0.8"/>
      </g>
     </g>
     <g id="text_6">
      <!-- 7.5 -->
      <g transform="translate(15.579688 32.773265) scale(0.1 -0.1)">
       <defs>
        <path id="DejaVuSans-37" d="M 525 4666 
L 3525 4666 
L 3525 4397 
L 1831 0 
L 1172 0 
L 2766 4134 
L 525 4134 
L 525 4666 
z
" transform="scale(0.015625)"/>
       </defs>
       <use xlink:href="#DejaVuSans-37"/>
       <use xlink:href="#DejaVuSans-2e" x="63.623047"/>
       <use xlink:href="#DejaVuSans-35" x="95.410156"/>
      </g>
     </g>
    </g>
   </g>
   <g id="line2d_14">
    <path d="M 38.482812 124.032151 
L 38.621176 94.220965 
L 38.759539 93.456377 
L 38.897903 99.354509 
L 39.312993 102.907381 
L 39.451357 95.03688 
L 39.58972 94.220047 
L 39.728083 92.268851 
L 39.866447 94.267013 
L 40.281537 87.082184 
L 40.558264 94.187882 
L 40.696628 94.302012 
L 40.834991 94.038819 
L 41.250081 72.241292 
L 41.388445 94.185718 
L 41.526808 94.289907 
L 41.665172 80.833666 
L 41.803535 98.798751 
L 42.356989 94.308001 
L 42.495352 84.480344 
L 42.633716 95.640179 
L 42.772079 94.340867 
L 43.18717 94.849931 
L 43.325533 87.082227 
L 43.463896 96.155023 
L 43.60226 93.370117 
L 43.740623 93.200094 
L 44.155714 86.906927 
L 44.294077 99.685777 
L 44.709167 84.27102 
L 45.124258 89.236454 
L 45.262621 95.005716 
L 45.400985 93.665694 
L 45.677712 113.85283 
L 46.092802 89.987323 
L 46.369529 97.976734 
L 46.507892 97.825666 
L 46.646256 92.947443 
L 47.061346 93.768064 
L 47.199709 92.62736 
L 47.338073 95.014394 
L 47.6148 92.665398 
L 48.02989 95.023095 
L 48.168254 94.466072 
L 48.306617 94.412495 
L 48.44498 85.201875 
L 48.583344 93.25067 
L 48.998434 93.531582 
L 49.136798 94.382109 
L 49.275161 89.492159 
L 49.551888 100.735456 
L 49.966978 90.098938 
L 50.105342 94.392284 
L 50.243705 112.720863 
L 50.520432 91.618754 
L 50.935522 96.78006 
L 51.073886 96.369009 
L 51.212249 94.340419 
L 51.350613 100.575102 
L 51.488976 97.394644 
L 51.904066 91.491768 
L 52.04243 94.371471 
L 52.319157 94.386855 
L 52.872611 102.888064 
L 53.010974 94.370905 
L 53.149337 94.376708 
L 53.287701 83.167938 
L 53.426064 100.183219 
L 53.841155 96.065514 
L 53.979518 89.971204 
L 54.117882 94.429138 
L 54.256245 108.043873 
L 54.394608 94.304355 
L 54.948062 93.069604 
L 55.086426 95.403132 
L 55.224789 94.322929 
L 55.363153 94.327962 
L 55.778243 94.668087 
L 55.916606 94.334336 
L 56.05497 80.617521 
L 56.193333 94.148848 
L 56.331697 93.50957 
L 56.746787 93.634949 
L 56.88515 99.961176 
L 57.161877 84.74792 
L 57.300241 94.313899 
L 57.715331 94.638679 
L 57.853695 94.314172 
L 57.992058 81.788557 
L 58.130421 82.599945 
L 58.268785 94.297303 
L 58.683875 92.7572 
L 58.822239 95.239867 
L 58.960602 104.60706 
L 59.098966 60.747773 
L 59.237329 94.923086 
L 59.652419 96.215036 
L 59.790783 82.665467 
L 59.929146 96.801016 
L 60.06751 92.262393 
L 60.205873 70.663776 
L 60.620963 76.133516 
L 60.759327 95.799764 
L 60.89769 89.027883 
L 61.174417 94.556122 
L 61.589508 92.747801 
L 61.727871 97.596652 
L 61.866234 94.458182 
L 62.004598 94.486685 
L 62.142961 94.701551 
L 62.558052 87.282472 
L 62.696415 100.023962 
L 62.834778 71.958851 
L 62.973142 85.57817 
L 63.111505 72.54077 
L 63.526596 96.801541 
L 63.664959 90.95366 
L 63.803323 92.185046 
L 63.941686 95.280807 
L 64.49514 94.00859 
L 64.633503 94.315535 
L 64.771867 94.328773 
L 64.91023 52.585421 
L 65.048594 99.889767 
L 65.463684 94.816275 
L 65.740411 83.226371 
L 65.878774 94.26715 
L 66.017138 90.593799 
L 66.432228 89.916357 
L 66.570591 93.922986 
L 66.847318 94.792402 
L 66.985682 107.758078 
L 67.400772 93.259429 
L 67.539136 95.581875 
L 67.677499 95.844385 
L 67.815862 85.150833 
L 67.954226 88.443505 
L 68.369316 94.710808 
L 68.50768 87.893225 
L 68.646043 89.083833 
L 68.92277 95.508666 
L 69.33786 93.294144 
L 69.752951 101.455685 
L 69.891314 89.58832 
L 70.306404 92.748028 
L 70.444768 98.946468 
L 70.583131 91.35698 
L 70.859858 102.837779 
L 71.413312 94.031602 
L 71.551675 97.10036 
L 71.690039 81.100319 
L 71.828402 93.59561 
L 72.243493 94.826355 
L 72.381856 89.61475 
L 72.52022 94.254817 
L 72.658583 94.395492 
L 72.796946 112.179114 
L 73.212037 94.694041 
L 73.3504 94.35161 
L 73.488764 96.197758 
L 73.765491 90.625907 
L 74.180581 97.641681 
L 74.318944 95.745754 
L 74.595671 94.62224 
L 74.734035 102.809592 
L 75.149125 93.895711 
L 75.287488 94.386342 
L 75.425852 94.45667 
L 75.564215 95.08162 
L 75.702579 100.21122 
L 76.256032 94.385412 
L 76.394396 70.639028 
L 76.532759 110.471109 
L 76.671123 98.984261 
L 77.086213 94.536765 
L 77.224577 94.298922 
L 77.36294 92.487262 
L 77.501303 94.321516 
L 77.639667 94.332111 
L 78.054757 94.698114 
L 78.193121 100.724096 
L 78.331484 94.450111 
L 78.608211 94.360607 
L 79.023301 97.03255 
L 79.161665 94.64895 
L 79.300028 94.372 
L 79.576755 99.418587 
L 80.268572 91.381054 
L 80.406936 104.265917 
L 80.545299 94.335514 
L 81.098753 94.877475 
L 81.37548 108.070902 
L 81.513843 100.246332 
L 81.928934 102.858537 
L 82.067297 94.290815 
L 82.205661 120.601591 
L 82.344024 94.243505 
L 82.482387 103.460201 
L 82.897478 94.354588 
L 83.035841 94.256765 
L 83.174205 121.718288 
L 83.312568 96.396118 
L 83.450932 99.387331 
L 84.004385 94.222064 
L 84.142749 127.100059 
L 84.281112 94.552862 
L 84.419476 93.834957 
L 84.834566 87.402136 
L 84.972929 95.068132 
L 85.111293 78.753037 
L 85.249656 94.200404 
L 85.38802 94.210502 
L 85.80311 93.716052 
L 85.941473 94.680881 
L 86.079837 94.218426 
L 86.2182 93.018589 
L 86.356564 94.85253 
L 86.771654 74.90815 
L 87.048381 94.224582 
L 87.325108 92.101016 
L 87.740198 93.397782 
L 87.878562 100.861025 
L 88.016925 94.243071 
L 88.293652 94.361749 
L 88.847106 88.545082 
L 88.985469 83.415416 
L 89.123833 88.004238 
L 89.262196 46.049885 
L 89.677286 83.385142 
L 89.81565 82.402932 
L 90.092377 94.316242 
L 90.23074 91.22938 
L 90.645831 89.894875 
L 90.784194 87.240073 
L 91.199284 95.975384 
L 91.891102 94.262203 
L 92.029465 122.968238 
L 92.167828 96.135699 
L 92.582919 94.358787 
L 92.721282 92.979054 
L 92.859646 94.242729 
L 93.136373 94.269356 
L 93.551463 99.119803 
L 93.689826 94.283129 
L 93.82819 97.503065 
L 93.966553 95.037887 
L 94.104917 96.785582 
L 94.65837 94.320198 
L 94.796734 96.071884 
L 94.935097 94.332445 
L 95.073461 85.376183 
L 95.488551 100.326742 
L 95.626915 94.320527 
L 95.765278 81.132435 
L 95.903641 94.306834 
L 96.457095 92.033255 
L 96.595459 100.194149 
L 96.872186 92.872878 
L 97.010549 93.16886 
L 97.425639 107.99759 
L 97.702366 92.03737 
L 97.84073 95.402875 
L 97.979093 90.845982 
L 98.394183 71.958274 
L 98.532547 93.963582 
L 98.67091 95.424413 
L 98.809274 94.304365 
L 98.947637 94.917207 
L 99.362727 90.892066 
L 99.501091 91.44577 
L 99.639454 93.923233 
L 99.777818 92.930788 
L 99.916181 75.91142 
L 100.331272 94.551095 
L 100.469635 88.647677 
L 100.746362 94.310299 
L 101.299816 92.705948 
L 101.438179 96.477313 
L 101.576543 85.114512 
L 101.714906 90.019454 
L 101.853269 104.261463 
L 102.26836 94.601815 
L 102.406723 86.154872 
L 102.545087 93.099757 
L 102.68345 94.320699 
L 102.821814 83.228799 
L 103.375267 93.639802 
L 103.513631 107.000845 
L 103.790358 94.026894 
L 104.205448 93.285127 
L 104.343811 92.561277 
L 104.620538 69.760308 
L 104.758902 96.770588 
L 105.312356 89.879752 
L 105.450719 100.219396 
L 105.727446 92.80729 
L 106.142536 94.832064 
L 106.2809 94.756254 
L 106.557627 79.872592 
L 107.11108 94.016391 
L 107.249444 93.621238 
L 107.387807 100.899054 
L 107.664534 87.188711 
L 108.217988 98.852013 
L 108.356351 93.341717 
L 108.494715 97.643013 
L 108.633078 89.506882 
L 109.048169 88.383235 
L 109.186532 90.872765 
L 109.324895 87.069298 
L 109.601622 99.747297 
L 110.016713 99.421047 
L 110.155076 89.415321 
L 110.431803 100.577648 
L 110.570166 92.098591 
L 110.985257 89.52448 
L 111.12362 97.442175 
L 111.400347 87.55953 
L 111.53871 112.965517 
L 111.953801 89.891381 
L 112.092164 102.068971 
L 112.230528 90.672134 
L 112.368891 95.101986 
L 112.507255 94.218779 
L 113.060708 99.380553 
L 113.199072 97.081056 
L 113.337435 90.253642 
L 113.475799 90.824578 
L 113.890889 95.732674 
L 114.029252 89.709076 
L 114.167616 98.775773 
L 114.305979 100.453073 
L 114.444343 97.650393 
L 114.859433 96.679211 
L 114.997797 91.238225 
L 115.13616 97.811439 
L 115.274523 89.040833 
L 115.412887 103.773575 
L 115.827977 92.758646 
L 115.966341 93.585972 
L 116.104704 89.239105 
L 116.243068 91.096663 
L 116.381431 100.821192 
L 117.073248 91.162245 
L 117.211612 96.91764 
L 117.349975 91.871681 
L 117.765065 100.386422 
L 117.903429 98.050702 
L 118.041792 100.908347 
L 118.180156 88.952462 
L 118.318519 94.346347 
L 118.73361 93.727379 
L 118.871973 90.695404 
L 119.010336 100.892032 
L 119.1487 101.383893 
L 119.287063 96.673247 
L 119.702154 96.272782 
L 119.840517 96.514887 
L 119.978881 90.200603 
L 120.117244 92.37081 
L 120.255607 96.97592 
L 120.670698 94.128659 
L 120.809061 94.110191 
L 120.947425 77.074888 
L 121.224152 88.481265 
L 121.639242 98.361116 
L 122.054332 90.746818 
L 122.192696 95.543465 
L 122.746149 92.788619 
L 122.884513 96.546228 
L 123.022876 107.991169 
L 123.16124 109.377389 
L 123.714693 94.697746 
L 123.853057 100.701429 
L 123.99142 100.245145 
L 124.129784 80.425129 
L 124.544874 93.996436 
L 124.821601 93.465928 
L 125.098328 101.253878 
L 125.513418 75.005302 
L 125.651782 97.767448 
L 125.790145 98.077321 
L 125.928509 92.20992 
L 126.066872 92.846275 
L 126.758689 100.828374 
L 126.897053 89.851277 
L 127.035416 97.383606 
L 127.450506 92.61727 
L 127.58887 94.386408 
L 127.727233 102.241144 
L 127.865597 81.329872 
L 128.00396 88.999897 
L 128.557414 98.56773 
L 128.695777 95.387621 
L 128.834141 104.806172 
L 128.972504 93.54362 
L 129.387595 92.151743 
L 129.525958 93.452441 
L 129.664322 74.953346 
L 129.802685 101.327045 
L 129.941048 101.490924 
L 130.356139 88.315765 
L 130.494502 91.185765 
L 130.632866 107.400423 
L 130.771229 93.266098 
L 130.909593 91.231615 
L 131.463046 95.691843 
L 131.60141 90.896838 
L 131.739773 95.859541 
L 131.878137 111.623919 
L 132.293227 119.524162 
L 132.43159 95.275075 
L 132.569954 95.594519 
L 132.708317 93.529368 
L 132.846681 93.874104 
L 133.261771 94.540715 
L 133.400134 95.271644 
L 133.538498 89.73978 
L 133.676861 79.516982 
L 133.815225 107.63201 
L 134.230315 95.677496 
L 134.368679 96.211071 
L 134.507042 87.45774 
L 134.783769 95.34289 
L 135.198859 96.587716 
L 135.337223 111.26693 
L 135.475586 94.82954 
L 135.61395 94.081439 
L 135.752313 96.029304 
L 136.167403 91.651664 
L 136.305767 91.773237 
L 136.44413 92.824777 
L 136.582494 82.878149 
L 136.720857 95.899802 
L 137.135947 92.11956 
L 137.274311 70.624215 
L 137.412674 97.117125 
L 137.551038 95.580643 
L 138.104492 107.957136 
L 138.242855 84.530393 
L 138.381218 105.722224 
L 138.519582 91.044691 
L 139.211399 94.260801 
L 139.349763 94.077825 
L 139.626489 92.039427 
L 140.04158 97.347103 
L 140.179943 96.154949 
L 140.318307 97.730495 
L 140.45667 80.039005 
L 140.595034 93.720518 
L 141.010124 90.483785 
L 141.148487 103.079281 
L 141.286851 86.756413 
L 141.563578 83.222884 
L 142.117031 94.242722 
L 142.255395 86.814803 
L 142.393758 106.797622 
L 142.532122 89.534262 
L 142.947212 106.853624 
L 143.085576 91.125124 
L 143.362302 99.189351 
L 143.500666 94.113758 
L 143.915756 94.179621 
L 144.05412 89.908147 
L 144.192483 96.964477 
L 144.46921 90.771176 
L 144.8843 98.40742 
L 145.022664 114.731559 
L 145.161027 93.454896 
L 145.299391 91.776349 
L 145.852844 106.079331 
L 145.991208 85.005898 
L 146.129571 97.267434 
L 146.267935 89.195876 
L 146.406298 99.073985 
L 146.821388 101.330682 
L 146.959752 94.394322 
L 147.098115 97.443509 
L 147.236479 94.073123 
L 147.374842 93.608158 
L 147.789933 95.886781 
L 147.928296 89.867587 
L 148.205023 94.844968 
L 148.343386 90.921812 
L 148.758477 98.511808 
L 149.035204 74.98489 
L 149.173567 91.779149 
L 149.31193 91.735429 
L 149.727021 95.891291 
L 150.003748 81.941903 
L 150.142111 95.545166 
L 150.695565 90.02633 
L 150.833928 86.677387 
L 150.972292 95.251277 
L 151.110655 92.730303 
L 151.249019 98.820843 
L 151.664109 96.1022 
L 151.802472 96.695232 
L 152.079199 69.156403 
L 152.217563 95.309697 
L 152.632653 93.906288 
L 152.771017 83.999355 
L 152.90938 82.392183 
L 153.047743 100.099172 
L 153.186107 93.26387 
L 153.601197 98.968175 
L 153.739561 89.317308 
L 153.877924 95.769636 
L 154.016288 94.219059 
L 154.154651 97.938898 
L 154.569741 91.297491 
L 154.708105 96.795022 
L 154.846468 81.193332 
L 154.984832 99.503028 
L 155.123195 100.096409 
L 155.676649 96.841013 
L 155.815012 95.286954 
L 155.953376 88.936885 
L 156.091739 95.589082 
L 156.50683 99.439695 
L 156.645193 112.634516 
L 156.92192 91.125525 
L 157.060283 86.441719 
L 157.475374 103.855599 
L 157.613737 100.555349 
L 157.7521 105.894512 
L 157.890464 75.730504 
L 158.028827 94.758593 
L 158.443918 97.435599 
L 158.720645 89.229753 
L 158.997371 98.239703 
L 159.412462 91.934886 
L 159.689189 96.86726 
L 159.827552 96.472709 
L 159.965916 81.058545 
L 160.519369 97.370518 
L 160.657733 98.365324 
L 160.796096 88.741337 
L 160.93446 87.362661 
L 161.34955 94.367123 
L 161.487913 108.03128 
L 161.626277 86.966722 
L 161.903004 94.358754 
L 162.318094 98.56532 
L 162.456458 92.56991 
L 162.594821 99.422148 
L 162.733184 93.098318 
L 162.871548 102.706726 
L 163.286638 101.041082 
L 163.425002 78.827206 
L 163.701729 95.387153 
L 163.840092 101.292075 
L 164.255182 94.757459 
L 164.393546 101.393511 
L 164.531909 87.375707 
L 164.670273 100.307628 
L 164.808636 93.321666 
L 165.223726 95.689142 
L 165.36209 100.198379 
L 165.500453 93.058963 
L 165.77718 93.434932 
L 166.192271 96.341503 
L 166.330634 92.302133 
L 166.468997 94.628509 
L 166.607361 93.481482 
L 166.745724 94.303732 
L 167.160815 83.323699 
L 167.299178 102.825423 
L 167.437542 103.211423 
L 167.575905 84.837465 
L 167.714268 93.971837 
L 168.129359 87.483721 
L 168.267722 100.73246 
L 168.406086 102.169981 
L 168.544449 93.648161 
L 168.682812 93.957074 
L 169.097903 81.204537 
L 169.236266 100.77317 
L 169.37463 100.243592 
L 169.651357 91.889007 
L 170.066447 99.420361 
L 170.343174 96.028775 
L 170.481537 91.831965 
L 170.619901 94.524504 
L 171.034991 79.217226 
L 171.173354 96.182454 
L 171.311718 95.500927 
L 171.450081 98.93744 
L 171.588445 96.275276 
L 172.003535 82.839986 
L 172.141899 99.506958 
L 172.280262 91.652124 
L 172.556989 88.756569 
L 172.972079 106.219716 
L 173.248806 88.771402 
L 173.38717 101.133805 
L 173.525533 95.731481 
L 173.940623 90.639497 
L 174.078987 96.658306 
L 174.21735 94.610206 
L 174.355714 103.377454 
L 174.494077 96.999964 
L 174.909167 94.307927 
L 175.047531 97.446065 
L 175.185894 97.454163 
L 175.324258 102.062444 
L 175.462621 89.956479 
L 175.877712 91.871724 
L 176.016075 100.298764 
L 176.154438 40.689827 
L 176.292802 97.219029 
L 176.431165 97.970473 
L 176.846256 89.357991 
L 177.261346 98.394119 
L 177.399709 109.516592 
L 177.8148 93.901169 
L 177.953163 98.34431 
L 178.091527 87.988797 
L 178.22989 93.807399 
L 178.368254 93.919064 
L 178.783344 90.639911 
L 178.921707 93.47766 
L 179.060071 92.799767 
L 179.198434 95.543586 
L 179.336798 93.633771 
L 179.751888 94.895584 
L 179.890251 114.562312 
L 180.028615 91.588007 
L 180.166978 91.716832 
L 180.305342 98.613509 
L 180.720432 105.898532 
L 180.997159 86.305812 
L 181.135522 96.420573 
L 181.273886 91.529621 
L 181.688976 99.755901 
L 181.82734 89.990586 
L 181.965703 101.387835 
L 182.104066 82.77122 
L 182.24243 92.397207 
L 182.65752 103.660948 
L 182.934247 91.965351 
L 183.072611 90.754861 
L 183.210974 101.456906 
L 183.626064 96.15586 
L 183.764428 103.768371 
L 183.902791 92.828549 
L 184.041155 93.390542 
L 184.179518 51.364947 
L 184.594608 103.850539 
L 184.732972 95.329886 
L 184.871335 95.834537 
L 185.009699 88.914148 
L 185.148062 94.861655 
L 185.563153 93.353354 
L 185.701516 97.670733 
L 185.839879 85.924325 
L 185.978243 100.838547 
L 186.116606 95.606172 
L 186.531697 94.802444 
L 186.67006 92.036346 
L 186.808424 81.183007 
L 187.08515 103.034899 
L 187.500241 95.374732 
L 187.638604 86.160735 
L 187.915331 99.247733 
L 188.053695 60.775485 
L 188.607148 99.466747 
L 188.745512 97.069233 
L 188.883875 84.404297 
L 189.022239 99.434115 
L 189.575692 94.084177 
L 189.714056 101.921247 
L 189.852419 93.684147 
L 189.990783 93.83768 
L 190.544237 103.824153 
L 190.959327 91.973253 
L 191.374417 99.312159 
L 191.512781 95.291158 
L 191.651144 99.410089 
L 191.789508 79.385965 
L 191.927871 95.349946 
L 192.342961 95.330898 
L 192.481325 91.664199 
L 192.619688 93.614941 
L 192.758052 85.267492 
L 192.896415 95.669499 
L 193.449869 97.594268 
L 193.588232 91.372491 
L 193.726596 99.310364 
L 193.864959 91.576857 
L 194.280049 94.442294 
L 194.556776 102.410061 
L 194.69514 100.874768 
L 194.833503 96.876601 
L 195.248594 90.893829 
L 195.386957 93.007883 
L 195.52532 102.807924 
L 195.663684 87.129303 
L 195.802047 97.317123 
L 196.217138 97.618978 
L 196.355501 95.047846 
L 196.493865 78.693091 
L 196.632228 83.282183 
L 196.770591 105.236794 
L 197.324045 99.588933 
L 197.462409 99.984032 
L 197.600772 85.85153 
L 197.739136 95.083428 
L 198.154226 100.744584 
L 198.292589 93.835811 
L 198.569316 97.446527 
L 198.70768 92.06715 
L 199.12277 96.434785 
L 199.399497 89.12058 
L 199.53786 102.737171 
L 199.676224 94.881954 
L 200.091314 88.991119 
L 200.229678 101.771423 
L 200.644768 90.418746 
L 201.059858 94.680919 
L 201.198222 67.606342 
L 201.474949 95.19427 
L 201.613312 83.365699 
L 202.028402 90.944708 
L 202.166766 89.987223 
L 202.443493 97.485069 
L 202.581856 97.424494 
L 202.996946 85.505677 
L 203.13531 92.689183 
L 203.273673 93.918738 
L 203.412037 103.333766 
L 203.965491 95.965554 
L 204.103854 92.051347 
L 204.242217 96.32248 
L 204.380581 95.310211 
L 204.518944 89.265991 
L 204.934035 94.972476 
L 205.072398 101.038303 
L 205.210761 88.413903 
L 205.349125 91.754525 
L 205.487488 92.133283 
L 206.040942 88.956806 
L 206.179306 97.131769 
L 206.317669 92.437044 
L 206.456032 103.793153 
L 206.871123 92.828453 
L 207.009486 98.924685 
L 207.14785 91.936553 
L 207.286213 92.461491 
L 207.424577 105.707565 
L 207.839667 88.305492 
L 207.97803 97.263531 
L 208.116394 94.38378 
L 208.254757 98.14841 
L 208.393121 88.541076 
L 208.946574 98.76709 
L 209.223301 79.423518 
L 209.361665 103.510639 
L 209.776755 102.702603 
L 209.915119 92.169833 
L 210.053482 90.652885 
L 210.191845 102.427001 
L 210.745299 93.746244 
L 210.883663 95.397789 
L 211.022026 88.200708 
L 211.16039 102.710223 
L 211.298753 93.319504 
L 211.713843 96.136923 
L 211.852207 94.823256 
L 211.99057 88.379926 
L 212.267297 94.208253 
L 212.682387 95.055722 
L 212.820751 85.109916 
L 212.959114 95.172473 
L 213.097478 97.149549 
L 213.235841 107.275676 
L 213.650932 81.358087 
L 213.789295 100.082928 
L 213.927658 91.41059 
L 214.066022 95.844898 
L 214.204385 87.541987 
L 214.757839 95.739389 
L 215.034566 92.631204 
L 215.172929 103.737626 
L 215.58802 90.494762 
L 215.726383 99.030608 
L 215.864747 92.804036 
L 216.00311 93.18126 
L 216.141473 95.677079 
L 216.556564 100.422509 
L 216.694927 87.897865 
L 216.833291 86.013542 
L 217.110018 92.622938 
L 217.525108 93.239362 
L 217.663471 88.49006 
L 217.801835 88.493262 
L 217.940198 88.088805 
L 218.078562 93.516577 
L 218.493652 93.876731 
L 218.770379 69.647786 
L 218.908742 93.188839 
L 219.047106 97.616421 
L 219.462196 82.699727 
L 219.60056 99.958424 
L 219.738923 89.261661 
L 220.01565 95.65678 
L 220.43074 97.107666 
L 220.569104 91.012534 
L 220.845831 98.822659 
L 220.984194 96.164 
L 221.537648 92.536787 
L 221.676011 93.599103 
L 221.814375 103.077059 
L 221.952738 94.819763 
L 222.367828 97.998347 
L 222.506192 100.288831 
L 222.782919 88.505247 
L 223.336373 101.137308 
L 223.474736 95.012304 
L 223.613099 83.354158 
L 223.889826 102.6213 
L 224.304917 92.388967 
L 224.581644 99.247723 
L 224.85837 94.051235 
L 225.273461 94.99037 
L 225.411824 93.73692 
L 225.550188 94.353673 
L 225.826915 91.833957 
L 226.242005 92.70655 
L 226.380368 82.336512 
L 226.518732 96.005395 
L 226.657095 98.305798 
L 226.795459 93.612275 
L 227.210549 96.894838 
L 227.487276 73.161488 
L 227.625639 92.581725 
L 227.764003 86.225929 
L 228.179093 88.941519 
L 228.317456 103.27629 
L 228.45582 87.308256 
L 228.594183 93.362151 
L 228.732547 91.516372 
L 229.286001 74.353101 
L 229.562727 99.372043 
L 229.701091 92.294991 
L 230.116181 90.457803 
L 230.254545 105.260282 
L 230.392908 93.12868 
L 230.531272 94.703524 
L 230.669635 94.228017 
L 231.084725 83.268302 
L 231.223089 89.082266 
L 231.361452 28.045398 
L 231.499816 88.498097 
L 231.638179 93.120638 
L 232.191633 94.22494 
L 232.329996 83.157405 
L 232.46836 82.98058 
L 232.606723 85.024404 
L 233.021814 77.527318 
L 233.160177 83.203704 
L 233.436904 100.829546 
L 233.575267 102.214495 
L 233.990358 92.419205 
L 234.128721 82.744204 
L 234.405448 101.109093 
L 234.543811 96.227771 
L 234.958902 89.07931 
L 235.097265 99.731159 
L 235.235629 99.624002 
L 235.373992 97.255884 
L 235.512356 103.35012 
L 235.927446 111.539844 
L 236.065809 94.07289 
L 236.204173 93.242908 
L 236.342536 91.245696 
L 236.4809 95.942168 
L 236.89599 97.909801 
L 237.034353 112.92985 
L 237.31108 82.671658 
L 237.449444 99.241616 
L 237.864534 90.78288 
L 238.002898 99.520395 
L 238.141261 98.976618 
L 238.279624 86.521653 
L 238.417988 108.187866 
L 238.971442 117.257175 
L 239.109805 85.201054 
L 239.248169 83.622004 
L 239.386532 101.36423 
L 239.939986 102.303654 
L 240.216713 88.649365 
L 240.355076 86.749852 
L 240.770166 104.029598 
L 240.90853 80.234691 
L 241.046893 82.118762 
L 241.185257 99.897737 
L 241.32362 96.795008 
L 241.73871 90.344039 
L 241.877074 101.496584 
L 242.015437 83.853213 
L 242.153801 96.909112 
L 242.292164 93.418103 
L 242.707255 100.056268 
L 242.845618 92.735969 
L 242.983981 95.736501 
L 243.122345 92.253907 
L 243.260708 92.086911 
L 243.814162 86.436399 
L 243.952526 97.622128 
L 244.090889 91.390489 
L 244.229252 97.86248 
L 244.644343 89.611871 
L 244.782706 76.157974 
L 244.92107 92.051073 
L 245.059433 91.63619 
L 245.197797 105.895018 
L 245.612887 96.174056 
L 245.75125 82.788504 
L 245.889614 96.700246 
L 246.027977 97.424902 
L 246.166341 101.938489 
L 246.581431 95.35746 
L 246.719794 97.206661 
L 246.858158 107.284304 
L 247.134885 88.445747 
L 247.549975 99.824306 
L 247.826702 94.400847 
L 247.965065 89.277939 
L 248.103429 101.879475 
L 248.518519 102.49269 
L 248.656883 142.590852 
L 248.795246 92.575429 
L 248.93361 92.132738 
L 249.071973 113.566361 
L 249.487063 93.017613 
L 249.625427 101.050935 
L 249.76379 92.740858 
L 250.040517 96.420508 
L 250.455607 97.540188 
L 250.593971 104.781238 
L 250.732334 102.538738 
L 250.870698 87.458553 
L 251.009061 93.26486 
L 251.424152 63.691117 
L 251.700878 111.3668 
L 251.839242 94.538959 
L 252.392696 92.180905 
L 252.531059 101.631515 
L 252.669422 87.414185 
L 252.807786 87.695767 
L 252.946149 87.506736 
L 253.36124 90.774405 
L 253.499603 85.546842 
L 253.914693 99.63772 
L 254.468147 92.971883 
L 254.606511 97.048999 
L 254.744874 104.653685 
L 254.883238 94.035213 
L 255.298328 102.324764 
L 255.436691 90.524572 
L 255.575055 99.938166 
L 255.713418 91.372376 
L 255.851782 91.892623 
L 256.405235 92.97821 
L 256.543599 89.855275 
L 256.820326 93.891419 
L 257.37378 91.512251 
L 257.650506 105.549456 
L 257.78887 99.747235 
L 258.20396 102.537443 
L 258.480687 86.605286 
L 258.619051 102.046478 
L 258.757414 104.296085 
L 259.172504 101.353301 
L 259.310868 95.464388 
L 259.449231 103.600068 
L 259.587595 99.285122 
L 259.725958 88.854591 
L 260.141048 100.308537 
L 260.417775 91.865639 
L 260.694502 93.64634 
L 261.109593 99.942819 
L 261.247956 95.697357 
L 261.386319 76.345728 
L 261.663046 100.179676 
L 262.078137 100.781925 
L 262.2165 84.562529 
L 262.354864 100.728489 
L 262.493227 96.173066 
L 262.63159 109.4523 
L 263.046681 91.527194 
L 263.185044 91.251365 
L 263.323408 92.196891 
L 263.461771 96.311302 
L 263.600134 96.980145 
L 264.015225 96.910203 
L 264.153588 89.927221 
L 264.291952 97.570796 
L 264.430315 96.389158 
L 264.568679 83.922901 
L 264.983769 103.414714 
L 265.122132 93.786867 
L 265.260496 92.318549 
L 265.398859 104.092436 
L 265.537223 98.92244 
L 265.952313 98.9476 
L 266.090676 105.996668 
L 266.22904 97.657253 
L 266.367403 101.631056 
L 266.505767 88.674844 
L 266.920857 90.252659 
L 267.059221 86.783579 
L 267.197584 99.807974 
L 267.335947 99.046095 
L 267.474311 105.481777 
L 267.889401 102.433746 
L 268.027765 89.606654 
L 268.166128 94.950117 
L 268.304492 104.890589 
L 268.442855 91.147944 
L 268.857945 104.761385 
L 268.996309 97.560032 
L 269.134672 102.371664 
L 269.273036 97.445905 
L 269.411399 98.863818 
L 269.826489 93.376727 
L 269.964853 89.835412 
L 270.103216 91.942295 
L 270.24158 102.243013 
L 270.379943 102.029948 
L 270.933397 95.096661 
L 271.07176 88.855441 
L 271.348487 88.881036 
L 271.901941 100.779915 
L 272.040305 89.037415 
L 272.178668 91.338753 
L 272.317031 128.373818 
L 272.732122 88.737609 
L 272.870485 94.942064 
L 273.008849 86.469521 
L 273.147212 99.58447 
L 273.285576 83.978416 
L 273.700666 93.393297 
L 273.977393 105.261638 
L 274.115756 78.045172 
L 274.25412 105.999567 
L 274.66921 97.705792 
L 274.807573 102.416616 
L 274.945937 91.470664 
L 275.0843 99.616659 
L 275.222664 89.828378 
L 275.637754 97.176032 
L 275.776117 94.213 
L 275.914481 100.030712 
L 276.052844 84.875185 
L 276.191208 94.303491 
L 276.744662 97.354231 
L 276.883025 83.483874 
L 277.021388 104.502528 
L 277.159752 105.319593 
L 277.713206 87.46674 
L 277.851569 99.999279 
L 277.989933 91.258022 
L 278.128296 101.82328 
L 278.543386 97.550364 
L 278.68175 94.554553 
L 278.820113 94.920539 
L 278.958477 98.982249 
L 279.09684 84.951899 
L 279.51193 98.971326 
L 279.650294 79.829713 
L 279.788657 104.949771 
L 280.065384 83.438568 
L 280.480475 97.980907 
L 280.618838 97.608398 
L 280.757201 91.404761 
L 281.033928 104.311334 
L 281.725746 80.558874 
L 281.864109 98.571829 
L 282.002472 101.858769 
L 282.555926 93.909943 
L 282.69429 94.435595 
L 282.832653 88.898221 
L 282.971017 96.541336 
L 283.386107 96.33377 
L 283.52447 98.959098 
L 283.662834 86.773138 
L 283.801197 94.04288 
L 283.939561 95.123049 
L 284.354651 91.745455 
L 284.493014 88.103147 
L 284.631378 94.921397 
L 284.908105 97.839419 
L 285.323195 91.058783 
L 285.461559 108.475921 
L 285.876649 84.114218 
L 286.291739 98.109553 
L 286.430103 89.137277 
L 286.845193 99.235413 
L 287.260283 95.596122 
L 287.398647 105.342678 
L 287.813737 89.67885 
L 288.228827 91.853959 
L 288.367191 97.374357 
L 288.505554 94.299307 
L 288.782281 86.569564 
L 289.197371 92.853632 
L 289.474098 99.158544 
L 289.750825 88.195134 
L 290.165916 100.111972 
L 290.581006 89.27942 
L 290.719369 99.113582 
L 291.272823 95.986722 
L 291.411187 83.75555 
L 291.54955 99.154064 
L 291.687913 92.878642 
L 292.103004 88.081987 
L 292.241367 83.829131 
L 292.379731 89.033537 
L 292.518094 87.681626 
L 292.656458 91.386974 
L 293.209911 85.355239 
L 293.348275 94.398291 
L 293.486638 86.328648 
L 293.625002 90.482944 
L 294.040092 95.247224 
L 294.178455 92.177612 
L 294.316819 99.072526 
L 294.593546 82.553361 
L 295.008636 95.118289 
L 295.285363 90.214705 
L 295.423726 83.037604 
L 295.56209 88.888698 
L 295.97718 94.219134 
L 296.115544 85.01646 
L 296.253907 96.675421 
L 296.530634 91.559702 
L 296.945724 96.200111 
L 297.084088 91.929451 
L 297.222451 100.092265 
L 297.360815 91.846283 
L 297.499178 91.535898 
L 297.914268 97.04805 
L 298.052632 95.832628 
L 298.329359 88.431401 
L 298.467722 94.647794 
L 298.882812 98.674765 
L 299.021176 90.350169 
L 299.159539 93.71488 
L 299.297903 104.5432 
L 299.436266 96.744634 
L 299.98972 94.454681 
L 300.266447 92.310627 
L 300.40481 96.374135 
L 300.819901 94.020085 
L 300.958264 95.668971 
L 301.234991 91.203456 
L 301.373354 91.832944 
L 301.788445 88.15961 
L 302.065172 97.215694 
L 302.203535 86.465601 
L 302.341899 96.631213 
L 302.756989 95.758831 
L 302.895352 93.823634 
L 303.033716 85.006001 
L 303.172079 87.496493 
L 303.310443 82.910538 
L 303.725533 80.977557 
L 303.863896 93.549164 
L 304.00226 84.095973 
L 304.140623 94.516267 
L 304.278987 89.208686 
L 304.832441 93.944315 
L 304.970804 86.514063 
L 305.109167 98.2677 
L 305.662621 91.425361 
L 305.800985 91.577726 
L 305.939348 105.389154 
L 306.077712 97.664833 
L 306.216075 77.758474 
L 307.046256 98.877218 
L 307.184619 91.819378 
L 307.599709 95.491063 
L 307.738073 78.639076 
L 307.876436 81.15002 
L 308.0148 99.310078 
L 308.153163 89.27809 
L 308.568254 90.764748 
L 308.84498 96.216812 
L 309.121707 91.041887 
L 309.536798 84.045935 
L 309.675161 102.656937 
L 309.951888 94.82965 
L 310.090251 97.082425 
L 310.505342 89.708135 
L 310.782069 96.724591 
L 311.058795 84.860115 
L 311.473886 99.344274 
L 311.612249 87.090589 
L 311.888976 93.578199 
L 312.02734 94.926256 
L 312.44243 91.995355 
L 312.719157 94.941999 
L 312.85752 99.808406 
L 312.995884 82.413578 
L 313.410974 93.504052 
L 313.549337 100.187189 
L 313.687701 88.948271 
L 313.964428 97.895893 
L 314.379518 102.942669 
L 314.517882 87.714254 
L 314.794608 103.082607 
L 314.932972 99.674233 
L 315.348062 83.611573 
L 315.486426 96.949149 
L 315.624789 83.493511 
L 315.763153 98.694824 
L 315.901516 97.220478 
L 316.316606 89.450358 
L 316.45497 89.195493 
L 316.593333 102.424872 
L 316.87006 87.738993 
L 317.28515 95.150838 
L 317.423514 92.350699 
L 317.561877 97.032126 
L 317.700241 87.021908 
L 317.838604 94.165412 
L 318.253695 92.477618 
L 318.392058 83.767426 
L 318.668785 93.30936 
L 318.807148 87.130939 
L 319.222239 86.572977 
L 319.360602 92.647016 
L 319.498966 81.610579 
L 319.637329 86.484419 
L 319.775692 99.786353 
L 320.190783 88.199981 
L 320.605873 106.9736 
L 320.744237 90.735584 
L 321.29769 94.962292 
L 321.436054 99.490701 
L 321.574417 98.757029 
L 322.127871 106.404692 
L 322.266234 92.294332 
L 322.404598 95.466443 
L 322.542961 84.554321 
L 322.681325 93.774723 
L 323.096415 93.092584 
L 323.234778 106.635906 
L 323.373142 85.140884 
L 323.649869 101.183944 
L 324.064959 101.013319 
L 324.203323 88.115214 
L 324.341686 91.869491 
L 324.480049 106.537302 
L 324.618413 86.922741 
L 325.033503 94.044342 
L 325.171867 101.504201 
L 325.31023 99.521375 
L 325.448594 94.305068 
L 325.586957 99.797607 
L 326.140411 96.094613 
L 326.278774 96.210748 
L 326.417138 97.903229 
L 326.555501 89.999206 
L 326.970591 90.977502 
L 327.247318 99.293569 
L 327.385682 112.739835 
L 327.524045 97.011193 
L 327.939136 95.893349 
L 328.077499 95.877237 
L 328.215862 97.070088 
L 328.354226 106.494361 
L 328.492589 92.465074 
L 328.90768 88.484598 
L 329.046043 98.994338 
L 329.184407 89.546357 
L 329.32277 106.820148 
L 329.461133 106.233787 
L 329.876224 107.940076 
L 330.014587 97.267418 
L 330.152951 96.362348 
L 330.291314 97.777172 
L 330.429678 91.113909 
L 330.844768 86.776501 
L 330.983131 101.346291 
L 331.121495 84.844181 
L 331.259858 96.097837 
L 331.398222 86.60479 
L 331.813312 97.282687 
L 331.951675 105.116985 
L 332.090039 82.477084 
L 332.366766 102.81065 
L 332.92022 92.725471 
L 333.058583 114.134885 
L 333.33531 78.40649 
L 333.7504 90.07032 
L 333.888764 90.571148 
L 334.027127 86.057801 
L 334.165491 89.749638 
L 334.303854 89.835042 
L 334.718944 89.166569 
L 334.857308 99.276189 
L 334.995671 91.924175 
L 335.134035 96.756489 
L 335.272398 107.313101 
L 335.687488 83.252771 
L 335.825852 86.478338 
L 335.964215 79.870044 
L 336.240942 105.00397 
L 336.794396 95.550107 
L 336.932759 111.937682 
L 337.209486 93.957572 
L 337.624577 96.089714 
L 337.76294 94.23546 
L 337.901303 99.508905 
L 338.039667 83.592465 
L 338.17803 98.435657 
L 338.593121 93.46564 
L 338.731484 87.819726 
L 338.869848 105.327519 
L 339.008211 103.107852 
L 339.146574 91.005776 
L 339.561665 89.952055 
L 339.700028 97.18277 
L 339.976755 78.3467 
L 340.115119 98.368049 
L 340.530209 93.168644 
L 340.668572 81.174778 
L 340.945299 100.004876 
L 341.083663 92.000057 
L 341.637116 92.400149 
L 341.77548 81.828676 
L 341.913843 99.616707 
L 342.052207 95.093317 
L 342.467297 101.587502 
L 342.605661 88.935676 
L 342.744024 104.6491 
L 342.882387 89.863109 
L 343.020751 90.602374 
L 343.435841 94.193434 
L 343.712568 93.223769 
L 343.850932 89.883161 
L 344.404385 94.631724 
L 344.542749 94.221768 
L 344.681112 80.750257 
L 344.819476 94.457211 
L 344.957839 93.868043 
L 345.372929 95.876787 
L 345.511293 99.443525 
L 345.649656 107.045494 
L 345.78802 78.68064 
L 345.926383 90.360378 
L 346.341473 102.074611 
L 346.6182 92.660058 
L 346.894927 110.395007 
L 347.310018 90.406762 
L 347.586744 100.908683 
L 347.725108 99.397433 
L 347.863471 92.879502 
L 348.278562 100.751466 
L 348.555289 92.109247 
L 348.832015 92.028695 
L 349.247106 98.827309 
L 349.523833 90.060779 
L 349.662196 95.581301 
L 349.80056 105.874122 
L 350.354013 89.622856 
L 350.769104 106.45626 
L 351.184194 86.397436 
L 351.322557 117.62603 
L 351.460921 89.13312 
L 351.599284 92.736991 
L 351.737648 92.274439 
L 352.152738 91.680573 
L 352.291102 99.108421 
L 352.429465 94.181488 
L 352.567828 95.834554 
L 352.706192 91.253319 
L 353.121282 94.160026 
L 353.259646 98.285677 
L 353.398009 83.026369 
L 353.536373 93.889373 
L 353.674736 90.884665 
L 354.089826 92.612658 
L 354.22819 94.009022 
L 354.366553 92.899258 
L 354.504917 101.443427 
L 355.05837 100.101842 
L 355.196734 94.235466 
L 355.335097 99.471843 
L 355.473461 76.11024 
L 355.611824 95.716274 
L 356.026915 92.050167 
L 356.165278 108.955015 
L 356.303641 92.308424 
L 356.442005 96.108258 
L 356.580368 75.890796 
L 357.133822 103.788808 
L 357.272186 93.375752 
L 357.410549 95.962177 
L 357.548912 93.15408 
L 358.24073 88.465941 
L 358.379093 94.738511 
L 358.517456 87.783219 
L 359.07091 98.253591 
L 359.209274 100.695144 
L 359.347637 93.738098 
L 359.486001 97.472105 
L 359.901091 97.688023 
L 360.039454 96.289564 
L 360.177818 93.604812 
L 360.316181 99.654064 
L 360.454545 85.5851 
L 361.007998 100.14884 
L 361.146362 92.333694 
L 361.284725 95.253666 
L 361.423089 82.608682 
L 361.838179 100.837621 
L 361.976543 83.429827 
L 362.114906 97.546292 
L 362.253269 85.405728 
L 362.391633 91.773195 
L 362.806723 76.447055 
L 362.945087 97.040275 
L 363.360177 102.496299 
L 363.775267 94.638356 
L 363.913631 99.136458 
L 364.190358 94.069954 
L 364.328721 96.551648 
L 364.743811 89.826141 
L 365.020538 96.974169 
L 365.297265 92.790975 
L 365.712356 101.253479 
L 365.850719 99.237231 
L 365.989082 90.173014 
L 366.127446 120.816716 
L 366.6809 95.203375 
L 366.819263 75.612243 
L 367.09599 106.906386 
L 367.234353 79.73794 
L 367.787807 107.374584 
L 368.064534 89.77685 
L 368.202898 96.258246 
L 368.617988 96.765312 
L 368.756351 90.482844 
L 368.894715 96.355815 
L 369.171442 73.986162 
L 369.586532 97.813908 
L 369.724895 80.631251 
L 369.863259 92.666234 
L 370.001622 91.861427 
L 370.139986 86.753063 
L 370.555076 98.073671 
L 370.831803 85.415327 
L 370.970166 80.738901 
L 371.10853 96.715659 
L 371.52362 79.844698 
L 371.661984 95.127752 
L 371.800347 88.044518 
L 371.93871 101.89588 
L 372.077074 89.263312 
L 372.492164 92.540316 
L 372.630528 95.68963 
L 372.768891 50.054758 
L 372.907255 96.880614 
L 373.045618 93.885394 
L 373.460708 95.161477 
L 373.599072 86.027101 
L 373.737435 94.599872 
L 373.875799 95.58425 
L 374.014162 94.698477 
L 374.429252 107.425056 
L 374.567616 96.032501 
L 374.705979 95.490841 
L 374.844343 83.846061 
L 374.982706 105.319803 
L 375.397797 89.566203 
L 375.53616 91.980677 
L 375.674523 88.143888 
L 375.812887 96.165966 
L 375.95125 85.888219 
L 376.366341 95.199631 
L 376.504704 92.85573 
L 376.643068 96.662068 
L 376.781431 95.466423 
L 376.919794 91.930927 
L 377.334885 91.163075 
L 377.473248 88.40322 
L 377.611612 106.029395 
L 377.888339 87.221792 
L 378.303429 100.533388 
L 378.441792 93.574506 
L 378.580156 94.149398 
L 378.718519 93.626787 
L 378.856883 86.63243 
L 379.271973 94.096655 
L 379.410336 91.021448 
L 379.5487 100.121895 
L 379.687063 79.232337 
L 379.825427 89.32171 
L 380.240517 95.136502 
L 380.378881 85.615945 
L 380.655607 93.739187 
L 380.793971 87.093259 
L 381.209061 96.153836 
L 381.347425 95.631031 
L 381.624152 85.403164 
L 381.762515 91.627084 
L 382.177605 81.981034 
L 382.454332 94.138139 
L 382.731059 85.561224 
L 383.146149 91.82101 
L 383.284513 75.819582 
L 383.422876 100.032379 
L 383.56124 79.980017 
L 383.699603 107.373071 
L 384.253057 79.244644 
L 384.39142 101.407873 
L 384.529784 80.87541 
L 384.668147 86.530039 
L 385.221601 99.30806 
L 385.359964 91.574652 
L 385.498328 92.747344 
L 385.636691 98.024661 
L 386.051782 98.481346 
L 386.190145 75.012163 
L 386.328509 92.706725 
L 386.466872 96.086494 
L 386.605235 89.220958 
L 387.020326 102.279455 
L 387.158689 89.18403 
L 387.297053 64.643435 
L 387.435416 103.832336 
L 387.57378 95.786288 
L 388.127233 86.38583 
L 388.265597 95.290132 
L 388.40396 93.771131 
L 388.542324 83.51813 
L 388.957414 114.41136 
L 389.095777 84.203905 
L 389.372504 94.692636 
L 389.510868 92.870688 
L 390.064322 89.491738 
L 390.202685 98.472469 
L 390.341048 88.12368 
L 390.894502 100.475371 
L 391.171229 93.872585 
L 391.171229 93.872585 
" clip-path="url(#pcb1ab3c096)" style="fill: none; stroke: #1f77b4; stroke-width: 1.5; stroke-linecap: square"/>
   </g>
   <g id="patch_3">
    <path d="M 38.482813 148.318125 
L 38.482813 22.318125 
" style="fill: none; stroke: #000000; stroke-width: 0.8; stroke-linejoin: miter; stroke-linecap: square"/>
   </g>
   <g id="patch_4">
    <path d="M 429.082813 148.318125 
L 429.082813 22.318125 
" style="fill: none; stroke: #000000; stroke-width: 0.8; stroke-linejoin: miter; stroke-linecap: square"/>
   </g>
   <g id="patch_5">
    <path d="M 38.482812 148.318125 
L 429.082812 148.318125 
" style="fill: none; stroke: #000000; stroke-width: 0.8; stroke-linejoin: miter; stroke-linecap: square"/>
   </g>
   <g id="patch_6">
    <path d="M 38.482812 22.318125 
L 429.082812 22.318125 
" style="fill: none; stroke: #000000; stroke-width: 0.8; stroke-linejoin: miter; stroke-linecap: square"/>
   </g>
   <g id="text_7">
    <!-- Standardized Residuals -->
    <g transform="translate(163.7975 16.318125) scale(0.12 -0.12)">
     <defs>
      <path id="DejaVuSans-53" d="M 3425 4513 
L 3425 3897 
Q 3066 4069 2747 4153 
Q 2428 4238 2131 4238 
Q 1616 4238 1336 4038 
Q 1056 3838 1056 3469 
Q 1056 3159 1242 3001 
Q 1428 2844 1947 2747 
L 2328 2669 
Q 3034 2534 3370 2195 
Q 3706 1856 3706 1288 
Q 3706 609 3251 259 
Q 2797 -91 1919 -91 
Q 1588 -91 1214 -16 
Q 841 59 441 206 
L 441 856 
Q 825 641 1194 531 
Q 1563 422 1919 422 
Q 2459 422 2753 634 
Q 3047 847 3047 1241 
Q 3047 1584 2836 1778 
Q 2625 1972 2144 2069 
L 1759 2144 
Q 1053 2284 737 2584 
Q 422 2884 422 3419 
Q 422 4038 858 4394 
Q 1294 4750 2059 4750 
Q 2388 4750 2728 4690 
Q 3069 4631 3425 4513 
z
" transform="scale(0.015625)"/>
      <path id="DejaVuSans-74" d="M 1172 4494 
L 1172 3500 
L 2356 3500 
L 2356 3053 
L 1172 3053 
L 1172 1153 
Q 1172 725 1289 603 
Q 1406 481 1766 481 
L 2356 481 
L 2356 0 
L 1766 0 
Q 1100 0 847 248 
Q 594 497 594 1153 
L 594 3053 
L 172 3053 
L 172 3500 
L 594 3500 
L 594 4494 
L 1172 4494 
z
" transform="scale(0.015625)"/>
      <path id="DejaVuSans-61" d="M 2194 1759 
Q 1497 1759 1228 1600 
Q 959 1441 959 1056 
Q 959 750 1161 570 
Q 1363 391 1709 391 
Q 2188 391 2477 730 
Q 2766 1069 2766 1631 
L 2766 1759 
L 2194 1759 
z
M 3341 1997 
L 3341 0 
L 2766 0 
L 2766 531 
Q 2569 213 2275 61 
Q 1981 -91 1556 -91 
Q 1019 -91 701 211 
Q 384 513 384 1019 
Q 384 1609 779 1909 
Q 1175 2209 1959 2209 
L 2766 2209 
L 2766 2266 
Q 2766 2663 2505 2880 
Q 2244 3097 1772 3097 
Q 1472 3097 1187 3025 
Q 903 2953 641 2809 
L 641 3341 
Q 956 3463 1253 3523 
Q 1550 3584 1831 3584 
Q 2591 3584 2966 3190 
Q 3341 2797 3341 1997 
z
" transform="scale(0.015625)"/>
      <path id="DejaVuSans-6e" d="M 3513 2113 
L 3513 0 
L 2938 0 
L 2938 2094 
Q 2938 2591 2744 2837 
Q 2550 3084 2163 3084 
Q 1697 3084 1428 2787 
Q 1159 2491 1159 1978 
L 1159 0 
L 581 0 
L 581 3500 
L 1159 3500 
L 1159 2956 
Q 1366 3272 1645 3428 
Q 1925 3584 2291 3584 
Q 2894 3584 3203 3211 
Q 3513 2838 3513 2113 
z
" transform="scale(0.015625)"/>
      <path id="DejaVuSans-64" d="M 2906 2969 
L 2906 4863 
L 3481 4863 
L 3481 0 
L 2906 0 
L 2906 525 
Q 2725 213 2448 61 
Q 2172 -91 1784 -91 
Q 1150 -91 751 415 
Q 353 922 353 1747 
Q 353 2572 751 3078 
Q 1150 3584 1784 3584 
Q 2172 3584 2448 3432 
Q 2725 3281 2906 2969 
z
M 947 1747 
Q 947 1113 1208 752 
Q 1469 391 1925 391 
Q 2381 391 2643 752 
Q 2906 1113 2906 1747 
Q 2906 2381 2643 2742 
Q 2381 3103 1925 3103 
Q 1469 3103 1208 2742 
Q 947 2381 947 1747 
z
" transform="scale(0.015625)"/>
      <path id="DejaVuSans-72" d="M 2631 2963 
Q 2534 3019 2420 3045 
Q 2306 3072 2169 3072 
Q 1681 3072 1420 2755 
Q 1159 2438 1159 1844 
L 1159 0 
L 581 0 
L 581 3500 
L 1159 3500 
L 1159 2956 
Q 1341 3275 1631 3429 
Q 1922 3584 2338 3584 
Q 2397 3584 2469 3576 
Q 2541 3569 2628 3553 
L 2631 2963 
z
" transform="scale(0.015625)"/>
      <path id="DejaVuSans-69" d="M 603 3500 
L 1178 3500 
L 1178 0 
L 603 0 
L 603 3500 
z
M 603 4863 
L 1178 4863 
L 1178 4134 
L 603 4134 
L 603 4863 
z
" transform="scale(0.015625)"/>
      <path id="DejaVuSans-7a" d="M 353 3500 
L 3084 3500 
L 3084 2975 
L 922 459 
L 3084 459 
L 3084 0 
L 275 0 
L 275 525 
L 2438 3041 
L 353 3041 
L 353 3500 
z
" transform="scale(0.015625)"/>
      <path id="DejaVuSans-65" d="M 3597 1894 
L 3597 1613 
L 953 1613 
Q 991 1019 1311 708 
Q 1631 397 2203 397 
Q 2534 397 2845 478 
Q 3156 559 3463 722 
L 3463 178 
Q 3153 47 2828 -22 
Q 2503 -91 2169 -91 
Q 1331 -91 842 396 
Q 353 884 353 1716 
Q 353 2575 817 3079 
Q 1281 3584 2069 3584 
Q 2775 3584 3186 3129 
Q 3597 2675 3597 1894 
z
M 3022 2063 
Q 3016 2534 2758 2815 
Q 2500 3097 2075 3097 
Q 1594 3097 1305 2825 
Q 1016 2553 972 2059 
L 3022 2063 
z
" transform="scale(0.015625)"/>
      <path id="DejaVuSans-20" transform="scale(0.015625)"/>
      <path id="DejaVuSans-52" d="M 2841 2188 
Q 3044 2119 3236 1894 
Q 3428 1669 3622 1275 
L 4263 0 
L 3584 0 
L 2988 1197 
Q 2756 1666 2539 1819 
Q 2322 1972 1947 1972 
L 1259 1972 
L 1259 0 
L 628 0 
L 628 4666 
L 2053 4666 
Q 2853 4666 3247 4331 
Q 3641 3997 3641 3322 
Q 3641 2881 3436 2590 
Q 3231 2300 2841 2188 
z
M 1259 4147 
L 1259 2491 
L 2053 2491 
Q 2509 2491 2742 2702 
Q 2975 2913 2975 3322 
Q 2975 3731 2742 3939 
Q 2509 4147 2053 4147 
L 1259 4147 
z
" transform="scale(0.015625)"/>
      <path id="DejaVuSans-73" d="M 2834 3397 
L 2834 2853 
Q 2591 2978 2328 3040 
Q 2066 3103 1784 3103 
Q 1356 3103 1142 2972 
Q 928 2841 928 2578 
Q 928 2378 1081 2264 
Q 1234 2150 1697 2047 
L 1894 2003 
Q 2506 1872 2764 1633 
Q 3022 1394 3022 966 
Q 3022 478 2636 193 
Q 2250 -91 1575 -91 
Q 1294 -91 989 -36 
Q 684 19 347 128 
L 347 722 
Q 666 556 975 473 
Q 1284 391 1588 391 
Q 1994 391 2212 530 
Q 2431 669 2431 922 
Q 2431 1156 2273 1281 
Q 2116 1406 1581 1522 
L 1381 1569 
Q 847 1681 609 1914 
Q 372 2147 372 2553 
Q 372 3047 722 3315 
Q 1072 3584 1716 3584 
Q 2034 3584 2315 3537 
Q 2597 3491 2834 3397 
z
" transform="scale(0.015625)"/>
      <path id="DejaVuSans-75" d="M 544 1381 
L 544 3500 
L 1119 3500 
L 1119 1403 
Q 1119 906 1312 657 
Q 1506 409 1894 409 
Q 2359 409 2629 706 
Q 2900 1003 2900 1516 
L 2900 3500 
L 3475 3500 
L 3475 0 
L 2900 0 
L 2900 538 
Q 2691 219 2414 64 
Q 2138 -91 1772 -91 
Q 1169 -91 856 284 
Q 544 659 544 1381 
z
M 1991 3584 
L 1991 3584 
z
" transform="scale(0.015625)"/>
      <path id="DejaVuSans-6c" d="M 603 4863 
L 1178 4863 
L 1178 0 
L 603 0 
L 603 4863 
z
" transform="scale(0.015625)"/>
     </defs>
     <use xlink:href="#DejaVuSans-53"/>
     <use xlink:href="#DejaVuSans-74" x="63.476562"/>
     <use xlink:href="#DejaVuSans-61" x="102.685547"/>
     <use xlink:href="#DejaVuSans-6e" x="163.964844"/>
     <use xlink:href="#DejaVuSans-64" x="227.34375"/>
     <use xlink:href="#DejaVuSans-61" x="290.820312"/>
     <use xlink:href="#DejaVuSans-72" x="352.099609"/>
     <use xlink:href="#DejaVuSans-64" x="391.462891"/>
     <use xlink:href="#DejaVuSans-69" x="454.939453"/>
     <use xlink:href="#DejaVuSans-7a" x="482.722656"/>
     <use xlink:href="#DejaVuSans-65" x="535.212891"/>
     <use xlink:href="#DejaVuSans-64" x="596.736328"/>
     <use xlink:href="#DejaVuSans-20" x="660.212891"/>
     <use xlink:href="#DejaVuSans-52" x="692"/>
     <use xlink:href="#DejaVuSans-65" x="756.982422"/>
     <use xlink:href="#DejaVuSans-73" x="818.505859"/>
     <use xlink:href="#DejaVuSans-69" x="870.605469"/>
     <use xlink:href="#DejaVuSans-64" x="898.388672"/>
     <use xlink:href="#DejaVuSans-75" x="961.865234"/>
     <use xlink:href="#DejaVuSans-61" x="1025.244141"/>
     <use xlink:href="#DejaVuSans-6c" x="1086.523438"/>
     <use xlink:href="#DejaVuSans-73" x="1114.306641"/>
    </g>
   </g>
  </g>
  <g id="axes_2">
   <g id="patch_7">
    <path d="M 38.482813 299.518125 
L 429.082813 299.518125 
L 429.082813 173.518125 
L 38.482813 173.518125 
z
" style="fill: #ffffff"/>
   </g>
   <g id="matplotlib.axis_3">
    <g id="xtick_8">
     <g id="line2d_15">
      <g>
       <use xlink:href="#mc49c8cea00" x="88.155289" y="299.518125" style="stroke: #000000; stroke-width: 0.8"/>
      </g>
     </g>
     <g id="text_8">
      <!-- 2015 -->
      <g transform="translate(75.430289 314.116562) scale(0.1 -0.1)">
       <defs>
        <path id="DejaVuSans-31" d="M 794 531 
L 1825 531 
L 1825 4091 
L 703 3866 
L 703 4441 
L 1819 4666 
L 2450 4666 
L 2450 531 
L 3481 531 
L 3481 0 
L 794 0 
L 794 531 
z
" transform="scale(0.015625)"/>
       </defs>
       <use xlink:href="#DejaVuSans-32"/>
       <use xlink:href="#DejaVuSans-30" x="63.623047"/>
       <use xlink:href="#DejaVuSans-31" x="127.246094"/>
       <use xlink:href="#DejaVuSans-35" x="190.869141"/>
      </g>
     </g>
    </g>
    <g id="xtick_9">
     <g id="line2d_16">
      <g>
       <use xlink:href="#mc49c8cea00" x="138.657945" y="299.518125" style="stroke: #000000; stroke-width: 0.8"/>
      </g>
     </g>
     <g id="text_9">
      <!-- 2016 -->
      <g transform="translate(125.932945 314.116562) scale(0.1 -0.1)">
       <defs>
        <path id="DejaVuSans-36" d="M 2113 2584 
Q 1688 2584 1439 2293 
Q 1191 2003 1191 1497 
Q 1191 994 1439 701 
Q 1688 409 2113 409 
Q 2538 409 2786 701 
Q 3034 994 3034 1497 
Q 3034 2003 2786 2293 
Q 2538 2584 2113 2584 
z
M 3366 4563 
L 3366 3988 
Q 3128 4100 2886 4159 
Q 2644 4219 2406 4219 
Q 1781 4219 1451 3797 
Q 1122 3375 1075 2522 
Q 1259 2794 1537 2939 
Q 1816 3084 2150 3084 
Q 2853 3084 3261 2657 
Q 3669 2231 3669 1497 
Q 3669 778 3244 343 
Q 2819 -91 2113 -91 
Q 1303 -91 875 529 
Q 447 1150 447 2328 
Q 447 3434 972 4092 
Q 1497 4750 2381 4750 
Q 2619 4750 2861 4703 
Q 3103 4656 3366 4563 
z
" transform="scale(0.015625)"/>
       </defs>
       <use xlink:href="#DejaVuSans-32"/>
       <use xlink:href="#DejaVuSans-30" x="63.623047"/>
       <use xlink:href="#DejaVuSans-31" x="127.246094"/>
       <use xlink:href="#DejaVuSans-36" x="190.869141"/>
      </g>
     </g>
    </g>
    <g id="xtick_10">
     <g id="line2d_17">
      <g>
       <use xlink:href="#mc49c8cea00" x="189.298966" y="299.518125" style="stroke: #000000; stroke-width: 0.8"/>
      </g>
     </g>
     <g id="text_10">
      <!-- 2017 -->
      <g transform="translate(176.573966 314.116562) scale(0.1 -0.1)">
       <use xlink:href="#DejaVuSans-32"/>
       <use xlink:href="#DejaVuSans-30" x="63.623047"/>
       <use xlink:href="#DejaVuSans-31" x="127.246094"/>
       <use xlink:href="#DejaVuSans-37" x="190.869141"/>
      </g>
     </g>
    </g>
    <g id="xtick_11">
     <g id="line2d_18">
      <g>
       <use xlink:href="#mc49c8cea00" x="239.801622" y="299.518125" style="stroke: #000000; stroke-width: 0.8"/>
      </g>
     </g>
     <g id="text_11">
      <!-- 2018 -->
      <g transform="translate(227.076622 314.116562) scale(0.1 -0.1)">
       <defs>
        <path id="DejaVuSans-38" d="M 2034 2216 
Q 1584 2216 1326 1975 
Q 1069 1734 1069 1313 
Q 1069 891 1326 650 
Q 1584 409 2034 409 
Q 2484 409 2743 651 
Q 3003 894 3003 1313 
Q 3003 1734 2745 1975 
Q 2488 2216 2034 2216 
z
M 1403 2484 
Q 997 2584 770 2862 
Q 544 3141 544 3541 
Q 544 4100 942 4425 
Q 1341 4750 2034 4750 
Q 2731 4750 3128 4425 
Q 3525 4100 3525 3541 
Q 3525 3141 3298 2862 
Q 3072 2584 2669 2484 
Q 3125 2378 3379 2068 
Q 3634 1759 3634 1313 
Q 3634 634 3220 271 
Q 2806 -91 2034 -91 
Q 1263 -91 848 271 
Q 434 634 434 1313 
Q 434 1759 690 2068 
Q 947 2378 1403 2484 
z
M 1172 3481 
Q 1172 3119 1398 2916 
Q 1625 2713 2034 2713 
Q 2441 2713 2670 2916 
Q 2900 3119 2900 3481 
Q 2900 3844 2670 4047 
Q 2441 4250 2034 4250 
Q 1625 4250 1398 4047 
Q 1172 3844 1172 3481 
z
" transform="scale(0.015625)"/>
       </defs>
       <use xlink:href="#DejaVuSans-32"/>
       <use xlink:href="#DejaVuSans-30" x="63.623047"/>
       <use xlink:href="#DejaVuSans-31" x="127.246094"/>
       <use xlink:href="#DejaVuSans-38" x="190.869141"/>
      </g>
     </g>
    </g>
    <g id="xtick_12">
     <g id="line2d_19">
      <g>
       <use xlink:href="#mc49c8cea00" x="290.304279" y="299.518125" style="stroke: #000000; stroke-width: 0.8"/>
      </g>
     </g>
     <g id="text_12">
      <!-- 2019 -->
      <g transform="translate(277.579279 314.116562) scale(0.1 -0.1)">
       <defs>
        <path id="DejaVuSans-39" d="M 703 97 
L 703 672 
Q 941 559 1184 500 
Q 1428 441 1663 441 
Q 2288 441 2617 861 
Q 2947 1281 2994 2138 
Q 2813 1869 2534 1725 
Q 2256 1581 1919 1581 
Q 1219 1581 811 2004 
Q 403 2428 403 3163 
Q 403 3881 828 4315 
Q 1253 4750 1959 4750 
Q 2769 4750 3195 4129 
Q 3622 3509 3622 2328 
Q 3622 1225 3098 567 
Q 2575 -91 1691 -91 
Q 1453 -91 1209 -44 
Q 966 3 703 97 
z
M 1959 2075 
Q 2384 2075 2632 2365 
Q 2881 2656 2881 3163 
Q 2881 3666 2632 3958 
Q 2384 4250 1959 4250 
Q 1534 4250 1286 3958 
Q 1038 3666 1038 3163 
Q 1038 2656 1286 2365 
Q 1534 2075 1959 2075 
z
" transform="scale(0.015625)"/>
       </defs>
       <use xlink:href="#DejaVuSans-32"/>
       <use xlink:href="#DejaVuSans-30" x="63.623047"/>
       <use xlink:href="#DejaVuSans-31" x="127.246094"/>
       <use xlink:href="#DejaVuSans-39" x="190.869141"/>
      </g>
     </g>
    </g>
    <g id="xtick_13">
     <g id="line2d_20">
      <g>
       <use xlink:href="#mc49c8cea00" x="340.806936" y="299.518125" style="stroke: #000000; stroke-width: 0.8"/>
      </g>
     </g>
     <g id="text_13">
      <!-- 2020 -->
      <g transform="translate(328.081936 314.116562) scale(0.1 -0.1)">
       <use xlink:href="#DejaVuSans-32"/>
       <use xlink:href="#DejaVuSans-30" x="63.623047"/>
       <use xlink:href="#DejaVuSans-32" x="127.246094"/>
       <use xlink:href="#DejaVuSans-30" x="190.869141"/>
      </g>
     </g>
    </g>
    <g id="xtick_14">
     <g id="line2d_21">
      <g>
       <use xlink:href="#mc49c8cea00" x="391.447956" y="299.518125" style="stroke: #000000; stroke-width: 0.8"/>
      </g>
     </g>
     <g id="text_14">
      <!-- 2021 -->
      <g transform="translate(378.722956 314.116562) scale(0.1 -0.1)">
       <use xlink:href="#DejaVuSans-32"/>
       <use xlink:href="#DejaVuSans-30" x="63.623047"/>
       <use xlink:href="#DejaVuSans-32" x="127.246094"/>
       <use xlink:href="#DejaVuSans-31" x="190.869141"/>
      </g>
     </g>
    </g>
   </g>
   <g id="matplotlib.axis_4">
    <g id="ytick_7">
     <g id="line2d_22">
      <g>
       <use xlink:href="#m800b49abfd" x="38.482813" y="288.350548" style="stroke: #000000; stroke-width: 0.8"/>
      </g>
     </g>
     <g id="text_15">
      <!-- 20 -->
      <g transform="translate(18.757812 292.149767) scale(0.1 -0.1)">
       <use xlink:href="#DejaVuSans-32"/>
       <use xlink:href="#DejaVuSans-30" x="63.623047"/>
      </g>
     </g>
    </g>
    <g id="ytick_8">
     <g id="line2d_23">
      <g>
       <use xlink:href="#m800b49abfd" x="38.482813" y="255.867911" style="stroke: #000000; stroke-width: 0.8"/>
      </g>
     </g>
     <g id="text_16">
      <!-- 40 -->
      <g transform="translate(18.757812 259.66713) scale(0.1 -0.1)">
       <defs>
        <path id="DejaVuSans-34" d="M 2419 4116 
L 825 1625 
L 2419 1625 
L 2419 4116 
z
M 2253 4666 
L 3047 4666 
L 3047 1625 
L 3713 1625 
L 3713 1100 
L 3047 1100 
L 3047 0 
L 2419 0 
L 2419 1100 
L 313 1100 
L 313 1709 
L 2253 4666 
z
" transform="scale(0.015625)"/>
       </defs>
       <use xlink:href="#DejaVuSans-34"/>
       <use xlink:href="#DejaVuSans-30" x="63.623047"/>
      </g>
     </g>
    </g>
    <g id="ytick_9">
     <g id="line2d_24">
      <g>
       <use xlink:href="#m800b49abfd" x="38.482813" y="223.385274" style="stroke: #000000; stroke-width: 0.8"/>
      </g>
     </g>
     <g id="text_17">
      <!-- 60 -->
      <g transform="translate(18.757812 227.184492) scale(0.1 -0.1)">
       <use xlink:href="#DejaVuSans-36"/>
       <use xlink:href="#DejaVuSans-30" x="63.623047"/>
      </g>
     </g>
    </g>
    <g id="ytick_10">
     <g id="line2d_25">
      <g>
       <use xlink:href="#m800b49abfd" x="38.482813" y="190.902636" style="stroke: #000000; stroke-width: 0.8"/>
      </g>
     </g>
     <g id="text_18">
      <!-- 80 -->
      <g transform="translate(18.757812 194.701855) scale(0.1 -0.1)">
       <use xlink:href="#DejaVuSans-38"/>
       <use xlink:href="#DejaVuSans-30" x="63.623047"/>
      </g>
     </g>
    </g>
   </g>
   <g id="line2d_26">
    <path d="M 38.482812 260.64208 
L 38.621176 215.699011 
L 38.897903 237.754027 
L 39.312993 243.625796 
L 39.451357 243.966636 
L 39.866447 264.748712 
L 40.281537 269.952281 
L 40.558264 271.000702 
L 40.834991 278.858721 
L 41.250081 281.866344 
L 41.388445 264.641097 
L 41.665172 274.298907 
L 41.803535 267.973124 
L 42.218625 271.160481 
L 42.495352 278.961357 
L 42.633716 276.976765 
L 42.772079 280.165989 
L 43.18717 282.953172 
L 43.325533 285.237022 
L 43.463896 284.851432 
L 43.740623 288.242841 
L 44.155714 289.536697 
L 44.294077 288.549783 
L 44.432441 288.565533 
L 44.570804 289.834205 
L 45.124258 286.432946 
L 45.262621 287.028657 
L 45.400985 288.562432 
L 45.677712 289.823332 
L 46.092802 278.020968 
L 46.646256 285.915766 
L 47.061346 287.620931 
L 47.476436 291.072146 
L 47.6148 291.832815 
L 48.02989 292.360976 
L 48.44498 293.540279 
L 48.583344 291.144825 
L 48.998434 291.867392 
L 49.275161 292.934336 
L 49.413525 292.549168 
L 49.551888 293.006516 
L 49.966978 291.883192 
L 50.105342 291.878809 
L 50.243705 292.478496 
L 50.382069 282.483149 
L 50.520432 282.849872 
L 50.935522 284.849148 
L 51.350613 289.330086 
L 51.488976 288.813301 
L 51.904066 289.603419 
L 52.319157 292.013574 
L 52.872611 292.585023 
L 53.010974 290.423484 
L 53.287701 292.039239 
L 53.426064 288.464241 
L 53.841155 288.260668 
L 54.256245 290.847502 
L 54.394608 284.989468 
L 54.948062 286.931661 
L 55.363153 290.7366 
L 55.778243 291.57363 
L 56.05497 292.756136 
L 56.193333 287.255888 
L 56.331697 288.778145 
L 56.746787 289.98955 
L 56.88515 290.967719 
L 57.023514 290.494603 
L 57.161877 291.380957 
L 57.300241 288.911989 
L 57.715331 290.114084 
L 57.992058 291.83838 
L 58.268785 283.338744 
L 58.683875 285.577381 
L 58.960602 288.780037 
L 59.098966 285.750591 
L 59.237329 253.384175 
L 59.652419 260.157901 
L 59.790783 265.676237 
L 59.929146 261.535323 
L 60.205873 271.295333 
L 60.620963 247.023954 
L 60.759327 226.996891 
L 60.89769 237.008716 
L 61.589508 251.245367 
L 62.004598 268.721311 
L 62.142961 273.325702 
L 62.834778 279.018799 
L 62.973142 260.277866 
L 63.111505 260.259985 
L 63.526596 235.450741 
L 64.080049 263.808607 
L 64.49514 269.100035 
L 64.91023 280.733538 
L 65.048594 229.394097 
L 65.463684 235.331458 
L 65.602047 244.551402 
L 65.740411 245.392533 
L 65.878774 241.691889 
L 66.017138 250.1147 
L 66.432228 256.14943 
L 66.985682 275.783206 
L 67.400772 269.21145 
L 67.815862 280.489656 
L 67.954226 279.053109 
L 68.369316 280.228039 
L 68.50768 282.990073 
L 68.646043 283.360034 
L 68.784407 284.330948 
L 68.92277 286.39108 
L 69.33786 287.994011 
L 69.614587 290.271499 
L 69.752951 290.66823 
L 69.891314 289.521289 
L 70.306404 289.765635 
L 70.444768 290.719269 
L 70.583131 290.686406 
L 70.859858 291.483638 
L 71.274949 289.463857 
L 71.690039 291.721449 
L 71.828402 286.582071 
L 72.243493 288.216764 
L 72.381856 289.536397 
L 72.52022 289.787738 
L 72.796946 291.636664 
L 73.212037 282.004148 
L 73.627127 287.978063 
L 73.765491 289.304965 
L 74.180581 289.922555 
L 74.734035 291.970248 
L 75.149125 289.917771 
L 75.564215 292.349741 
L 75.702579 292.821313 
L 76.117669 291.950314 
L 76.394396 292.985568 
L 76.671123 268.01288 
L 77.086213 271.072169 
L 77.501303 281.744409 
L 77.639667 284.261792 
L 78.054757 286.335183 
L 78.193121 288.017519 
L 78.331484 287.599288 
L 78.608211 290.226569 
L 79.161665 291.604385 
L 79.438392 292.775371 
L 79.576755 293.008119 
L 79.991845 292.410965 
L 80.268572 293.267438 
L 80.406936 293.303391 
L 80.545299 290.249677 
L 81.098753 291.185449 
L 81.237116 291.911975 
L 81.37548 289.008921 
L 81.513843 283.025334 
L 81.928934 283.501741 
L 82.067297 282.137394 
L 82.205661 284.587043 
L 82.344024 261.91313 
L 82.482387 267.530939 
L 82.897478 266.350738 
L 83.174205 275.530381 
L 83.312568 245.694743 
L 83.450932 253.056713 
L 83.866022 257.404989 
L 84.142749 269.002234 
L 84.281112 223.198571 
L 84.419476 234.035939 
L 84.972929 246.863295 
L 85.111293 254.50389 
L 85.249656 242.247635 
L 85.38802 250.596863 
L 85.80311 257.810594 
L 86.2182 273.81773 
L 86.356564 277.558951 
L 86.771654 280.754542 
L 86.910018 267.078705 
L 87.048381 265.362819 
L 87.325108 270.476355 
L 87.740198 274.528441 
L 87.878562 278.204082 
L 88.016925 278.817011 
L 88.293652 281.832099 
L 88.985469 284.898857 
L 89.123833 281.745332 
L 89.262196 282.330326 
L 89.677286 221.349662 
L 89.954013 210.695916 
L 90.23074 231.599889 
L 90.645831 240.289933 
L 90.784194 246.872731 
L 91.060921 249.812564 
L 91.199284 257.066731 
L 91.752738 263.087915 
L 92.029465 273.167659 
L 92.167828 239.38211 
L 92.582919 247.672087 
L 93.136373 272.179466 
L 93.689826 278.235592 
L 94.104917 285.548132 
L 94.520007 287.070072 
L 94.935097 290.743865 
L 95.073461 291.579354 
L 95.626915 289.065613 
L 95.765278 290.237462 
L 95.903641 285.089786 
L 96.457095 287.013675 
L 96.595459 288.380892 
L 96.733822 288.183737 
L 97.010549 290.541233 
L 97.425639 291.380506 
L 97.564003 285.588495 
L 97.979093 289.37678 
L 98.394183 290.042157 
L 98.532547 275.451124 
L 98.947637 284.396465 
L 99.501091 287.617846 
L 99.916181 290.913559 
L 100.331272 280.899335 
L 100.607998 284.278341 
L 100.746362 286.121369 
L 101.299816 287.855478 
L 101.576543 290.104324 
L 101.714906 287.978169 
L 101.853269 288.633405 
L 102.26836 285.872971 
L 102.406723 287.64521 
L 102.545087 286.419027 
L 102.821814 289.417449 
L 103.236904 285.985328 
L 103.513631 289.072274 
L 103.651994 284.062772 
L 103.790358 285.067781 
L 104.205448 286.995774 
L 104.482175 289.702133 
L 104.620538 285.94179 
L 104.758902 266.862691 
L 105.312356 271.251144 
L 105.727446 279.247051 
L 106.142536 282.08778 
L 106.419263 286.534384 
L 106.557627 286.364243 
L 106.69599 279.819129 
L 107.11108 277.386203 
L 107.387807 283.329723 
L 107.526171 283.373198 
L 107.664534 285.504337 
L 108.079624 285.154631 
L 108.356351 287.601395 
L 108.633078 289.711933 
L 109.048169 289.894795 
L 109.186532 289.593782 
L 109.324895 290.226744 
L 109.601622 289.240922 
L 110.155076 289.167675 
L 110.293439 289.406455 
L 110.431803 289.973247 
L 110.570166 289.365894 
L 111.261984 290.883113 
L 111.400347 291.676265 
L 111.53871 290.736089 
L 111.953801 280.113443 
L 112.092164 281.924865 
L 112.230528 281.292803 
L 112.507255 285.460372 
L 113.475799 289.829116 
L 113.890889 290.406329 
L 114.029252 291.21503 
L 114.305979 291.152288 
L 114.444343 290.433843 
L 114.859433 290.860321 
L 115.13616 291.804386 
L 115.274523 291.931556 
L 115.412887 291.568683 
L 115.827977 288.959389 
L 116.104704 291.031022 
L 116.243068 290.894026 
L 116.381431 291.339796 
L 116.796521 290.422333 
L 117.073248 292.028801 
L 117.349975 292.513586 
L 117.765065 292.792151 
L 117.903429 291.852703 
L 118.041792 291.905089 
L 118.318519 290.6482 
L 118.73361 291.503009 
L 118.871973 292.176016 
L 119.010336 292.278554 
L 119.287063 290.016159 
L 119.702154 290.750047 
L 119.978881 291.904299 
L 120.117244 291.925578 
L 120.255607 292.398887 
L 120.670698 292.605438 
L 120.947425 293.404321 
L 121.224152 280.987858 
L 121.639242 281.94942 
L 122.192696 288.038182 
L 122.607786 289.329445 
L 123.022876 291.772813 
L 123.16124 286.004313 
L 123.57633 278.442487 
L 123.99142 283.371963 
L 124.129784 283.806396 
L 124.544874 277.659179 
L 124.821601 283.524762 
L 125.098328 285.707142 
L 125.513418 285.263494 
L 125.651782 272.905084 
L 126.066872 281.419689 
L 126.481962 283.902968 
L 126.758689 286.628174 
L 126.897053 286.327975 
L 127.035416 287.190296 
L 127.450506 288.270442 
L 127.727233 290.582578 
L 127.865597 289.008729 
L 128.00396 284.001239 
L 128.419051 284.841587 
L 128.695777 287.488043 
L 128.834141 288.900768 
L 128.972504 285.713051 
L 129.387595 287.505869 
L 129.664322 290.007453 
L 129.802685 278.778074 
L 129.941048 278.989365 
L 130.356139 279.056086 
L 130.494502 280.151201 
L 130.632866 282.460744 
L 130.771229 276.780918 
L 130.909593 280.08338 
L 131.463046 282.418178 
L 131.878137 287.780007 
L 132.293227 277.99993 
L 132.43159 253.527796 
L 132.846681 270.912832 
L 133.261771 275.18476 
L 133.676861 283.245387 
L 133.815225 276.029426 
L 134.230315 269.644374 
L 134.507042 277.491732 
L 134.645405 278.170369 
L 134.783769 281.20175 
L 135.198859 283.74015 
L 135.337223 285.619562 
L 135.475586 275.854477 
L 135.752313 282.257562 
L 136.167403 284.508063 
L 136.582494 289.052217 
L 136.720857 285.352899 
L 137.135947 287.088528 
L 137.274311 288.457981 
L 137.412674 271.632449 
L 137.551038 275.215553 
L 138.104492 278.694154 
L 138.381218 270.386474 
L 138.519582 266.283338 
L 139.211399 270.53496 
L 139.626489 281.507981 
L 140.04158 283.830682 
L 140.45667 288.138734 
L 140.595034 281.893089 
L 141.148487 285.781174 
L 141.286851 284.084892 
L 141.563578 283.609501 
L 142.117031 280.303979 
L 142.255395 283.069146 
L 142.393758 282.734903 
L 142.532122 277.722972 
L 142.947212 279.68897 
L 143.085576 274.489569 
L 143.500666 282.179261 
L 143.915756 284.622335 
L 144.192483 287.467342 
L 144.46921 289.685058 
L 145.022664 290.503666 
L 145.161027 277.919535 
L 145.437754 283.38931 
L 145.852844 285.582247 
L 146.129571 279.743334 
L 146.406298 283.278787 
L 146.821388 284.342561 
L 146.959752 283.998872 
L 147.374842 288.866332 
L 147.789933 290.065495 
L 147.928296 290.921597 
L 148.066659 291.020084 
L 148.343386 292.246683 
L 148.758477 292.390145 
L 149.035204 292.086367 
L 149.173567 281.388887 
L 149.31193 283.66975 
L 149.727021 285.560257 
L 149.865384 287.260149 
L 150.003748 287.343918 
L 150.142111 282.852998 
L 150.695565 285.081679 
L 150.833928 286.20764 
L 150.972292 285.462235 
L 151.249019 288.694184 
L 151.664109 289.044569 
L 151.940836 290.786438 
L 152.079199 288.666359 
L 152.217563 270.075948 
L 152.632653 274.390528 
L 152.771017 278.12082 
L 153.047743 271.436877 
L 153.186107 273.311574 
L 153.739561 279.109094 
L 154.016288 283.323253 
L 154.154651 285.565376 
L 154.569741 286.745488 
L 154.846468 289.08271 
L 154.984832 283.956246 
L 155.123195 284.715489 
L 155.676649 285.062981 
L 155.953376 288.233797 
L 156.091739 288.427008 
L 156.50683 289.63883 
L 156.645193 289.592792 
L 156.783556 279.068553 
L 157.060283 283.629863 
L 157.475374 282.981332 
L 157.613737 280.822823 
L 157.7521 281.367042 
L 157.890464 277.276899 
L 158.028827 263.935213 
L 158.443918 269.231228 
L 158.720645 276.963038 
L 159.550825 283.332634 
L 159.965916 288.388841 
L 160.381006 283.118457 
L 160.657733 286.711516 
L 160.93446 287.762614 
L 161.34955 287.246354 
L 161.487913 288.768598 
L 161.626277 282.807981 
L 161.76464 282.60404 
L 161.903004 284.906811 
L 162.456458 287.605931 
L 162.594821 288.95131 
L 162.733184 289.020207 
L 162.871548 290.155111 
L 163.425002 287.714214 
L 163.563365 280.213285 
L 163.840092 284.826733 
L 164.255182 284.45596 
L 164.393546 286.478733 
L 164.670273 285.584422 
L 164.808636 285.704818 
L 165.223726 287.484116 
L 165.36209 288.861439 
L 165.500453 288.594299 
L 165.77718 290.794922 
L 166.330634 292.083271 
L 166.745724 293.326147 
L 167.160815 293.617496 
L 167.437542 288.195798 
L 167.714268 284.188324 
L 168.129359 286.274516 
L 168.406086 285.839408 
L 168.544449 284.787703 
L 168.682812 286.754826 
L 169.097903 288.369739 
L 169.236266 283.231987 
L 169.37463 283.365668 
L 169.512993 283.801775 
L 169.651357 285.726505 
L 170.066447 287.295762 
L 170.343174 287.61716 
L 170.619901 289.896323 
L 171.034991 290.899099 
L 171.173354 284.093293 
L 171.450081 287.675456 
L 172.003535 289.30604 
L 172.141899 285.570722 
L 172.280262 286.102843 
L 172.556989 288.346863 
L 172.972079 288.444432 
L 173.110443 284.107741 
L 173.38717 286.628133 
L 173.525533 286.151555 
L 174.078987 288.660562 
L 174.355714 290.701459 
L 174.494077 288.417934 
L 174.909167 289.378911 
L 175.185894 290.958717 
L 175.324258 291.338086 
L 175.462621 289.780367 
L 175.877712 290.107991 
L 176.016075 290.865615 
L 176.154438 290.259813 
L 176.292802 233.813975 
L 176.431165 242.152029 
L 176.846256 248.934092 
L 177.399709 270.101372 
L 177.8148 260.286797 
L 178.091527 269.832644 
L 178.22989 271.68087 
L 178.368254 275.831466 
L 178.783344 279.331969 
L 179.336798 287.760678 
L 179.751888 289.174626 
L 179.890251 290.303978 
L 180.028615 277.848599 
L 180.305342 283.027368 
L 180.720432 284.337449 
L 180.858795 280.272987 
L 180.997159 282.590911 
L 181.135522 281.937621 
L 181.273886 284.158682 
L 181.965703 287.200972 
L 182.104066 286.507715 
L 182.24243 282.757055 
L 182.65752 284.941085 
L 182.795884 282.846766 
L 183.210974 287.894107 
L 183.626064 287.080666 
L 183.764428 288.460666 
L 183.902791 286.074085 
L 184.179518 289.141283 
L 184.594608 246.403107 
L 184.732972 245.049357 
L 185.148062 263.178986 
L 185.563153 268.574518 
L 185.839879 276.296738 
L 185.978243 275.810694 
L 186.531697 279.920602 
L 186.808424 284.846387 
L 186.946787 279.557543 
L 187.08515 282.278735 
L 187.500241 280.854773 
L 187.638604 283.447831 
L 187.776968 282.613292 
L 188.053695 285.503159 
L 188.468785 252.967272 
L 188.883875 268.131949 
L 189.022239 266.367445 
L 189.437329 269.289635 
L 189.714056 277.447713 
L 189.852419 277.298704 
L 189.990783 280.551206 
L 190.544237 283.268959 
L 190.6826 281.12433 
L 190.820963 281.957632 
L 190.959327 284.375698 
L 191.512781 286.731004 
L 191.651144 288.295315 
L 191.789508 288.470391 
L 191.927871 281.611185 
L 192.342961 284.079037 
L 192.758052 289.020161 
L 192.896415 287.086234 
L 193.449869 288.540276 
L 193.726596 290.129065 
L 193.864959 290.056779 
L 194.280049 290.767499 
L 194.556776 291.804264 
L 194.833503 289.240653 
L 195.248594 290.078383 
L 195.52532 291.436077 
L 195.802047 288.585271 
L 196.217138 289.436844 
L 196.493865 290.999014 
L 196.770591 280.468049 
L 197.324045 277.058722 
L 197.600772 279.813816 
L 197.739136 279.022317 
L 198.430953 284.67629 
L 198.70768 287.72612 
L 199.12277 288.968984 
L 199.399497 290.856642 
L 199.53786 290.704966 
L 199.676224 288.823056 
L 200.091314 290.021998 
L 200.229678 289.957028 
L 200.368041 288.72344 
L 200.644768 290.714458 
L 201.059858 291.017956 
L 201.198222 291.788127 
L 201.336585 272.895155 
L 201.474949 272.71186 
L 201.613312 276.640833 
L 202.028402 273.542073 
L 202.581856 283.90813 
L 202.996946 285.528189 
L 203.13531 284.042144 
L 203.412037 287.795827 
L 203.965491 285.767799 
L 204.380581 289.762129 
L 204.518944 290.744071 
L 204.934035 290.66542 
L 205.072398 291.492581 
L 205.349125 290.076893 
L 205.487488 290.818777 
L 206.040942 291.481246 
L 206.179306 291.163296 
L 206.456032 292.132527 
L 206.871123 289.466472 
L 207.009486 290.487726 
L 207.14785 290.501993 
L 207.424577 291.828509 
L 207.839667 287.864652 
L 207.97803 287.824203 
L 208.393121 290.396265 
L 208.808211 290.086836 
L 208.946574 291.025283 
L 209.084938 291.002927 
L 209.223301 291.44702 
L 209.361665 284.871466 
L 209.776755 282.901747 
L 209.915119 281.703055 
L 210.191845 285.541661 
L 210.330209 284.338373 
L 210.745299 284.661351 
L 211.022026 288.222694 
L 211.16039 288.080957 
L 211.298753 286.461135 
L 211.713843 288.100764 
L 211.99057 290.405103 
L 212.267297 290.025049 
L 212.682387 291.007147 
L 212.820751 291.75928 
L 212.959114 289.48413 
L 213.235841 291.066058 
L 213.650932 285.871051 
L 213.789295 280.796484 
L 213.927658 281.640406 
L 214.204385 285.803331 
L 214.619476 285.628639 
L 215.034566 290.020023 
L 215.172929 290.909797 
L 215.58802 288.374232 
L 216.141473 291.241424 
L 216.556564 291.888865 
L 217.110018 288.680084 
L 217.525108 289.829238 
L 217.663471 290.81641 
L 218.078562 289.623633 
L 218.493652 290.669166 
L 218.632015 291.517812 
L 218.770379 283.314047 
L 218.908742 262.839984 
L 219.047106 268.247654 
L 219.462196 272.07671 
L 219.60056 268.137908 
L 220.01565 276.929078 
L 220.43074 280.122996 
L 220.569104 282.44758 
L 220.984194 285.363594 
L 221.399284 287.051236 
L 221.814375 290.731027 
L 221.952738 288.636386 
L 222.506192 290.30371 
L 222.644555 289.785628 
L 222.782919 290.280147 
L 222.921282 289.973461 
L 223.336373 290.836378 
L 223.474736 289.832774 
L 223.613099 290.824574 
L 223.889826 287.434442 
L 224.304917 285.931536 
L 224.581644 288.415837 
L 224.720007 288.640961 
L 224.85837 289.490799 
L 225.273461 290.579145 
L 225.550188 292.112639 
L 225.826915 292.663705 
L 226.242005 292.905173 
L 226.380368 293.213329 
L 226.518732 289.010185 
L 226.795459 290.354808 
L 227.348912 291.707454 
L 227.487276 288.554772 
L 227.625639 274.873501 
L 227.764003 278.375019 
L 228.179093 278.003467 
L 228.317456 279.605418 
L 228.45582 278.127188 
L 228.594183 278.632302 
L 228.732547 281.641933 
L 229.147637 283.812531 
L 229.286001 274.935444 
L 229.424364 258.739956 
L 229.701091 266.020993 
L 230.116181 270.774311 
L 230.254545 274.14116 
L 230.392908 270.690113 
L 230.669635 278.559159 
L 231.084725 281.617242 
L 231.223089 278.380089 
L 231.361452 280.014797 
L 231.499816 180.526326 
L 231.638179 190.572717 
L 232.191633 205.38338 
L 232.329996 218.524049 
L 232.606723 208.688507 
L 233.021814 208.959517 
L 233.29854 179.245398 
L 233.575267 200.186072 
L 233.990358 203.447595 
L 234.128721 216.330981 
L 234.267085 210.513044 
L 234.543811 226.479099 
L 234.958902 236.347089 
L 235.512356 258.217658 
L 235.927446 257.45129 
L 236.065809 241.453491 
L 236.4809 262.686741 
L 236.89599 267.938929 
L 237.034353 271.658394 
L 237.172717 256.342975 
L 237.31108 262.701509 
L 237.449444 258.484697 
L 237.864534 262.40543 
L 238.279624 272.671431 
L 238.417988 272.989234 
L 238.971442 265.572118 
L 239.109805 239.612585 
L 239.248169 239.679361 
L 239.386532 236.670542 
L 239.939986 239.868942 
L 240.078349 241.368548 
L 240.355076 254.183121 
L 240.770166 255.998976 
L 240.90853 254.25924 
L 241.185257 239.108726 
L 241.32362 244.201179 
L 241.73871 251.548344 
L 242.015437 258.954037 
L 242.153801 256.51376 
L 242.292164 262.23294 
L 242.845618 270.044739 
L 243.260708 280.859555 
L 243.814162 283.299883 
L 243.952526 282.678043 
L 244.229252 286.105082 
L 244.782706 287.850398 
L 244.92107 277.472129 
L 245.197797 282.844814 
L 245.612887 278.771446 
L 245.75125 281.565709 
L 245.889614 277.846448 
L 246.166341 282.787253 
L 246.581431 282.177091 
L 246.858158 286.12758 
L 246.996521 280.752454 
L 247.134885 281.767926 
L 247.826702 283.379768 
L 248.103429 286.346404 
L 248.518519 285.438794 
L 248.656883 284.197681 
L 248.795246 225.560506 
L 249.071973 244.49619 
L 249.487063 220.0459 
L 249.76379 235.174716 
L 250.040517 252.041194 
L 250.455607 258.568812 
L 250.593971 263.690052 
L 250.732334 260.804026 
L 250.870698 261.031761 
L 251.424152 268.544246 
L 251.562515 227.941409 
L 251.700878 230.939497 
L 251.839242 209.492315 
L 252.392696 222.088711 
L 252.669422 235.542553 
L 252.946149 243.604262 
L 253.36124 247.134723 
L 253.499603 253.650043 
L 253.637967 253.851991 
L 253.914693 265.398217 
L 254.329784 268.26518 
L 254.744874 279.664284 
L 254.883238 276.859829 
L 255.298328 280.196507 
L 255.436691 279.50133 
L 255.851782 284.486382 
L 256.405235 286.272998 
L 256.681962 288.523292 
L 256.820326 289.708567 
L 257.235416 290.751112 
L 257.512143 291.885862 
L 257.650506 292.278076 
L 257.78887 288.416157 
L 258.20396 288.424129 
L 258.342324 286.886816 
L 258.480687 288.383546 
L 259.172504 283.567329 
L 259.310868 283.290027 
L 259.449231 285.45364 
L 259.587595 283.378684 
L 259.725958 284.326225 
L 260.279412 285.238214 
L 260.417775 286.828024 
L 260.694502 288.196008 
L 261.109593 289.526979 
L 261.247956 289.281458 
L 261.386319 290.315496 
L 261.524683 280.630026 
L 261.663046 283.34005 
L 262.2165 283.877468 
L 262.354864 281.754333 
L 262.493227 282.082426 
L 262.63159 284.333798 
L 263.046681 276.49523 
L 263.600134 286.062981 
L 264.015225 287.447158 
L 264.291952 289.122952 
L 264.568679 290.636597 
L 264.983769 287.663866 
L 265.122132 285.587058 
L 265.398859 288.757736 
L 265.537223 286.116177 
L 265.952313 286.831556 
L 266.090676 287.426826 
L 266.22904 283.282716 
L 266.367403 284.926764 
L 266.505767 284.325676 
L 266.920857 284.959023 
L 267.059221 286.188834 
L 267.197584 285.512518 
L 267.474311 286.598883 
L 268.027765 281.921165 
L 268.304492 285.551681 
L 268.442855 282.400655 
L 268.857945 284.341426 
L 268.996309 281.334997 
L 269.134672 283.318614 
L 269.273036 282.342197 
L 269.411399 284.207049 
L 269.826489 285.233358 
L 270.103216 287.835245 
L 270.24158 289.034805 
L 270.379943 287.623748 
L 270.795034 286.490113 
L 271.07176 289.052036 
L 271.901941 289.086287 
L 272.040305 288.49859 
L 272.178668 288.693542 
L 272.317031 289.607051 
L 272.732122 259.451558 
L 273.285576 271.484946 
L 273.700666 269.141958 
L 273.839029 273.648054 
L 273.977393 274.002366 
L 274.115756 270.548609 
L 274.25412 259.541412 
L 274.66921 254.653535 
L 274.807573 260.159188 
L 274.945937 260.57227 
L 275.222664 268.625208 
L 275.637754 271.92219 
L 276.052844 280.095967 
L 276.191208 278.43354 
L 276.744662 281.511576 
L 276.883025 283.538101 
L 277.159752 277.805924 
L 277.574842 274.30721 
L 277.851569 277.068728 
L 277.989933 278.401427 
L 278.128296 281.00519 
L 278.543386 280.638599 
L 279.09684 287.531824 
L 279.51193 285.493237 
L 279.650294 286.281594 
L 279.927021 276.577564 
L 280.065384 279.21843 
L 280.480475 276.179498 
L 281.033928 285.356467 
L 281.449019 282.706935 
L 281.587382 284.107158 
L 281.725746 282.555228 
L 281.864109 276.470991 
L 282.002472 278.718763 
L 282.555926 278.518825 
L 282.832653 284.12336 
L 283.662834 288.429189 
L 283.801197 287.497695 
L 283.939561 288.973372 
L 284.354651 290.126217 
L 284.493014 290.856884 
L 284.631378 290.286176 
L 284.908105 291.774919 
L 285.323195 291.90018 
L 285.461559 292.142976 
L 285.599922 285.985 
L 285.876649 286.7881 
L 286.291739 284.157022 
L 286.845193 288.671484 
L 287.260283 288.86173 
L 287.398647 289.989303 
L 287.53701 286.350337 
L 287.675374 286.656956 
L 287.813737 287.538966 
L 288.228827 288.142039 
L 288.643918 290.971332 
L 289.197371 289.115329 
L 289.474098 290.207776 
L 289.612462 290.181672 
L 289.750825 290.682131 
L 290.442642 289.75972 
L 290.581006 290.257149 
L 291.272823 290.246574 
L 291.411187 291.053062 
L 291.54955 287.939506 
L 292.103004 289.534146 
L 292.241367 289.148638 
L 292.379731 286.185354 
L 292.518094 286.728244 
L 292.656458 286.517901 
L 293.209911 287.83288 
L 293.348275 286.056686 
L 293.486638 287.801252 
L 293.625002 286.669507 
L 294.040092 287.699362 
L 294.316819 290.092756 
L 294.455182 290.118356 
L 294.593546 289.089683 
L 295.008636 285.125817 
L 295.285363 288.518502 
L 295.423726 289.148232 
L 295.56209 285.574036 
L 295.97718 286.138548 
L 296.115544 287.870313 
L 296.253907 285.853656 
L 296.530634 288.810528 
L 296.945724 289.752095 
L 297.222451 291.290052 
L 297.360815 290.710723 
L 297.499178 291.34648 
L 298.052632 292.109958 
L 298.329359 292.560909 
L 298.467722 291.859906 
L 298.882812 292.456805 
L 299.021176 292.209999 
L 299.159539 292.215706 
L 299.297903 292.738965 
L 299.436266 289.545933 
L 299.851357 290.354669 
L 300.266447 292.519248 
L 300.40481 292.861863 
L 300.819901 293.081406 
L 301.096628 293.617695 
L 301.234991 293.790852 
L 301.373354 293.683781 
L 301.788445 293.711995 
L 301.926808 292.712908 
L 302.203535 292.935265 
L 302.341899 291.288104 
L 302.756989 291.782756 
L 303.033716 292.816455 
L 303.310443 289.592161 
L 303.725533 285.90631 
L 303.863896 280.457008 
L 304.00226 283.176071 
L 304.140623 280.679544 
L 304.278987 283.374451 
L 304.694077 284.40373 
L 304.970804 288.006716 
L 305.109167 286.967863 
L 305.662621 287.803814 
L 305.939348 289.828254 
L 306.077712 286.157579 
L 306.216075 287.330332 
L 306.769529 278.640917 
L 307.046256 283.478831 
L 307.184619 284.605442 
L 307.599709 286.355352 
L 307.738073 287.966979 
L 308.0148 274.7553 
L 308.153163 276.802144 
L 308.568254 278.749143 
L 309.121707 287.427066 
L 309.536798 288.493022 
L 309.813525 284.342792 
L 309.951888 285.025342 
L 310.090251 286.940908 
L 310.643705 288.661311 
L 311.058795 291.310765 
L 311.473886 288.919235 
L 311.612249 289.025692 
L 311.750613 288.202682 
L 312.02734 290.470364 
L 312.580793 291.876518 
L 312.85752 292.903126 
L 312.995884 292.179076 
L 313.410974 288.055397 
L 313.549337 289.406268 
L 313.687701 289.06625 
L 313.964428 289.135545 
L 314.379518 289.725952 
L 314.517882 287.807309 
L 314.656245 287.475696 
L 314.794608 288.254467 
L 314.932972 286.367502 
L 315.348062 286.706324 
L 315.486426 283.670473 
L 315.624789 285.469479 
L 315.763153 282.370532 
L 315.901516 283.740245 
L 316.593333 286.886114 
L 316.731697 285.565188 
L 316.87006 287.370029 
L 317.28515 287.108553 
L 317.700241 290.448642 
L 317.838604 289.409393 
L 318.253695 290.514395 
L 318.392058 291.286816 
L 318.530421 288.168787 
L 318.807148 290.153297 
L 319.222239 289.209332 
L 319.360602 288.072109 
L 319.498966 289.340098 
L 319.637329 284.583985 
L 319.775692 283.874911 
L 320.329146 284.857798 
L 320.46751 286.82369 
L 320.605873 284.097857 
L 320.744237 278.953116 
L 321.159327 281.287844 
L 321.436054 285.991094 
L 321.574417 286.470964 
L 322.127871 287.200097 
L 322.266234 282.689293 
L 322.542961 286.750741 
L 322.681325 284.465834 
L 323.096415 286.496571 
L 323.234778 288.11001 
L 323.511505 281.785659 
L 323.649869 284.264796 
L 324.203323 283.917819 
L 324.341686 284.303508 
L 324.480049 286.116588 
L 324.618413 281.464443 
L 325.033503 281.363382 
L 325.171867 283.947091 
L 325.31023 283.529989 
L 325.448594 284.338081 
L 325.586957 286.398155 
L 326.002047 286.672806 
L 326.555501 290.509812 
L 326.970591 290.723508 
L 327.247318 291.173202 
L 327.385682 290.935644 
L 327.524045 280.592033 
L 327.939136 282.872822 
L 328.354226 288.063761 
L 328.492589 283.483612 
L 329.32277 287.331184 
L 329.461133 282.441492 
L 329.876224 278.014885 
L 330.014587 271.384189 
L 330.429678 280.647463 
L 330.844768 282.856129 
L 331.121495 282.351235 
L 331.259858 280.546127 
L 331.398222 283.068535 
L 331.813312 282.587883 
L 331.951675 284.466283 
L 332.228402 277.089822 
L 332.366766 280.387986 
L 332.92022 279.273824 
L 333.058583 282.097377 
L 333.196946 267.77669 
L 333.33531 272.521828 
L 333.7504 262.418629 
L 334.027127 270.598681 
L 334.165491 270.605481 
L 334.303854 273.608666 
L 334.718944 276.276662 
L 335.272398 284.484081 
L 335.825852 275.771589 
L 335.964215 275.815835 
L 336.102579 268.297076 
L 336.240942 272.064805 
L 336.656032 268.916813 
L 336.932759 276.33933 
L 337.071123 263.79559 
L 337.209486 268.45864 
L 337.624577 273.107155 
L 338.039667 281.409217 
L 338.17803 278.492911 
L 338.593121 280.53233 
L 338.731484 283.232695 
L 338.869848 283.529615 
L 339.146574 278.664001 
L 339.561665 281.141567 
L 339.700028 282.832029 
L 339.976755 284.701789 
L 340.115119 276.300141 
L 340.530209 278.67401 
L 340.668572 281.657001 
L 340.945299 276.211214 
L 341.083663 277.637327 
L 341.637116 280.575325 
L 341.77548 283.127009 
L 341.913843 278.442487 
L 342.052207 279.853258 
L 342.467297 282.647368 
L 342.605661 282.301691 
L 342.744024 283.342905 
L 342.882387 280.463574 
L 343.020751 282.212162 
L 343.435841 284.000881 
L 343.989295 288.450593 
L 344.404385 289.326247 
L 344.681112 291.337292 
L 344.819476 285.899334 
L 344.957839 287.671588 
L 345.372929 289.11093 
L 345.511293 290.154052 
L 345.649656 290.024554 
L 345.926383 277.019374 
L 346.341473 279.481579 
L 346.479837 279.045265 
L 346.756564 284.307451 
L 347.310018 270.328901 
L 347.586744 276.6281 
L 347.725108 277.362013 
L 347.863471 279.036704 
L 348.832015 286.139752 
L 349.385469 288.177357 
L 349.662196 289.86436 
L 349.80056 290.798253 
L 350.21565 286.729886 
L 350.492377 288.768505 
L 350.63074 289.949366 
L 350.769104 290.098446 
L 351.322557 284.705172 
L 351.460921 266.38493 
L 351.737648 273.837115 
L 352.152738 277.43122 
L 352.567828 284.284111 
L 352.706192 286.219628 
L 353.121282 287.552507 
L 353.398009 289.505265 
L 353.536373 285.912667 
L 353.674736 287.682978 
L 354.089826 288.660796 
L 354.504917 291.592257 
L 355.196734 289.895265 
L 355.335097 290.903268 
L 355.473461 290.641419 
L 355.611824 280.776497 
L 356.026915 283.332138 
L 356.165278 285.350519 
L 356.303641 278.180848 
L 356.580368 283.532085 
L 356.995459 271.892472 
L 357.133822 275.990143 
L 357.272186 274.168153 
L 357.548912 280.878649 
L 358.379093 284.969924 
L 358.517456 286.90091 
L 358.932547 286.72386 
L 359.209274 288.543003 
L 359.347637 288.071231 
L 359.486001 289.429923 
L 359.901091 290.08793 
L 360.177818 291.264234 
L 360.316181 291.982062 
L 360.454545 291.47147 
L 360.869635 289.51007 
L 361.007998 290.576959 
L 361.146362 290.081718 
L 361.423089 291.674587 
L 362.114906 284.063325 
L 362.253269 285.619126 
L 362.391633 284.052465 
L 362.806723 285.886781 
L 362.945087 275.444938 
L 363.08345 278.503737 
L 363.360177 280.418618 
L 363.775267 279.566183 
L 364.051994 283.594279 
L 364.328721 287.550214 
L 364.882175 289.224148 
L 365.297265 291.749195 
L 365.712356 292.307968 
L 365.850719 291.046652 
L 365.989082 290.851498 
L 366.127446 291.057932 
L 366.265809 271.65455 
L 366.6809 251.807271 
L 366.819263 258.750039 
L 366.957627 240.464043 
L 367.09599 248.891433 
L 367.234353 241.685983 
L 367.649444 229.91374 
L 367.787807 238.858413 
L 367.926171 229.775343 
L 368.202898 246.273747 
L 368.617988 253.623038 
L 369.033078 269.434206 
L 369.171442 271.291665 
L 369.586532 253.330533 
L 369.724895 258.925213 
L 369.863259 250.990136 
L 370.139986 263.659702 
L 370.555076 264.853304 
L 370.831803 271.414723 
L 370.970166 270.705795 
L 371.10853 263.97022 
L 371.52362 268.779739 
L 371.661984 260.477322 
L 371.93871 268.469335 
L 372.077074 268.994764 
L 372.492164 271.885784 
L 372.768891 279.198293 
L 372.907255 221.119227 
L 373.045618 231.214678 
L 373.460708 241.018344 
L 373.599072 249.421274 
L 373.737435 250.504478 
L 374.014162 263.755727 
L 374.429252 269.083285 
L 374.567616 262.465687 
L 374.844343 272.356305 
L 374.982706 269.844345 
L 375.397797 266.270283 
L 375.95125 278.709621 
L 376.366341 278.02717 
L 376.781431 285.525265 
L 376.919794 287.291312 
L 377.334885 288.588376 
L 377.473248 289.478604 
L 377.611612 289.249023 
L 377.888339 285.072537 
L 378.303429 284.791918 
L 378.441792 284.88538 
L 378.856883 289.717667 
L 379.271973 288.555753 
L 379.5487 290.456082 
L 379.687063 289.991057 
L 379.825427 283.119591 
L 380.240517 284.238636 
L 380.378881 286.271589 
L 380.517244 284.805801 
L 380.655607 285.608208 
L 380.793971 287.429764 
L 381.209061 286.800875 
L 381.485788 289.476083 
L 381.624152 289.655617 
L 381.762515 287.755634 
L 382.177605 288.905444 
L 382.315969 284.462649 
L 382.454332 284.607264 
L 382.731059 287.795191 
L 383.146149 286.163162 
L 383.284513 287.640761 
L 383.422876 276.831852 
L 383.56124 278.169501 
L 383.699603 271.028416 
L 384.253057 264.633705 
L 384.39142 254.808245 
L 384.529784 256.795231 
L 384.668147 249.129859 
L 385.083238 250.953405 
L 385.498328 266.981379 
L 385.636691 271.706307 
L 386.051782 274.870421 
L 386.190145 277.378245 
L 386.328509 262.947658 
L 386.605235 272.663174 
L 387.020326 275.090666 
L 387.158689 274.797957 
L 387.297053 276.942045 
L 387.435416 244.347757 
L 387.57378 243.045639 
L 387.98887 251.001281 
L 388.542324 268.907099 
L 388.957414 266.001355 
L 389.095777 246.211716 
L 389.234141 244.370482 
L 389.510868 259.089465 
L 389.925958 264.970663 
L 390.341048 274.957669 
L 390.894502 276.3838 
L 391.032866 277.463032 
L 391.171229 280.208981 
L 391.171229 280.208981 
" clip-path="url(#pdc8f0c826f)" style="fill: none; stroke: #1f77b4; stroke-width: 1.5; stroke-linecap: square"/>
   </g>
   <g id="patch_8">
    <path d="M 38.482813 299.518125 
L 38.482813 173.518125 
" style="fill: none; stroke: #000000; stroke-width: 0.8; stroke-linejoin: miter; stroke-linecap: square"/>
   </g>
   <g id="patch_9">
    <path d="M 429.082813 299.518125 
L 429.082813 173.518125 
" style="fill: none; stroke: #000000; stroke-width: 0.8; stroke-linejoin: miter; stroke-linecap: square"/>
   </g>
   <g id="patch_10">
    <path d="M 38.482812 299.518125 
L 429.082812 299.518125 
" style="fill: none; stroke: #000000; stroke-width: 0.8; stroke-linejoin: miter; stroke-linecap: square"/>
   </g>
   <g id="patch_11">
    <path d="M 38.482812 173.518125 
L 429.082812 173.518125 
" style="fill: none; stroke: #000000; stroke-width: 0.8; stroke-linejoin: miter; stroke-linecap: square"/>
   </g>
   <g id="text_19">
    <!-- Conditional Volatility -->
    <g transform="translate(171.989375 167.518125) scale(0.12 -0.12)">
     <defs>
      <path id="DejaVuSans-43" d="M 4122 4306 
L 4122 3641 
Q 3803 3938 3442 4084 
Q 3081 4231 2675 4231 
Q 1875 4231 1450 3742 
Q 1025 3253 1025 2328 
Q 1025 1406 1450 917 
Q 1875 428 2675 428 
Q 3081 428 3442 575 
Q 3803 722 4122 1019 
L 4122 359 
Q 3791 134 3420 21 
Q 3050 -91 2638 -91 
Q 1578 -91 968 557 
Q 359 1206 359 2328 
Q 359 3453 968 4101 
Q 1578 4750 2638 4750 
Q 3056 4750 3426 4639 
Q 3797 4528 4122 4306 
z
" transform="scale(0.015625)"/>
      <path id="DejaVuSans-6f" d="M 1959 3097 
Q 1497 3097 1228 2736 
Q 959 2375 959 1747 
Q 959 1119 1226 758 
Q 1494 397 1959 397 
Q 2419 397 2687 759 
Q 2956 1122 2956 1747 
Q 2956 2369 2687 2733 
Q 2419 3097 1959 3097 
z
M 1959 3584 
Q 2709 3584 3137 3096 
Q 3566 2609 3566 1747 
Q 3566 888 3137 398 
Q 2709 -91 1959 -91 
Q 1206 -91 779 398 
Q 353 888 353 1747 
Q 353 2609 779 3096 
Q 1206 3584 1959 3584 
z
" transform="scale(0.015625)"/>
      <path id="DejaVuSans-56" d="M 1831 0 
L 50 4666 
L 709 4666 
L 2188 738 
L 3669 4666 
L 4325 4666 
L 2547 0 
L 1831 0 
z
" transform="scale(0.015625)"/>
      <path id="DejaVuSans-79" d="M 2059 -325 
Q 1816 -950 1584 -1140 
Q 1353 -1331 966 -1331 
L 506 -1331 
L 506 -850 
L 844 -850 
Q 1081 -850 1212 -737 
Q 1344 -625 1503 -206 
L 1606 56 
L 191 3500 
L 800 3500 
L 1894 763 
L 2988 3500 
L 3597 3500 
L 2059 -325 
z
" transform="scale(0.015625)"/>
     </defs>
     <use xlink:href="#DejaVuSans-43"/>
     <use xlink:href="#DejaVuSans-6f" x="69.824219"/>
     <use xlink:href="#DejaVuSans-6e" x="131.005859"/>
     <use xlink:href="#DejaVuSans-64" x="194.384766"/>
     <use xlink:href="#DejaVuSans-69" x="257.861328"/>
     <use xlink:href="#DejaVuSans-74" x="285.644531"/>
     <use xlink:href="#DejaVuSans-69" x="324.853516"/>
     <use xlink:href="#DejaVuSans-6f" x="352.636719"/>
     <use xlink:href="#DejaVuSans-6e" x="413.818359"/>
     <use xlink:href="#DejaVuSans-61" x="477.197266"/>
     <use xlink:href="#DejaVuSans-6c" x="538.476562"/>
     <use xlink:href="#DejaVuSans-20" x="566.259766"/>
     <use xlink:href="#DejaVuSans-56" x="598.046875"/>
     <use xlink:href="#DejaVuSans-6f" x="658.705078"/>
     <use xlink:href="#DejaVuSans-6c" x="719.886719"/>
     <use xlink:href="#DejaVuSans-61" x="747.669922"/>
     <use xlink:href="#DejaVuSans-74" x="808.949219"/>
     <use xlink:href="#DejaVuSans-69" x="848.158203"/>
     <use xlink:href="#DejaVuSans-6c" x="875.941406"/>
     <use xlink:href="#DejaVuSans-69" x="903.724609"/>
     <use xlink:href="#DejaVuSans-74" x="931.507812"/>
     <use xlink:href="#DejaVuSans-79" x="970.716797"/>
    </g>
   </g>
  </g>
 </g>
 <defs>
  <clipPath id="pcb1ab3c096">
   <rect x="38.482813" y="22.318125" width="390.6" height="126"/>
  </clipPath>
  <clipPath id="pdc8f0c826f">
   <rect x="38.482813" y="173.518125" width="390.6" height="126"/>
  </clipPath>
 </defs>
</svg>
