<?xml version="1.0" encoding="utf-8" standalone="no"?>
<!DOCTYPE svg PUBLIC "-//W3C//DTD SVG 1.1//EN"
  "http://www.w3.org/Graphics/SVG/1.1/DTD/svg11.dtd">
<svg xmlns:xlink="http://www.w3.org/1999/xlink" width="732.145312pt" height="585.478125pt" viewBox="0 0 732.145312 585.478125" xmlns="http://www.w3.org/2000/svg" version="1.1">
 <metadata>
  <rdf:RDF xmlns:dc="http://purl.org/dc/elements/1.1/" xmlns:cc="http://creativecommons.org/ns#" xmlns:rdf="http://www.w3.org/1999/02/22-rdf-syntax-ns#">
   <cc:Work>
    <dc:type rdf:resource="http://purl.org/dc/dcmitype/StillImage"/>
    <dc:date>2024-10-19T16:08:42.206954</dc:date>
    <dc:format>image/svg+xml</dc:format>
    <dc:creator>
     <cc:Agent>
      <dc:title>Matplotlib v3.8.4, https://matplotlib.org/</dc:title>
     </cc:Agent>
    </dc:creator>
   </cc:Work>
  </rdf:RDF>
 </metadata>
 <defs>
  <style type="text/css">*{stroke-linejoin: round; stroke-linecap: butt}</style>
 </defs>
 <g id="figure_1">
  <g id="patch_1">
   <path d="M 0 585.478125 
L 732.145312 585.478125 
L 732.145312 0 
L 0 0 
z
" style="fill: #ffffff"/>
  </g>
  <g id="axes_1">
   <g id="patch_2">
    <path d="M 55.345313 561.6 
L 724.945312 561.6 
L 724.945312 7.2 
L 55.345313 7.2 
z
" style="fill: #ffffff"/>
   </g>
   <g id="matplotlib.axis_1">
    <g id="xtick_1">
     <g id="line2d_1">
      <defs>
       <path id="m47ccc800ca" d="M 0 0 
L 0 3.5 
" style="stroke: #000000; stroke-width: 0.8"/>
      </defs>
      <g>
       <use xlink:href="#m47ccc800ca" x="140.498129" y="561.6" style="stroke: #000000; stroke-width: 0.8"/>
      </g>
     </g>
     <g id="text_1">
      <!-- 2015 -->
      <g transform="translate(127.773129 576.198438) scale(0.1 -0.1)">
       <defs>
        <path id="DejaVuSans-32" d="M 1228 531 
L 3431 531 
L 3431 0 
L 469 0 
L 469 531 
Q 828 903 1448 1529 
Q 2069 2156 2228 2338 
Q 2531 2678 2651 2914 
Q 2772 3150 2772 3378 
Q 2772 3750 2511 3984 
Q 2250 4219 1831 4219 
Q 1534 4219 1204 4116 
Q 875 4013 500 3803 
L 500 4441 
Q 881 4594 1212 4672 
Q 1544 4750 1819 4750 
Q 2544 4750 2975 4387 
Q 3406 4025 3406 3419 
Q 3406 3131 3298 2873 
Q 3191 2616 2906 2266 
Q 2828 2175 2409 1742 
Q 1991 1309 1228 531 
z
" transform="scale(0.015625)"/>
        <path id="DejaVuSans-30" d="M 2034 4250 
Q 1547 4250 1301 3770 
Q 1056 3291 1056 2328 
Q 1056 1369 1301 889 
Q 1547 409 2034 409 
Q 2525 409 2770 889 
Q 3016 1369 3016 2328 
Q 3016 3291 2770 3770 
Q 2525 4250 2034 4250 
z
M 2034 4750 
Q 2819 4750 3233 4129 
Q 3647 3509 3647 2328 
Q 3647 1150 3233 529 
Q 2819 -91 2034 -91 
Q 1250 -91 836 529 
Q 422 1150 422 2328 
Q 422 3509 836 4129 
Q 1250 4750 2034 4750 
z
" transform="scale(0.015625)"/>
        <path id="DejaVuSans-31" d="M 794 531 
L 1825 531 
L 1825 4091 
L 703 3866 
L 703 4441 
L 1819 4666 
L 2450 4666 
L 2450 531 
L 3481 531 
L 3481 0 
L 794 0 
L 794 531 
z
" transform="scale(0.015625)"/>
        <path id="DejaVuSans-35" d="M 691 4666 
L 3169 4666 
L 3169 4134 
L 1269 4134 
L 1269 2991 
Q 1406 3038 1543 3061 
Q 1681 3084 1819 3084 
Q 2600 3084 3056 2656 
Q 3513 2228 3513 1497 
Q 3513 744 3044 326 
Q 2575 -91 1722 -91 
Q 1428 -91 1123 -41 
Q 819 9 494 109 
L 494 744 
Q 775 591 1075 516 
Q 1375 441 1709 441 
Q 2250 441 2565 725 
Q 2881 1009 2881 1497 
Q 2881 1984 2565 2268 
Q 2250 2553 1709 2553 
Q 1456 2553 1204 2497 
Q 953 2441 691 2322 
L 691 4666 
z
" transform="scale(0.015625)"/>
       </defs>
       <use xlink:href="#DejaVuSans-32"/>
       <use xlink:href="#DejaVuSans-30" x="63.623047"/>
       <use xlink:href="#DejaVuSans-31" x="127.246094"/>
       <use xlink:href="#DejaVuSans-35" x="190.869141"/>
      </g>
     </g>
    </g>
    <g id="xtick_2">
     <g id="line2d_2">
      <g>
       <use xlink:href="#m47ccc800ca" x="227.074112" y="561.6" style="stroke: #000000; stroke-width: 0.8"/>
      </g>
     </g>
     <g id="text_2">
      <!-- 2016 -->
      <g transform="translate(214.349112 576.198438) scale(0.1 -0.1)">
       <defs>
        <path id="DejaVuSans-36" d="M 2113 2584 
Q 1688 2584 1439 2293 
Q 1191 2003 1191 1497 
Q 1191 994 1439 701 
Q 1688 409 2113 409 
Q 2538 409 2786 701 
Q 3034 994 3034 1497 
Q 3034 2003 2786 2293 
Q 2538 2584 2113 2584 
z
M 3366 4563 
L 3366 3988 
Q 3128 4100 2886 4159 
Q 2644 4219 2406 4219 
Q 1781 4219 1451 3797 
Q 1122 3375 1075 2522 
Q 1259 2794 1537 2939 
Q 1816 3084 2150 3084 
Q 2853 3084 3261 2657 
Q 3669 2231 3669 1497 
Q 3669 778 3244 343 
Q 2819 -91 2113 -91 
Q 1303 -91 875 529 
Q 447 1150 447 2328 
Q 447 3434 972 4092 
Q 1497 4750 2381 4750 
Q 2619 4750 2861 4703 
Q 3103 4656 3366 4563 
z
" transform="scale(0.015625)"/>
       </defs>
       <use xlink:href="#DejaVuSans-32"/>
       <use xlink:href="#DejaVuSans-30" x="63.623047"/>
       <use xlink:href="#DejaVuSans-31" x="127.246094"/>
       <use xlink:href="#DejaVuSans-36" x="190.869141"/>
      </g>
     </g>
    </g>
    <g id="xtick_3">
     <g id="line2d_3">
      <g>
       <use xlink:href="#m47ccc800ca" x="313.887289" y="561.6" style="stroke: #000000; stroke-width: 0.8"/>
      </g>
     </g>
     <g id="text_3">
      <!-- 2017 -->
      <g transform="translate(301.162289 576.198438) scale(0.1 -0.1)">
       <defs>
        <path id="DejaVuSans-37" d="M 525 4666 
L 3525 4666 
L 3525 4397 
L 1831 0 
L 1172 0 
L 2766 4134 
L 525 4134 
L 525 4666 
z
" transform="scale(0.015625)"/>
       </defs>
       <use xlink:href="#DejaVuSans-32"/>
       <use xlink:href="#DejaVuSans-30" x="63.623047"/>
       <use xlink:href="#DejaVuSans-31" x="127.246094"/>
       <use xlink:href="#DejaVuSans-37" x="190.869141"/>
      </g>
     </g>
    </g>
    <g id="xtick_4">
     <g id="line2d_4">
      <g>
       <use xlink:href="#m47ccc800ca" x="400.463272" y="561.6" style="stroke: #000000; stroke-width: 0.8"/>
      </g>
     </g>
     <g id="text_4">
      <!-- 2018 -->
      <g transform="translate(387.738272 576.198438) scale(0.1 -0.1)">
       <defs>
        <path id="DejaVuSans-38" d="M 2034 2216 
Q 1584 2216 1326 1975 
Q 1069 1734 1069 1313 
Q 1069 891 1326 650 
Q 1584 409 2034 409 
Q 2484 409 2743 651 
Q 3003 894 3003 1313 
Q 3003 1734 2745 1975 
Q 2488 2216 2034 2216 
z
M 1403 2484 
Q 997 2584 770 2862 
Q 544 3141 544 3541 
Q 544 4100 942 4425 
Q 1341 4750 2034 4750 
Q 2731 4750 3128 4425 
Q 3525 4100 3525 3541 
Q 3525 3141 3298 2862 
Q 3072 2584 2669 2484 
Q 3125 2378 3379 2068 
Q 3634 1759 3634 1313 
Q 3634 634 3220 271 
Q 2806 -91 2034 -91 
Q 1263 -91 848 271 
Q 434 634 434 1313 
Q 434 1759 690 2068 
Q 947 2378 1403 2484 
z
M 1172 3481 
Q 1172 3119 1398 2916 
Q 1625 2713 2034 2713 
Q 2441 2713 2670 2916 
Q 2900 3119 2900 3481 
Q 2900 3844 2670 4047 
Q 2441 4250 2034 4250 
Q 1625 4250 1398 4047 
Q 1172 3844 1172 3481 
z
" transform="scale(0.015625)"/>
       </defs>
       <use xlink:href="#DejaVuSans-32"/>
       <use xlink:href="#DejaVuSans-30" x="63.623047"/>
       <use xlink:href="#DejaVuSans-31" x="127.246094"/>
       <use xlink:href="#DejaVuSans-38" x="190.869141"/>
      </g>
     </g>
    </g>
    <g id="xtick_5">
     <g id="line2d_5">
      <g>
       <use xlink:href="#m47ccc800ca" x="487.039255" y="561.6" style="stroke: #000000; stroke-width: 0.8"/>
      </g>
     </g>
     <g id="text_5">
      <!-- 2019 -->
      <g transform="translate(474.314255 576.198438) scale(0.1 -0.1)">
       <defs>
        <path id="DejaVuSans-39" d="M 703 97 
L 703 672 
Q 941 559 1184 500 
Q 1428 441 1663 441 
Q 2288 441 2617 861 
Q 2947 1281 2994 2138 
Q 2813 1869 2534 1725 
Q 2256 1581 1919 1581 
Q 1219 1581 811 2004 
Q 403 2428 403 3163 
Q 403 3881 828 4315 
Q 1253 4750 1959 4750 
Q 2769 4750 3195 4129 
Q 3622 3509 3622 2328 
Q 3622 1225 3098 567 
Q 2575 -91 1691 -91 
Q 1453 -91 1209 -44 
Q 966 3 703 97 
z
M 1959 2075 
Q 2384 2075 2632 2365 
Q 2881 2656 2881 3163 
Q 2881 3666 2632 3958 
Q 2384 4250 1959 4250 
Q 1534 4250 1286 3958 
Q 1038 3666 1038 3163 
Q 1038 2656 1286 2365 
Q 1534 2075 1959 2075 
z
" transform="scale(0.015625)"/>
       </defs>
       <use xlink:href="#DejaVuSans-32"/>
       <use xlink:href="#DejaVuSans-30" x="63.623047"/>
       <use xlink:href="#DejaVuSans-31" x="127.246094"/>
       <use xlink:href="#DejaVuSans-39" x="190.869141"/>
      </g>
     </g>
    </g>
    <g id="xtick_6">
     <g id="line2d_6">
      <g>
       <use xlink:href="#m47ccc800ca" x="573.615238" y="561.6" style="stroke: #000000; stroke-width: 0.8"/>
      </g>
     </g>
     <g id="text_6">
      <!-- 2020 -->
      <g transform="translate(560.890238 576.198438) scale(0.1 -0.1)">
       <use xlink:href="#DejaVuSans-32"/>
       <use xlink:href="#DejaVuSans-30" x="63.623047"/>
       <use xlink:href="#DejaVuSans-32" x="127.246094"/>
       <use xlink:href="#DejaVuSans-30" x="190.869141"/>
      </g>
     </g>
    </g>
    <g id="xtick_7">
     <g id="line2d_7">
      <g>
       <use xlink:href="#m47ccc800ca" x="660.428416" y="561.6" style="stroke: #000000; stroke-width: 0.8"/>
      </g>
     </g>
     <g id="text_7">
      <!-- 2021 -->
      <g transform="translate(647.703416 576.198438) scale(0.1 -0.1)">
       <use xlink:href="#DejaVuSans-32"/>
       <use xlink:href="#DejaVuSans-30" x="63.623047"/>
       <use xlink:href="#DejaVuSans-32" x="127.246094"/>
       <use xlink:href="#DejaVuSans-31" x="190.869141"/>
      </g>
     </g>
    </g>
   </g>
   <g id="matplotlib.axis_2">
    <g id="ytick_1">
     <g id="line2d_8">
      <defs>
       <path id="m1106e7d2cc" d="M 0 0 
L -3.5 0 
" style="stroke: #000000; stroke-width: 0.8"/>
      </defs>
      <g>
       <use xlink:href="#m1106e7d2cc" x="55.345313" y="493.11825" style="stroke: #000000; stroke-width: 0.8"/>
      </g>
     </g>
     <g id="text_8">
      <!-- −100 -->
      <g transform="translate(20.878125 496.917469) scale(0.1 -0.1)">
       <defs>
        <path id="DejaVuSans-2212" d="M 678 2272 
L 4684 2272 
L 4684 1741 
L 678 1741 
L 678 2272 
z
" transform="scale(0.015625)"/>
       </defs>
       <use xlink:href="#DejaVuSans-2212"/>
       <use xlink:href="#DejaVuSans-31" x="83.789062"/>
       <use xlink:href="#DejaVuSans-30" x="147.412109"/>
       <use xlink:href="#DejaVuSans-30" x="211.035156"/>
      </g>
     </g>
    </g>
    <g id="ytick_2">
     <g id="line2d_9">
      <g>
       <use xlink:href="#m1106e7d2cc" x="55.345313" y="414.005547" style="stroke: #000000; stroke-width: 0.8"/>
      </g>
     </g>
     <g id="text_9">
      <!-- −50 -->
      <g transform="translate(27.240625 417.804766) scale(0.1 -0.1)">
       <use xlink:href="#DejaVuSans-2212"/>
       <use xlink:href="#DejaVuSans-35" x="83.789062"/>
       <use xlink:href="#DejaVuSans-30" x="147.412109"/>
      </g>
     </g>
    </g>
    <g id="ytick_3">
     <g id="line2d_10">
      <g>
       <use xlink:href="#m1106e7d2cc" x="55.345313" y="334.892844" style="stroke: #000000; stroke-width: 0.8"/>
      </g>
     </g>
     <g id="text_10">
      <!-- 0 -->
      <g transform="translate(41.982813 338.692063) scale(0.1 -0.1)">
       <use xlink:href="#DejaVuSans-30"/>
      </g>
     </g>
    </g>
    <g id="ytick_4">
     <g id="line2d_11">
      <g>
       <use xlink:href="#m1106e7d2cc" x="55.345313" y="255.780142" style="stroke: #000000; stroke-width: 0.8"/>
      </g>
     </g>
     <g id="text_11">
      <!-- 50 -->
      <g transform="translate(35.620313 259.57936) scale(0.1 -0.1)">
       <use xlink:href="#DejaVuSans-35"/>
       <use xlink:href="#DejaVuSans-30" x="63.623047"/>
      </g>
     </g>
    </g>
    <g id="ytick_5">
     <g id="line2d_12">
      <g>
       <use xlink:href="#m1106e7d2cc" x="55.345313" y="176.667439" style="stroke: #000000; stroke-width: 0.8"/>
      </g>
     </g>
     <g id="text_12">
      <!-- 100 -->
      <g transform="translate(29.257813 180.466657) scale(0.1 -0.1)">
       <use xlink:href="#DejaVuSans-31"/>
       <use xlink:href="#DejaVuSans-30" x="63.623047"/>
       <use xlink:href="#DejaVuSans-30" x="127.246094"/>
      </g>
     </g>
    </g>
    <g id="ytick_6">
     <g id="line2d_13">
      <g>
       <use xlink:href="#m1106e7d2cc" x="55.345313" y="97.554736" style="stroke: #000000; stroke-width: 0.8"/>
      </g>
     </g>
     <g id="text_13">
      <!-- 150 -->
      <g transform="translate(29.257813 101.353954) scale(0.1 -0.1)">
       <use xlink:href="#DejaVuSans-31"/>
       <use xlink:href="#DejaVuSans-35" x="63.623047"/>
       <use xlink:href="#DejaVuSans-30" x="127.246094"/>
      </g>
     </g>
    </g>
    <g id="ytick_7">
     <g id="line2d_14">
      <g>
       <use xlink:href="#m1106e7d2cc" x="55.345313" y="18.442033" style="stroke: #000000; stroke-width: 0.8"/>
      </g>
     </g>
     <g id="text_14">
      <!-- 200 -->
      <g transform="translate(29.257813 22.241252) scale(0.1 -0.1)">
       <use xlink:href="#DejaVuSans-32"/>
       <use xlink:href="#DejaVuSans-30" x="63.623047"/>
       <use xlink:href="#DejaVuSans-30" x="127.246094"/>
      </g>
     </g>
    </g>
    <g id="text_15">
     <!-- Retorno Precio (BPS) -->
     <g transform="translate(14.798438 335.785156) rotate(-90) scale(0.1 -0.1)">
      <defs>
       <path id="DejaVuSans-52" d="M 2841 2188 
Q 3044 2119 3236 1894 
Q 3428 1669 3622 1275 
L 4263 0 
L 3584 0 
L 2988 1197 
Q 2756 1666 2539 1819 
Q 2322 1972 1947 1972 
L 1259 1972 
L 1259 0 
L 628 0 
L 628 4666 
L 2053 4666 
Q 2853 4666 3247 4331 
Q 3641 3997 3641 3322 
Q 3641 2881 3436 2590 
Q 3231 2300 2841 2188 
z
M 1259 4147 
L 1259 2491 
L 2053 2491 
Q 2509 2491 2742 2702 
Q 2975 2913 2975 3322 
Q 2975 3731 2742 3939 
Q 2509 4147 2053 4147 
L 1259 4147 
z
" transform="scale(0.015625)"/>
       <path id="DejaVuSans-65" d="M 3597 1894 
L 3597 1613 
L 953 1613 
Q 991 1019 1311 708 
Q 1631 397 2203 397 
Q 2534 397 2845 478 
Q 3156 559 3463 722 
L 3463 178 
Q 3153 47 2828 -22 
Q 2503 -91 2169 -91 
Q 1331 -91 842 396 
Q 353 884 353 1716 
Q 353 2575 817 3079 
Q 1281 3584 2069 3584 
Q 2775 3584 3186 3129 
Q 3597 2675 3597 1894 
z
M 3022 2063 
Q 3016 2534 2758 2815 
Q 2500 3097 2075 3097 
Q 1594 3097 1305 2825 
Q 1016 2553 972 2059 
L 3022 2063 
z
" transform="scale(0.015625)"/>
       <path id="DejaVuSans-74" d="M 1172 4494 
L 1172 3500 
L 2356 3500 
L 2356 3053 
L 1172 3053 
L 1172 1153 
Q 1172 725 1289 603 
Q 1406 481 1766 481 
L 2356 481 
L 2356 0 
L 1766 0 
Q 1100 0 847 248 
Q 594 497 594 1153 
L 594 3053 
L 172 3053 
L 172 3500 
L 594 3500 
L 594 4494 
L 1172 4494 
z
" transform="scale(0.015625)"/>
       <path id="DejaVuSans-6f" d="M 1959 3097 
Q 1497 3097 1228 2736 
Q 959 2375 959 1747 
Q 959 1119 1226 758 
Q 1494 397 1959 397 
Q 2419 397 2687 759 
Q 2956 1122 2956 1747 
Q 2956 2369 2687 2733 
Q 2419 3097 1959 3097 
z
M 1959 3584 
Q 2709 3584 3137 3096 
Q 3566 2609 3566 1747 
Q 3566 888 3137 398 
Q 2709 -91 1959 -91 
Q 1206 -91 779 398 
Q 353 888 353 1747 
Q 353 2609 779 3096 
Q 1206 3584 1959 3584 
z
" transform="scale(0.015625)"/>
       <path id="DejaVuSans-72" d="M 2631 2963 
Q 2534 3019 2420 3045 
Q 2306 3072 2169 3072 
Q 1681 3072 1420 2755 
Q 1159 2438 1159 1844 
L 1159 0 
L 581 0 
L 581 3500 
L 1159 3500 
L 1159 2956 
Q 1341 3275 1631 3429 
Q 1922 3584 2338 3584 
Q 2397 3584 2469 3576 
Q 2541 3569 2628 3553 
L 2631 2963 
z
" transform="scale(0.015625)"/>
       <path id="DejaVuSans-6e" d="M 3513 2113 
L 3513 0 
L 2938 0 
L 2938 2094 
Q 2938 2591 2744 2837 
Q 2550 3084 2163 3084 
Q 1697 3084 1428 2787 
Q 1159 2491 1159 1978 
L 1159 0 
L 581 0 
L 581 3500 
L 1159 3500 
L 1159 2956 
Q 1366 3272 1645 3428 
Q 1925 3584 2291 3584 
Q 2894 3584 3203 3211 
Q 3513 2838 3513 2113 
z
" transform="scale(0.015625)"/>
       <path id="DejaVuSans-20" transform="scale(0.015625)"/>
       <path id="DejaVuSans-50" d="M 1259 4147 
L 1259 2394 
L 2053 2394 
Q 2494 2394 2734 2622 
Q 2975 2850 2975 3272 
Q 2975 3691 2734 3919 
Q 2494 4147 2053 4147 
L 1259 4147 
z
M 628 4666 
L 2053 4666 
Q 2838 4666 3239 4311 
Q 3641 3956 3641 3272 
Q 3641 2581 3239 2228 
Q 2838 1875 2053 1875 
L 1259 1875 
L 1259 0 
L 628 0 
L 628 4666 
z
" transform="scale(0.015625)"/>
       <path id="DejaVuSans-63" d="M 3122 3366 
L 3122 2828 
Q 2878 2963 2633 3030 
Q 2388 3097 2138 3097 
Q 1578 3097 1268 2742 
Q 959 2388 959 1747 
Q 959 1106 1268 751 
Q 1578 397 2138 397 
Q 2388 397 2633 464 
Q 2878 531 3122 666 
L 3122 134 
Q 2881 22 2623 -34 
Q 2366 -91 2075 -91 
Q 1284 -91 818 406 
Q 353 903 353 1747 
Q 353 2603 823 3093 
Q 1294 3584 2113 3584 
Q 2378 3584 2631 3529 
Q 2884 3475 3122 3366 
z
" transform="scale(0.015625)"/>
       <path id="DejaVuSans-69" d="M 603 3500 
L 1178 3500 
L 1178 0 
L 603 0 
L 603 3500 
z
M 603 4863 
L 1178 4863 
L 1178 4134 
L 603 4134 
L 603 4863 
z
" transform="scale(0.015625)"/>
       <path id="DejaVuSans-28" d="M 1984 4856 
Q 1566 4138 1362 3434 
Q 1159 2731 1159 2009 
Q 1159 1288 1364 580 
Q 1569 -128 1984 -844 
L 1484 -844 
Q 1016 -109 783 600 
Q 550 1309 550 2009 
Q 550 2706 781 3412 
Q 1013 4119 1484 4856 
L 1984 4856 
z
" transform="scale(0.015625)"/>
       <path id="DejaVuSans-42" d="M 1259 2228 
L 1259 519 
L 2272 519 
Q 2781 519 3026 730 
Q 3272 941 3272 1375 
Q 3272 1813 3026 2020 
Q 2781 2228 2272 2228 
L 1259 2228 
z
M 1259 4147 
L 1259 2741 
L 2194 2741 
Q 2656 2741 2882 2914 
Q 3109 3088 3109 3444 
Q 3109 3797 2882 3972 
Q 2656 4147 2194 4147 
L 1259 4147 
z
M 628 4666 
L 2241 4666 
Q 2963 4666 3353 4366 
Q 3744 4066 3744 3513 
Q 3744 3084 3544 2831 
Q 3344 2578 2956 2516 
Q 3422 2416 3680 2098 
Q 3938 1781 3938 1306 
Q 3938 681 3513 340 
Q 3088 0 2303 0 
L 628 0 
L 628 4666 
z
" transform="scale(0.015625)"/>
       <path id="DejaVuSans-53" d="M 3425 4513 
L 3425 3897 
Q 3066 4069 2747 4153 
Q 2428 4238 2131 4238 
Q 1616 4238 1336 4038 
Q 1056 3838 1056 3469 
Q 1056 3159 1242 3001 
Q 1428 2844 1947 2747 
L 2328 2669 
Q 3034 2534 3370 2195 
Q 3706 1856 3706 1288 
Q 3706 609 3251 259 
Q 2797 -91 1919 -91 
Q 1588 -91 1214 -16 
Q 841 59 441 206 
L 441 856 
Q 825 641 1194 531 
Q 1563 422 1919 422 
Q 2459 422 2753 634 
Q 3047 847 3047 1241 
Q 3047 1584 2836 1778 
Q 2625 1972 2144 2069 
L 1759 2144 
Q 1053 2284 737 2584 
Q 422 2884 422 3419 
Q 422 4038 858 4394 
Q 1294 4750 2059 4750 
Q 2388 4750 2728 4690 
Q 3069 4631 3425 4513 
z
" transform="scale(0.015625)"/>
       <path id="DejaVuSans-29" d="M 513 4856 
L 1013 4856 
Q 1481 4119 1714 3412 
Q 1947 2706 1947 2009 
Q 1947 1309 1714 600 
Q 1481 -109 1013 -844 
L 513 -844 
Q 928 -128 1133 580 
Q 1338 1288 1338 2009 
Q 1338 2731 1133 3434 
Q 928 4138 513 4856 
z
" transform="scale(0.015625)"/>
      </defs>
      <use xlink:href="#DejaVuSans-52"/>
      <use xlink:href="#DejaVuSans-65" x="64.982422"/>
      <use xlink:href="#DejaVuSans-74" x="126.505859"/>
      <use xlink:href="#DejaVuSans-6f" x="165.714844"/>
      <use xlink:href="#DejaVuSans-72" x="226.896484"/>
      <use xlink:href="#DejaVuSans-6e" x="266.259766"/>
      <use xlink:href="#DejaVuSans-6f" x="329.638672"/>
      <use xlink:href="#DejaVuSans-20" x="390.820312"/>
      <use xlink:href="#DejaVuSans-50" x="422.607422"/>
      <use xlink:href="#DejaVuSans-72" x="481.160156"/>
      <use xlink:href="#DejaVuSans-65" x="520.023438"/>
      <use xlink:href="#DejaVuSans-63" x="581.546875"/>
      <use xlink:href="#DejaVuSans-69" x="636.527344"/>
      <use xlink:href="#DejaVuSans-6f" x="664.310547"/>
      <use xlink:href="#DejaVuSans-20" x="725.492188"/>
      <use xlink:href="#DejaVuSans-28" x="757.279297"/>
      <use xlink:href="#DejaVuSans-42" x="796.292969"/>
      <use xlink:href="#DejaVuSans-50" x="864.896484"/>
      <use xlink:href="#DejaVuSans-53" x="925.199219"/>
      <use xlink:href="#DejaVuSans-29" x="988.675781"/>
     </g>
    </g>
   </g>
   <g id="line2d_15">
    <path d="M 55.345312 536.4 
L 55.582507 335.572054 
L 55.819701 327.499262 
L 56.056896 383.231929 
L 56.768479 410.560764 
L 57.005674 342.418896 
L 57.242868 335.330435 
L 57.480063 321.767924 
L 57.717257 335.544636 
L 58.428841 294.509888 
L 58.90323 335.029999 
L 59.140424 335.601179 
L 59.377619 334.307084 
L 60.089202 239.147855 
L 60.326396 335.033876 
L 60.563591 335.616016 
L 60.800785 265.369272 
L 61.03798 362.356429 
L 61.749563 337.315377 
L 61.986758 335.629779 
L 62.223952 289.449416 
L 62.461147 342.152407 
L 62.698341 335.702097 
L 63.409925 337.807969 
L 63.647119 306.641193 
L 63.884314 342.925251 
L 64.121508 331.8521 
L 64.358703 331.374328 
L 65.070286 309.438802 
L 65.30748 354.875408 
L 66.019064 299.670066 
L 66.730647 315.896381 
L 66.967842 338.08459 
L 67.205036 333.092908 
L 67.679425 403.327252 
L 68.391009 314.85419 
L 68.865398 351.085853 
L 69.102592 349.795223 
L 69.339786 330.134302 
L 70.05137 333.421471 
L 70.288564 329.424103 
L 70.525759 337.820463 
L 71.000148 330.023903 
L 71.711731 337.636583 
L 71.948926 335.842936 
L 72.18612 335.663755 
L 72.423315 307.479114 
L 72.660509 331.855924 
L 73.372093 332.84184 
L 73.609287 335.588691 
L 73.846481 320.286158 
L 74.32087 355.390651 
L 75.032454 321.704703 
L 75.269648 335.635883 
L 75.506843 393.870195 
L 75.981232 324.059871 
L 76.692815 345.446659 
L 76.93001 343.382428 
L 77.167204 335.545753 
L 77.404399 357.532595 
L 77.641593 346.489679 
L 78.353176 325.541515 
L 78.590371 335.603251 
L 78.827565 335.511881 
L 79.06476 335.614887 
L 80.013538 362.516592 
L 80.250732 335.600358 
L 80.487927 335.598612 
L 80.725121 299.407275 
L 80.962316 356.733081 
L 81.673899 341.837406 
L 81.911094 320.140868 
L 82.148288 335.816558 
L 82.385483 381.543802 
L 82.622677 335.459426 
L 83.571455 330.736934 
L 83.808649 339.391187 
L 84.045844 335.449995 
L 84.283038 335.448216 
L 84.994622 336.548208 
L 85.231816 335.4411 
L 85.469011 292.264714 
L 85.706205 334.838356 
L 85.9434 332.544013 
L 86.654983 333.066221 
L 86.892178 354.300644 
L 87.129372 335.436382 
L 87.366566 303.811686 
L 87.603761 335.431567 
L 88.315344 336.529528 
L 88.552539 335.396071 
L 88.789733 294.676988 
L 89.026928 291.361517 
L 89.264122 335.45588 
L 89.975706 329.336428 
L 90.2129 338.936493 
L 90.450095 372.413163 
L 90.687289 203.497383 
L 90.924484 340.636546 
L 91.636067 348.845849 
L 91.873261 263.811237 
L 92.110456 352.423691 
L 92.34765 323.346326 
L 92.584845 204.41501 
L 93.296428 185.736463 
L 93.533623 352.104015 
L 93.770817 286.643799 
L 94.245206 338.318804 
L 94.95679 323.852293 
L 95.193984 359.004576 
L 95.431179 336.793777 
L 95.668373 336.781542 
L 95.905568 337.758775 
L 96.617151 301.249093 
L 96.854345 363.170782 
L 97.09154 230.827467 
L 97.328734 276.62345 
L 97.565929 188.092333 
L 98.277512 360.140364 
L 98.514707 307.20755 
L 98.751901 319.387508 
L 98.989096 342.800869 
L 99.22629 340.034923 
L 99.937874 333.995621 
L 100.175068 335.697743 
L 100.412263 335.696359 
L 100.649457 148.0213 
L 100.886652 393.581839 
L 101.598235 341.150245 
L 101.835429 262.867829 
L 102.072624 242.414115 
L 102.309818 335.813802 
L 102.547013 306.599545 
L 103.258596 304.102517 
L 103.495791 333.28078 
L 103.97018 338.361029 
L 104.207374 403.537368 
L 104.918958 329.662967 
L 105.156152 342.388201 
L 105.393347 343.075105 
L 105.630541 294.139914 
L 105.867735 308.107842 
L 106.579319 337.384519 
L 106.816513 308.297758 
L 107.053708 313.558437 
L 107.290902 335.764387 
L 107.528097 340.086364 
L 108.23968 331.693635 
L 108.476875 342.504727 
L 108.714069 347.569796 
L 108.951264 359.54817 
L 109.188458 318.836708 
L 109.900042 329.964571 
L 110.137236 351.037193 
L 110.37443 325.41036 
L 110.848819 363.428216 
L 111.797597 334.443978 
L 112.034792 344.604977 
L 112.271986 292.26913 
L 112.509181 332.713402 
L 113.220764 337.316713 
L 113.457959 318.937167 
L 113.695153 335.211204 
L 113.932348 335.67392 
L 114.169542 393.848355 
L 114.881125 337.202557 
L 115.11832 335.660376 
L 115.355514 342.721689 
L 115.829903 322.392384 
L 116.541487 346.943808 
L 116.778681 340.282572 
L 117.25307 336.414783 
L 117.490265 362.863919 
L 118.201848 333.965533 
L 118.439043 335.640598 
L 118.676237 335.850137 
L 118.913432 337.82451 
L 119.150626 353.881154 
L 119.862209 336.963735 
L 120.099404 335.597574 
L 120.336598 261.467713 
L 120.573793 413.085268 
L 120.810987 363.434046 
L 121.522571 336.975653 
L 121.759765 335.584617 
L 121.99696 327.015645 
L 122.234154 335.585907 
L 122.471349 335.5847 
L 123.182932 336.960679 
L 123.420127 359.023887 
L 123.657321 335.961106 
L 123.894515 335.570883 
L 124.13171 335.569616 
L 124.843293 344.433352 
L 125.080488 336.483774 
L 125.317682 335.561264 
L 125.792071 351.282527 
L 126.978044 326.296587 
L 127.215238 366.065642 
L 127.452433 335.483087 
L 128.40121 337.265967 
L 128.875599 384.500632 
L 129.112794 360.670315 
L 129.824377 371.275544 
L 130.061572 335.445782 
L 130.298766 442.300382 
L 130.535961 335.422346 
L 130.773155 390.434976 
L 131.484739 336.0608 
L 131.721933 335.411444 
L 131.959128 474.808054 
L 132.196322 353.696852 
L 132.433517 374.577496 
L 133.1451 339.304227 
L 133.382294 335.269415 
L 133.619489 526.234581 
L 133.856683 339.155608 
L 134.093878 331.698309 
L 134.805461 276.262105 
L 135.042656 342.394382 
L 135.27985 220.326731 
L 135.517045 335.219429 
L 135.754239 335.264227 
L 136.465823 331.733405 
L 136.703017 338.189738 
L 136.940212 335.21115 
L 137.177406 328.860496 
L 137.4146 338.235696 
L 138.126184 248.39595 
L 138.363378 276.225015 
L 138.600573 335.273692 
L 139.074962 323.252862 
L 139.786545 330.919691 
L 140.02374 366.894454 
L 140.260934 335.268387 
L 140.735323 335.760222 
L 141.684101 311.908659 
L 141.921295 291.604243 
L 142.15849 307.909346 
L 142.395684 127.25839 
L 143.107268 214.711587 
L 143.344462 198.597146 
L 143.818851 336.614527 
L 144.056046 305.548866 
L 144.767629 296.359252 
L 145.004824 277.501056 
L 145.716407 347.843875 
L 146.902379 335.472521 
L 147.139574 488.783044 
L 147.376768 352.899203 
L 148.088352 336.495648 
L 148.325546 326.191941 
L 148.562741 335.418955 
L 149.03713 335.471053 
L 149.748713 359.654647 
L 149.985908 335.46484 
L 150.223102 349.67375 
L 150.460297 338.567224 
L 150.697491 345.263494 
L 151.409074 336.610456 
L 151.646269 335.459269 
L 151.883463 341.514735 
L 152.120658 335.463198 
L 152.357852 306.081041 
L 153.069436 356.550246 
L 153.30663 335.452577 
L 153.543825 290.206498 
L 153.781019 335.467769 
L 154.729797 326.818609 
L 154.966992 356.829076 
L 155.204186 335.540181 
L 155.441381 330.36482 
L 155.678575 331.516418 
L 156.390158 380.56178 
L 156.864547 326.745591 
L 157.101742 339.443716 
L 157.338936 323.196785 
L 158.05052 258.259815 
L 158.287714 333.876836 
L 158.524909 340.80385 
L 158.762103 335.508193 
L 158.999298 337.971649 
L 159.710881 322.27498 
L 159.948076 324.775716 
L 160.18527 334.029518 
L 160.422464 330.631084 
L 160.659659 273.685379 
L 161.371242 336.628465 
L 161.608437 311.847288 
L 162.082826 335.464659 
L 163.031604 329.506024 
L 163.268798 343.104476 
L 163.505993 303.727055 
L 163.743187 319.633072 
L 163.980382 371.337528 
L 164.691965 336.61104 
L 164.929159 305.102918 
L 165.166354 330.7904 
L 165.403548 335.471146 
L 165.640743 296.390491 
L 166.352326 328.79581 
L 166.589521 332.944767 
L 166.826715 380.592622 
L 167.301104 334.345932 
L 168.012688 331.562186 
L 168.249882 329.092938 
L 168.487077 295.310502 
L 168.724271 239.459114 
L 168.961466 350.66464 
L 169.910243 311.087707 
L 170.147438 366.514127 
L 170.384632 336.933293 
L 170.621827 328.572223 
L 171.33341 337.796978 
L 171.570605 337.305868 
L 172.044994 279.682238 
L 172.282188 288.398639 
L 172.993772 334.177319 
L 173.230966 332.450549 
L 173.468161 363.206501 
L 173.705355 340.909545 
L 173.942549 307.275002 
L 174.891327 352.677236 
L 175.128522 331.832579 
L 175.365716 347.297094 
L 175.602911 318.650397 
L 176.314494 314.849399 
L 176.551689 323.371248 
L 176.788883 310.557037 
L 177.263272 354.665452 
L 177.974856 353.578286 
L 178.21205 318.041379 
L 178.449244 347.751679 
L 178.686439 357.079192 
L 178.923633 327.610628 
L 179.635217 319.020586 
L 179.872411 346.079005 
L 180.3468 313.311659 
L 180.583995 398.319686 
L 181.295578 315.395717 
L 181.532773 369.369076 
L 181.769967 319.420556 
L 182.007162 338.846994 
L 182.244356 335.112699 
L 183.193134 353.992248 
L 183.430328 345.506569 
L 183.667523 321.086442 
L 183.904717 323.290593 
L 184.616301 340.244849 
L 184.853495 320.106099 
L 185.09069 350.207475 
L 185.327884 355.817109 
L 185.565079 346.774161 
L 186.276662 343.344837 
L 186.513857 325.252859 
L 186.751051 346.762481 
L 186.988246 318.299125 
L 187.22544 366.414994 
L 187.937023 329.874609 
L 188.174218 332.9022 
L 188.411412 318.444382 
L 188.648607 324.602127 
L 188.885801 356.901816 
L 189.597385 336.745778 
L 189.834579 333.87563 
L 190.071774 325.203905 
L 190.308968 343.710833 
L 190.546163 327.618827 
L 191.257746 354.45157 
L 191.494941 347.519904 
L 191.732135 356.762562 
L 191.96933 317.390332 
L 192.206524 335.512045 
L 192.918107 333.459705 
L 193.155302 323.753935 
L 193.392496 356.428005 
L 193.629691 358.880849 
L 193.866885 343.562281 
L 194.578469 342.005531 
L 194.815663 342.647005 
L 195.052858 322.04396 
L 195.290052 329.084997 
L 195.527247 343.856592 
L 196.23883 334.783163 
L 196.476025 334.727401 
L 196.713219 282.357665 
L 196.950413 288.114006 
L 197.187608 309.516838 
L 197.899191 353.187702 
L 198.37358 322.022295 
L 198.610775 321.928703 
L 198.847969 339.965913 
L 199.796747 330.208268 
L 200.033942 342.792313 
L 200.271136 379.93256 
L 200.508331 394.284392 
L 201.457108 337.3108 
L 201.694303 362.47912 
L 201.931497 360.428997 
L 202.168692 277.878278 
L 202.880275 334.085254 
L 203.354664 331.976576 
L 203.829053 362.808594 
L 204.540637 258.514398 
L 204.777831 354.253931 
L 205.015026 354.546918 
L 205.25222 325.642259 
L 205.489415 329.07466 
L 206.675387 360.445322 
L 206.912581 318.216211 
L 207.149776 347.035872 
L 207.861359 329.250154 
L 208.098554 335.676366 
L 208.335748 362.28134 
L 208.572943 289.116136 
L 208.810137 313.576983 
L 209.758915 351.731125 
L 209.99611 339.468558 
L 210.233304 372.984477 
L 210.470498 332.453452 
L 211.182082 327.378721 
L 211.419276 332.340851 
L 211.656471 268.521543 
L 211.893665 368.660225 
L 212.13086 369.259159 
L 212.842443 307.511609 
L 213.079638 321.315875 
L 213.316832 391.824288 
L 213.554027 330.462771 
L 213.791221 321.502657 
L 214.739999 341.474139 
L 214.977193 321.663841 
L 215.214388 341.479396 
L 215.451582 399.579134 
L 216.163166 456.647243 
L 216.40036 343.279652 
L 216.637555 344.615964 
L 216.874749 330.990264 
L 217.111944 333.274582 
L 217.823527 336.823722 
L 218.060722 340.116369 
L 218.297916 315.507884 
L 218.535111 273.188445 
L 218.772305 402.529112 
L 219.483888 343.580242 
L 219.721083 345.652114 
L 219.958277 302.318163 
L 220.195472 328.870218 
L 220.432666 340.132485 
L 221.14425 344.97225 
L 221.381444 402.398219 
L 221.618639 338.251464 
L 221.855833 334.511905 
L 222.093028 342.960728 
L 222.804611 324.666788 
L 223.041806 325.624618 
L 223.279 329.920462 
L 223.516195 294.693818 
L 223.753389 341.798359 
L 224.464972 327.162905 
L 224.702167 249.476183 
L 224.939361 351.181775 
L 225.176556 342.139537 
L 226.125334 400.042003 
L 226.362528 282.272923 
L 226.599723 400.249424 
L 226.836917 315.825153 
L 228.02289 335.442366 
L 228.260084 334.452369 
L 228.734473 325.531358 
L 229.446056 348.097096 
L 229.683251 342.782955 
L 229.920445 348.358082 
L 230.15764 283.13435 
L 230.394834 332.960198 
L 231.106418 319.857302 
L 231.343612 369.921288 
L 231.580807 304.384797 
L 232.055196 289.247737 
L 233.003973 335.253511 
L 233.241168 303.788681 
L 233.478362 388.843466 
L 233.715557 312.525555 
L 234.42714 393.41504 
L 234.664335 319.111405 
L 235.138724 357.424249 
L 235.375918 334.678093 
L 236.087502 334.95898 
L 236.324696 318.581187 
L 236.561891 345.368438 
L 236.799085 327.290054 
L 237.03628 323.050248 
L 237.747863 349.42942 
L 237.985057 404.813026 
L 238.222252 331.485371 
L 238.459446 324.250476 
L 239.408224 381.973377 
L 239.645419 294.372568 
L 239.882613 349.188743 
L 240.119808 313.313243 
L 240.357002 355.56285 
L 241.068586 364.207197 
L 241.30578 335.846513 
L 241.542975 347.655909 
L 241.780169 334.554474 
L 242.017364 332.903711 
L 242.728947 340.836245 
L 242.966141 320.491025 
L 243.44053 337.125878 
L 243.677725 324.506829 
L 244.389308 348.755734 
L 244.626503 321.250961 
L 244.863697 273.099318 
L 245.100892 324.352309 
L 245.338086 324.779703 
L 246.04967 341.72435 
L 246.524059 289.018758 
L 246.761253 340.775251 
L 247.710031 318.31533 
L 247.947225 305.840383 
L 248.18442 339.206011 
L 248.421614 329.500993 
L 248.658809 351.670328 
L 249.370392 341.800985 
L 249.607587 343.623911 
L 249.844781 304.764318 
L 250.081976 244.733967 
L 250.31917 341.414581 
L 251.030754 333.554848 
L 251.267948 286.234529 
L 251.505142 275.321778 
L 251.742337 367.756594 
L 251.979531 330.102013 
L 252.691115 358.410558 
L 252.928309 312.230132 
L 253.165504 342.104624 
L 253.402698 335.127158 
L 253.639893 349.817397 
L 254.351476 323.943482 
L 254.588671 344.578173 
L 254.825865 288.736648 
L 255.06306 356.963331 
L 255.300254 358.911046 
L 256.249032 345.628318 
L 256.486226 339.197244 
L 256.723421 315.796268 
L 256.960615 340.071453 
L 257.672199 353.340927 
L 257.909393 399.570071 
L 258.146588 348.606361 
L 258.620977 302.694807 
L 259.33256 376.012814 
L 259.569755 363.557772 
L 259.806949 386.78559 
L 260.044144 244.905238 
L 260.281338 338.68904 
L 260.992921 353.818711 
L 261.46731 310.63397 
L 261.941699 354.069107 
L 262.653283 324.928811 
L 263.127672 345.580562 
L 263.364866 343.633173 
L 263.602061 287.23781 
L 264.313644 340.583773 
L 264.550839 347.66388 
L 264.788033 350.963225 
L 265.025227 314.668476 
L 265.262422 309.685152 
L 265.974005 335.660042 
L 266.2112 384.73285 
L 266.448394 304.221048 
L 266.685589 330.009538 
L 267.634367 351.653279 
L 267.871561 328.958623 
L 268.108756 353.684816 
L 268.34595 331.095349 
L 268.583145 364.269265 
L 269.294728 359.936864 
L 269.531922 277.964002 
L 269.769117 321.426893 
L 270.243506 363.662435 
L 270.955089 337.315284 
L 271.192284 362.733051 
L 271.429478 308.288615 
L 271.666673 359.167688 
L 271.903867 331.578979 
L 272.615451 340.596141 
L 272.852645 356.519406 
L 273.08984 330.902302 
L 273.327034 331.469507 
L 273.564229 332.440503 
L 274.275812 342.029601 
L 274.513006 328.895375 
L 274.750201 336.369332 
L 274.987395 332.76377 
L 275.22459 335.325725 
L 275.936173 301.82745 
L 276.173368 364.758634 
L 276.410562 367.991677 
L 276.647757 298.717096 
L 276.884951 334.106349 
L 277.596535 309.019783 
L 277.833729 360.533358 
L 278.070924 366.296628 
L 278.308118 332.811533 
L 278.545312 334.105044 
L 279.256896 287.740961 
L 279.49409 362.749752 
L 279.731285 360.426767 
L 280.205674 325.943709 
L 280.917257 354.653922 
L 281.391646 341.837825 
L 281.628841 326.55365 
L 281.866035 336.14523 
L 282.577619 284.747119 
L 282.814813 343.207453 
L 283.052008 340.115131 
L 283.289202 352.635459 
L 283.526396 342.630966 
L 284.23798 294.880019 
L 284.475174 356.012615 
L 284.712369 325.117531 
L 285.186758 315.205942 
L 285.898341 378.660325 
L 286.135536 335.00127 
L 286.37273 313.968641 
L 286.609925 361.616318 
L 286.847119 340.988615 
L 287.558703 321.833698 
L 287.795897 343.88976 
L 288.033091 336.454594 
L 288.270286 366.011319 
L 288.50748 345.19892 
L 289.219064 335.402634 
L 289.456258 346.057632 
L 289.693453 345.911957 
L 289.930647 361.00655 
L 290.167842 320.250934 
L 290.879425 327.001085 
L 291.11662 355.500906 
L 291.353814 151.652135 
L 291.591009 364.696274 
L 291.828203 368.467407 
L 292.539786 296.168233 
L 292.776981 325.590616 
L 293.014175 336.229791 
L 293.25137 360.669379 
L 293.488564 422.19424 
L 294.200148 333.113787 
L 294.437342 360.52592 
L 294.674537 299.597403 
L 294.911731 332.931994 
L 295.148926 333.660805 
L 295.860509 318.503385 
L 296.097704 331.875666 
L 296.334898 329.278371 
L 296.572093 340.264547 
L 296.809287 332.929856 
L 297.52087 337.491179 
L 297.758065 404.694242 
L 297.995259 322.48536 
L 298.232454 323.871658 
L 298.469648 353.750017 
L 299.181232 382.89634 
L 299.418426 321.751067 
L 299.655621 301.21309 
L 299.892815 344.733392 
L 300.13001 324.06676 
L 300.841593 356.780227 
L 301.078788 318.731725 
L 301.315982 362.126365 
L 301.553176 291.063949 
L 301.790371 327.355595 
L 302.501954 373.100796 
L 302.739149 339.734893 
L 302.976343 326.091657 
L 303.213538 321.891727 
L 303.450732 361.820109 
L 304.162316 342.430774 
L 304.39951 369.743901 
L 304.636705 329.692679 
L 304.873899 332.026135 
L 305.111094 182.867621 
L 305.822677 415.706979 
L 306.059871 344.801705 
L 306.297066 347.622085 
L 306.53426 298.814447 
L 306.771455 339.405487 
L 307.483038 330.148586 
L 307.720233 353.633586 
L 307.957427 293.765551 
L 308.194622 368.577737 
L 308.431816 342.0336 
L 309.1434 337.823588 
L 309.380594 325.808755 
L 309.617789 282.536589 
L 309.854983 343.001577 
L 310.092178 373.229584 
L 310.803761 340.321036 
L 311.040955 301.359866 
L 311.515344 355.468404 
L 311.752539 202.680405 
L 312.701317 371.169753 
L 312.938511 353.600542 
L 313.175706 277.247079 
L 313.4129 367.069366 
L 314.124484 345.294819 
L 314.361678 334.47371 
L 314.598873 372.617886 
L 314.836067 332.554701 
L 315.073261 333.422575 
L 316.022039 375.56796 
L 316.733623 325.943624 
L 317.445206 354.880305 
L 317.682401 339.20373 
L 317.919595 354.027497 
L 318.15679 281.290607 
L 318.393984 340.109372 
L 319.105568 339.702678 
L 319.342762 325.169378 
L 319.579956 332.84839 
L 319.817151 303.172956 
L 320.054345 340.589887 
L 321.003123 347.3111 
L 321.240318 325.03667 
L 321.477512 352.605923 
L 321.714707 325.970783 
L 322.42629 335.832928 
L 322.900679 361.72484 
L 323.137874 358.087582 
L 323.375068 344.500519 
L 324.086652 323.622586 
L 324.323846 330.981067 
L 324.56104 363.376089 
L 324.798235 310.141716 
L 325.035429 346.292071 
L 325.747013 347.053278 
L 325.984207 337.944311 
L 326.221402 283.161841 
L 326.458596 289.629772 
L 326.695791 384.991963 
L 327.644569 361.512916 
L 327.881763 362.410234 
L 328.118958 296.678724 
L 328.356152 339.20471 
L 329.067735 363.570628 
L 329.30493 333.47654 
L 329.779319 347.507169 
L 330.016513 327.114479 
L 330.728097 343.00522 
L 331.202486 317.94991 
L 331.43968 363.845548 
L 331.676875 337.471133 
L 332.388458 317.031082 
L 332.625653 361.222143 
L 333.100042 332.251329 
L 333.337236 322.251894 
L 334.048819 336.622529 
L 334.286014 248.437664 
L 334.760403 340.453328 
L 334.997597 281.409884 
L 335.709181 317.832453 
L 335.946375 314.257671 
L 336.18357 339.035425 
L 336.420764 349.34982 
L 336.657959 348.389755 
L 337.369542 300.63373 
L 337.606737 328.813992 
L 337.843931 333.939302 
L 338.081125 368.850329 
L 339.029903 341.976028 
L 339.267098 326.982976 
L 339.504292 342.665598 
L 339.741487 338.886915 
L 339.978681 318.37668 
L 340.690265 337.628822 
L 340.927459 357.50179 
L 341.164654 315.312842 
L 341.401848 326.589082 
L 341.639043 328.063563 
L 342.58782 317.764145 
L 342.825015 344.764378 
L 343.062209 329.232707 
L 343.299404 365.870631 
L 344.010987 330.199863 
L 344.248182 351.087236 
L 344.485376 327.322677 
L 344.722571 329.239354 
L 344.959765 372.422395 
L 345.671349 313.24689 
L 345.908543 346.362824 
L 346.145738 335.683721 
L 346.382932 348.645314 
L 346.620127 315.712744 
L 347.33171 337.952045 
L 347.568904 350.273841 
L 347.806099 324.918372 
L 348.043293 286.34446 
L 348.280488 372.56906 
L 348.992071 371.197343 
L 349.229266 326.149735 
L 349.46646 320.408816 
L 349.703655 367.580491 
L 350.652433 333.201889 
L 350.889627 339.621724 
L 351.126822 313.098974 
L 351.364016 366.26825 
L 351.60121 331.642001 
L 352.312794 342.133479 
L 352.549988 337.225604 
L 352.787183 315.168715 
L 353.261572 335.047982 
L 353.973155 337.876118 
L 354.21035 305.390566 
L 354.447544 338.438684 
L 354.684739 345.034496 
L 354.921933 378.640771 
L 355.633517 284.713424 
L 355.870711 361.456683 
L 356.107905 322.800499 
L 356.3451 341.876172 
L 356.582294 308.89579 
L 357.293878 338.615359 
L 357.531072 340.796442 
L 358.005461 329.601457 
L 358.242656 367.00414 
L 358.954239 321.546244 
L 359.191434 352.195166 
L 359.428628 330.091458 
L 359.665823 331.539219 
L 359.903017 339.913562 
L 360.6146 355.198686 
L 360.851795 313.994159 
L 361.088989 307.073411 
L 361.326184 314.380377 
L 361.563378 329.341565 
L 362.274962 331.682053 
L 362.512156 315.805865 
L 362.749351 315.564551 
L 362.986545 313.958806 
L 363.22374 332.630476 
L 363.935323 333.923903 
L 364.409712 231.798618 
L 364.646907 328.558627 
L 364.884101 355.245205 
L 365.595684 272.246852 
L 365.832879 369.120131 
L 366.070073 307.220062 
L 366.544462 342.241994 
L 367.256046 348.327643 
L 367.49324 321.336949 
L 367.967629 353.951526 
L 368.204824 342.846605 
L 368.916407 329.710615 
L 369.153602 329.003595 
L 369.390796 332.92372 
L 369.627991 364.967267 
L 369.865185 337.261738 
L 370.576768 348.199845 
L 370.813963 355.853326 
L 371.051157 322.136019 
L 371.288352 315.516876 
L 371.525546 328.654068 
L 372.23713 358.340308 
L 372.474324 337.842722 
L 372.711519 298.53667 
L 373.185908 366.554712 
L 373.897491 327.951759 
L 374.134686 348.869212 
L 374.37188 353.366675 
L 374.609074 346.157361 
L 374.846269 334.499076 
L 375.557852 337.697323 
L 375.795047 333.48723 
L 376.032241 335.505588 
L 376.50663 327.538277 
L 377.218214 330.33276 
L 377.455408 298.280359 
L 377.692603 341.463173 
L 377.929797 349.183733 
L 378.166992 333.010393 
L 378.878575 343.947303 
L 379.352964 258.911057 
L 379.590158 326.745537 
L 379.827353 297.120031 
L 380.538936 309.825634 
L 380.776131 377.003257 
L 381.013325 302.080234 
L 381.25052 331.103284 
L 381.487714 323.265635 
L 382.199298 268.039541 
L 382.436492 232.981923 
L 382.910881 368.860939 
L 383.148076 323.414694 
L 383.859659 314.102073 
L 384.096853 392.967492 
L 384.334048 329.077938 
L 384.571242 337.672236 
L 384.808437 335.199363 
L 385.52002 287.004386 
L 385.757215 310.715774 
L 385.994409 32.4 
L 386.231604 245.801319 
L 386.468798 319.669605 
L 387.417576 335.690127 
L 387.654771 208.686609 
L 387.891965 200.898852 
L 388.129159 220.020984 
L 388.840743 126.291548 
L 389.077937 167.754859 
L 389.315132 390.112221 
L 389.552326 430.205123 
L 389.789521 443.764761 
L 390.501104 311.94555 
L 390.738299 201.141493 
L 391.212688 411.879476 
L 391.449882 356.725379 
L 392.161466 286.749956 
L 392.39866 383.791423 
L 392.635854 379.793577 
L 392.873049 358.708953 
L 393.110243 399.367054 
L 393.821827 458.336282 
L 394.059021 334.088223 
L 394.296216 327.576032 
L 394.53341 314.061943 
L 394.770605 346.485969 
L 395.482188 357.104012 
L 395.719383 438.327575 
L 396.193772 260.018001 
L 396.430966 370.381001 
L 397.142549 312.75511 
L 397.379744 367.194339 
L 397.616938 362.413655 
L 397.854133 293.642201 
L 398.091327 410.099398 
L 399.040105 477.93222 
L 399.2773 253.305214 
L 399.514494 239.009302 
L 399.751689 402.820467 
L 400.700467 408.764047 
L 400.937661 330.381106 
L 401.174856 290.997344 
L 401.41205 279.511647 
L 402.123633 406.589242 
L 402.360828 230.959989 
L 402.598022 232.634543 
L 402.835217 387.419637 
L 403.072411 357.496758 
L 403.783995 305.233572 
L 404.021189 387.164794 
L 404.258384 263.385976 
L 404.495578 354.687541 
L 404.732773 329.998149 
L 405.444356 369.947695 
L 405.681551 326.76758 
L 405.918745 343.095436 
L 406.155939 325.7054 
L 406.393134 325.589742 
L 407.341912 302.386839 
L 407.579106 349.68457 
L 407.816301 323.579151 
L 408.053495 349.291553 
L 408.765079 317.746712 
L 409.002273 268.330441 
L 409.239468 324.627211 
L 409.476662 323.454001 
L 409.713857 384.844667 
L 410.42544 344.372248 
L 410.662634 284.829757 
L 410.899829 347.115942 
L 411.137023 349.582421 
L 411.374218 368.048509 
L 412.085801 340.066662 
L 412.322996 347.270271 
L 412.56019 385.932278 
L 412.797385 360.228401 
L 413.034579 309.858114 
L 413.746163 359.144483 
L 414.220552 335.889933 
L 414.457746 315.605285 
L 414.694941 364.718726 
L 415.406524 367.936366 
L 415.643718 533.746915 
L 415.880913 317.936563 
L 416.118107 315.53399 
L 416.355302 500.906859 
L 417.066885 321.950245 
L 417.30408 404.145907 
L 417.541274 321.23592 
L 417.778469 348.415595 
L 418.015663 352.296659 
L 418.727247 358.45923 
L 418.964441 402.898211 
L 419.201636 391.244733 
L 419.43883 289.952583 
L 419.676025 329.086339 
L 420.387608 156.304221 
L 420.624802 255.714074 
L 420.861997 508.227494 
L 421.099191 339.58053 
L 422.047969 312.952235 
L 422.285164 408.794778 
L 422.522358 270.373513 
L 422.759553 275.942994 
L 422.996747 277.273033 
L 423.708331 306.899175 
L 423.945525 270.009924 
L 424.18272 309.226791 
L 424.419914 327.57108 
L 424.657108 368.907012 
L 425.605886 328.497537 
L 425.843081 349.130603 
L 426.080275 383.298894 
L 426.31747 334.261417 
L 427.029053 372.065611 
L 427.266248 318.03595 
L 427.503442 360.240221 
L 427.740637 322.899925 
L 427.977831 325.642317 
L 428.926609 330.302165 
L 429.163803 318.998481 
L 429.400998 329.489171 
L 429.638192 333.944285 
L 430.349776 328.808992 
L 430.58697 326.164981 
L 430.824165 342.596717 
L 431.061359 371.334657 
L 431.298554 355.181421 
L 432.010137 365.311879 
L 432.484526 307.403836 
L 432.721721 364.470162 
L 432.958915 374.179476 
L 433.670498 364.924447 
L 433.907693 340.367654 
L 434.144887 372.313757 
L 434.382082 356.394224 
L 434.619276 313.1705 
L 435.33086 359.539445 
L 435.805249 326.135436 
L 436.279638 333.00167 
L 436.991221 355.172483 
L 437.228416 340.317815 
L 437.46561 273.947459 
L 437.702805 334.770944 
L 437.939999 360.175628 
L 438.651582 362.353358 
L 438.888777 295.125283 
L 439.125971 363.648769 
L 439.363166 343.621758 
L 439.60036 397.439478 
L 440.311944 321.792495 
L 440.549138 321.394754 
L 440.786333 326.314487 
L 441.023527 343.712113 
L 441.260722 345.870415 
L 441.972305 345.171682 
L 442.2095 319.590872 
L 442.446694 347.003607 
L 442.683888 342.632538 
L 442.921083 300.233857 
L 443.632666 369.286908 
L 443.869861 333.405647 
L 444.107055 327.982875 
L 444.34425 370.589137 
L 444.581444 353.411454 
L 445.293028 353.125747 
L 445.530222 379.200279 
L 445.767417 349.597988 
L 446.004611 364.946739 
L 446.241806 312.43467 
L 446.953389 319.168496 
L 447.190583 306.236955 
L 447.427778 357.239152 
L 447.664972 354.00839 
L 447.902167 378.322711 
L 448.61375 370.044781 
L 448.850945 315.019474 
L 449.088139 338.198869 
L 449.325334 377.313371 
L 449.562528 321.903678 
L 450.274112 378.240056 
L 450.511306 349.930329 
L 450.748501 369.40684 
L 450.985695 349.05451 
L 451.22289 354.189163 
L 451.934473 331.754204 
L 452.171667 318.530754 
L 452.408862 326.678338 
L 452.646056 363.689333 
L 452.883251 364.174109 
L 453.594834 347.945513 
L 453.832029 338.365126 
L 454.069223 315.985474 
L 454.543612 316.095936 
L 455.255196 354.242855 
L 455.49239 358.436586 
L 455.729585 316.315721 
L 455.966779 324.717859 
L 456.203973 454.626865 
L 456.915557 297.564775 
L 457.152751 339.943197 
L 457.389946 289.66676 
L 457.62714 366.412966 
L 457.864335 278.559065 
L 458.575918 330.431521 
L 458.813113 374.665276 
L 459.050307 393.147238 
L 459.287502 244.050127 
L 459.524696 416.205101 
L 460.23628 361.169507 
L 460.473474 391.019576 
L 460.710669 316.705992 
L 460.947863 368.541655 
L 461.185057 309.526331 
L 461.896641 351.408782 
L 462.133835 335.145569 
L 462.37103 362.398764 
L 462.608224 292.483635 
L 462.845419 335.558948 
L 463.794197 348.956079 
L 464.031391 290.251159 
L 464.268586 381.66031 
L 464.50578 388.695363 
L 465.217364 306.865118 
L 465.454558 301.438889 
L 465.691752 363.519682 
L 465.928947 321.075562 
L 466.166141 369.087218 
L 466.877725 350.1519 
L 467.114919 336.56353 
L 467.352114 337.927952 
L 467.589308 353.181559 
L 467.826503 300.51102 
L 468.538086 353.937381 
L 468.775281 279.383801 
L 469.012475 384.639803 
L 469.24967 317.363194 
L 469.486864 284.869254 
L 470.198447 353.999543 
L 470.435642 351.141194 
L 470.672836 322.611362 
L 470.910031 343.720752 
L 471.147225 375.24477 
L 472.333198 276.525516 
L 472.570392 356.813029 
L 472.807587 371.217748 
L 473.756365 333.691117 
L 473.993559 336.09072 
L 474.230754 313.229309 
L 474.467948 344.471145 
L 475.179531 343.223512 
L 475.416726 352.528003 
L 475.65392 308.05213 
L 475.891115 334.442816 
L 476.128309 338.319962 
L 476.839893 326.571181 
L 477.077087 314.531637 
L 477.314282 337.488331 
L 477.788671 346.865658 
L 478.500254 324.825122 
L 478.737449 380.917665 
L 478.974643 354.930895 
L 479.211837 313.079424 
L 479.449032 296.546676 
L 480.160615 351.114902 
L 480.39781 314.988566 
L 480.635004 327.239577 
L 480.872199 347.486025 
L 481.109393 353.176615 
L 481.820977 340.02721 
L 482.058171 373.540727 
L 482.295366 356.469035 
L 482.53256 319.121861 
L 482.769755 318.158043 
L 483.481338 326.431038 
L 483.718532 346.253264 
L 483.955727 335.363069 
L 484.192921 314.675426 
L 484.430116 308.983476 
L 485.141699 330.236837 
L 485.616088 352.039379 
L 485.853283 323.266971 
L 486.090477 314.7238 
L 486.802061 355.331479 
L 487.27645 322.104458 
L 487.513644 318.155425 
L 487.750839 351.853294 
L 488.699616 341.143887 
L 488.936811 300.153274 
L 489.174005 353.292821 
L 489.4112 330.205128 
L 490.122783 313.558947 
L 490.359978 298.193003 
L 490.597172 314.971642 
L 490.834367 310.115986 
L 491.071561 324.214543 
L 492.020339 302.313707 
L 492.257534 335.808703 
L 492.494728 305.886357 
L 492.731922 320.800036 
L 493.443506 338.918162 
L 493.6807 327.827092 
L 493.917895 351.807405 
L 494.155089 310.104 
L 494.392284 293.585643 
L 495.103867 338.714789 
L 495.578256 320.591222 
L 495.815451 295.381546 
L 496.052645 314.047758 
L 496.764229 335.109863 
L 497.001423 301.099016 
L 497.238617 344.741797 
L 497.475812 331.198411 
L 497.713006 325.547923 
L 498.42459 341.988321 
L 498.661784 327.328671 
L 498.898979 354.525251 
L 499.136173 327.070003 
L 499.373368 326.2093 
L 500.084951 344.280404 
L 500.322146 340.266975 
L 500.796535 316.729272 
L 501.033729 336.466112 
L 501.745313 349.241529 
L 501.982507 322.659572 
L 502.219701 333.454438 
L 502.456896 367.577889 
L 502.69409 343.944902 
L 503.405674 338.537347 
L 503.880063 332.209467 
L 504.117257 329.013282 
L 504.354452 341.823977 
L 505.066035 334.447292 
L 505.30323 339.518025 
L 505.777619 325.921514 
L 506.014813 327.801519 
L 506.726396 316.642592 
L 506.963591 326.317132 
L 507.200785 344.458167 
L 507.43798 310.822947 
L 507.675174 343.065261 
L 508.386758 340.087908 
L 508.623952 333.806863 
L 508.861147 306.137003 
L 509.098341 312.136987 
L 509.335536 295.490197 
L 510.047119 283.274366 
L 510.284314 332.113465 
L 510.521508 292.401317 
L 510.758703 336.481271 
L 510.995897 314.09084 
L 511.944675 334.045357 
L 512.181869 306.748975 
L 512.419064 350.471936 
L 513.367842 324.756806 
L 513.605036 325.638345 
L 513.842231 373.904033 
L 514.079425 348.501623 
L 514.31662 273.290942 
L 515.265398 327.912652 
L 515.502592 350.231823 
L 515.739786 354.628924 
L 515.976981 325.375206 
L 516.688564 340.023729 
L 516.925759 277.70546 
L 517.162953 275.772025 
L 517.400148 361.473508 
L 517.637342 310.783547 
L 518.348926 318.862065 
L 518.58612 337.851644 
L 518.823315 343.433179 
L 519.060509 329.782771 
L 519.297704 323.205365 
L 520.009287 298.21948 
L 520.246481 368.315145 
L 520.483676 356.924019 
L 520.72087 337.567103 
L 520.958065 345.981776 
L 521.669648 318.570232 
L 521.906843 339.315528 
L 522.144037 343.78722 
L 522.381232 328.027092 
L 522.618426 304.108859 
L 523.33001 353.425165 
L 523.567204 309.67796 
L 523.804399 327.538453 
L 524.278788 337.489216 
L 524.990371 327.726176 
L 525.46476 337.370661 
L 525.701954 352.564692 
L 525.939149 297.156878 
L 526.650732 332.470782 
L 526.887927 356.111451 
L 527.125121 316.324457 
L 527.59951 348.153792 
L 528.311094 365.50285 
L 528.548288 311.020693 
L 528.785483 349.955359 
L 529.022677 367.461804 
L 529.259871 356.181588 
L 529.971455 294.531929 
L 530.208649 346.496663 
L 530.445844 292.60119 
L 530.683038 354.428187 
L 530.920233 347.602925 
L 531.631816 316.202073 
L 531.869011 315.656707 
L 532.106205 366.327136 
L 532.580594 310.7974 
L 533.292178 338.6256 
L 533.529372 328.347359 
L 533.766566 344.891023 
L 534.003761 310.572081 
L 534.240955 334.900192 
L 534.952539 329.164434 
L 535.189733 300.465286 
L 535.426928 322.067571 
L 535.664122 331.845655 
L 535.901317 310.710605 
L 536.6129 307.988865 
L 536.850095 329.325011 
L 537.087289 290.583633 
L 537.324484 303.694049 
L 537.561678 358.185653 
L 538.273261 310.607299 
L 538.510456 334.25792 
L 538.74765 373.64352 
L 538.984845 387.637974 
L 539.222039 318.802864 
L 540.170817 338.202108 
L 540.408012 355.697355 
L 540.645206 352.585139 
L 541.593984 381.03912 
L 541.831179 326.902362 
L 542.068373 340.146122 
L 542.305568 298.185823 
L 542.542762 333.308834 
L 543.254345 330.772035 
L 543.49154 380.638701 
L 543.728734 297.042563 
L 544.203123 363.668232 
L 544.914707 363.153815 
L 545.151901 309.868253 
L 545.389096 325.501063 
L 545.62629 383.041752 
L 545.863485 302.943259 
L 546.575068 334.366471 
L 546.812263 365.242275 
L 547.049457 357.295154 
L 547.286652 335.472638 
L 547.523846 356.638824 
L 548.235429 347.130483 
L 548.472624 342.03269 
L 548.709818 342.175508 
L 548.947013 347.778959 
L 549.184207 320.740098 
L 549.895791 324.141372 
L 550.37018 351.947732 
L 550.607374 397.142878 
L 550.844569 347.737726 
L 551.556152 342.253599 
L 551.793347 341.768076 
L 552.030541 345.968489 
L 552.267735 380.183476 
L 552.50493 327.78353 
L 553.216513 312.438242 
L 553.453708 353.795552 
L 553.690902 317.197046 
L 553.928097 382.419301 
L 554.876875 401.010315 
L 555.114069 352.096953 
L 555.351264 346.20386 
L 555.588458 352.125945 
L 555.825653 321.157848 
L 556.537236 303.450197 
L 556.77443 365.741319 
L 557.011625 294.697741 
L 557.248819 343.628126 
L 557.486014 302.899242 
L 558.197597 348.264455 
L 558.434792 379.541208 
L 558.671986 282.895819 
L 559.146375 374.093084 
L 560.095153 328.195173 
L 560.332348 421.601929 
L 560.806737 249.571384 
L 561.51832 308.094777 
L 561.755514 313.068064 
L 561.992709 289.255193 
L 562.229903 310.045215 
L 562.467098 311.982939 
L 563.178681 309.93888 
L 563.415876 359.309351 
L 563.65307 324.610454 
L 563.890265 346.055443 
L 564.127459 388.466597 
L 564.839043 283.740637 
L 565.076237 296.078719 
L 565.313432 262.773479 
L 565.550626 313.911805 
L 565.78782 394.148996 
L 566.736598 342.417552 
L 566.973793 423.5337 
L 567.210987 353.750824 
L 567.448182 333.685008 
L 568.159765 345.197636 
L 568.39696 335.248828 
L 568.634154 359.268377 
L 568.871349 288.182751 
L 569.108543 355.16774 
L 569.820127 331.741366 
L 570.057321 308.158516 
L 570.294515 381.571438 
L 570.53171 375.815775 
L 570.768904 319.968838 
L 571.480488 316.157918 
L 571.717682 347.753519 
L 572.192071 270.839973 
L 572.429266 355.880301 
L 573.140849 330.192643 
L 573.378044 277.860299 
L 573.852433 364.108582 
L 574.089627 324.419325 
L 575.038405 326.936992 
L 575.275599 282.763848 
L 575.512794 360.803382 
L 575.749988 339.164437 
L 576.461572 366.668198 
L 576.698766 312.316047 
L 576.935961 378.954339 
L 577.173155 315.435436 
L 577.41035 319.478327 
L 578.121933 335.01714 
L 578.596322 331.237509 
L 578.833517 319.053841 
L 579.782294 336.546941 
L 580.019489 335.091938 
L 580.256683 290.549368 
L 580.493878 336.043549 
L 580.731072 333.795321 
L 581.442656 340.985104 
L 581.67985 353.049396 
L 581.917045 379.376595 
L 582.154239 272.707747 
L 582.391434 316.217378 
L 583.103017 371.560187 
L 583.340212 340.567031 
L 583.577406 328.339704 
L 583.8146 384.144116 
L 584.051795 409.262192 
L 584.763378 313.628156 
L 585.000573 355.204582 
L 585.237767 368.313673 
L 585.474962 360.395418 
L 585.712156 328.878543 
L 586.42374 363.625051 
L 586.898129 326.475175 
L 587.372518 326.592234 
L 588.084101 352.232295 
L 588.321295 339.880621 
L 588.55849 320.45938 
L 588.795684 339.814753 
L 589.032879 374.316157 
L 589.981657 318.342322 
L 590.69324 377.240083 
L 591.404824 304.197553 
L 591.642018 429.90128 
L 591.879213 304.194871 
L 592.116407 326.683766 
L 592.353602 324.943199 
L 593.065185 322.815183 
L 593.302379 357.350461 
L 593.539574 334.972366 
L 593.776768 341.739085 
L 594.013963 323.603201 
L 594.725546 334.880536 
L 594.962741 349.592746 
L 595.199935 295.787318 
L 595.43713 333.820594 
L 595.674324 322.710728 
L 596.385908 329.301165 
L 596.623102 334.356345 
L 596.860297 330.642849 
L 597.097491 358.752744 
L 598.046269 355.194119 
L 598.283463 335.142997 
L 598.520658 352.700992 
L 598.757852 273.801456 
L 598.995047 341.865079 
L 599.70663 326.010745 
L 599.943825 393.719483 
L 600.181019 326.025292 
L 600.418214 343.553557 
L 600.655408 258.498655 
L 601.366992 338.482377 
L 601.604186 383.27192 
L 601.841381 330.773551 
L 602.078575 343.549374 
L 602.315769 330.37321 
L 603.264547 313.798666 
L 603.501742 311.667823 
L 603.738936 337.204895 
L 603.976131 310.627807 
L 604.687714 347.695916 
L 604.924909 350.015174 
L 605.162103 358.532687 
L 605.399298 333.331382 
L 605.636492 346.539 
L 606.348076 347.039031 
L 606.58527 342.105593 
L 606.822464 333.041828 
L 607.059659 352.64837 
L 607.296853 306.662321 
L 608.008437 337.23913 
L 608.245631 355.190983 
L 608.482826 328.586617 
L 608.72002 338.548534 
L 608.957215 297.130126 
L 609.668798 359.6738 
L 609.905993 294.5115 
L 610.143187 348.834992 
L 610.380382 300.32748 
L 610.617576 325.039538 
L 611.329159 265.499976 
L 611.566354 349.528617 
L 612.277937 372.639451 
L 612.989521 337.090017 
L 613.226715 356.291262 
L 613.46391 338.752856 
L 613.701104 334.525642 
L 613.938299 343.802377 
L 614.649882 319.305537 
L 615.124271 344.491957 
L 615.59866 330.419224 
L 616.310243 357.561439 
L 616.547438 351.832413 
L 616.784632 321.483642 
L 617.021827 423.843253 
L 617.259021 452.089101 
L 617.970605 342.939323 
L 618.207799 205.805701 
L 618.682188 437.645905 
L 618.919383 206.924363 
L 619.630966 364.034396 
L 619.868161 456.277675 
L 620.105355 329.775245 
L 620.342549 295.025944 
L 620.579744 352.399782 
L 621.291327 354.493917 
L 621.528522 309.71014 
L 621.765716 348.717426 
L 622.002911 299.114166 
L 622.240105 222.853782 
L 622.951689 362.512799 
L 623.188883 240.995999 
L 623.426078 323.173275 
L 623.663272 318.664047 
L 623.900467 287.406553 
L 624.61205 359.427901 
L 624.849244 303.357681 
L 625.086439 286.437912 
L 625.323633 259.468629 
L 625.560828 351.159822 
L 626.272411 251.35353 
L 626.509606 341.417062 
L 626.7468 297.441749 
L 626.983995 380.275988 
L 627.221189 306.422738 
L 627.932773 325.988727 
L 628.169967 342.590443 
L 628.407162 129.057276 
L 628.644356 365.261923 
L 628.881551 332.101101 
L 629.593134 343.822193 
L 629.830328 269.76996 
L 630.067523 338.333986 
L 630.304717 344.945551 
L 630.541912 338.316429 
L 631.253495 411.814697 
L 631.49069 347.121003 
L 631.727884 342.795288 
L 631.965079 278.834628 
L 632.202273 398.651952 
L 632.913857 306.778784 
L 633.151051 322.380131 
L 633.388246 303.172605 
L 633.62544 345.095363 
L 633.862634 295.823262 
L 634.574218 339.86486 
L 634.811412 329.071252 
L 635.048607 345.307108 
L 635.285801 340.049746 
L 635.522996 326.500194 
L 636.234579 324.049648 
L 636.471774 314.650003 
L 636.708968 376.899322 
L 637.183357 307.070045 
L 637.894941 360.625447 
L 638.132135 332.520405 
L 638.36933 334.839763 
L 638.606524 332.944425 
L 638.843718 308.628674 
L 639.555302 334.651644 
L 639.792496 323.97439 
L 640.029691 355.180337 
L 640.266885 283.278201 
L 640.50408 314.427066 
L 641.215663 338.884451 
L 641.452858 301.78226 
L 641.927247 333.218292 
L 642.164441 308.422811 
L 642.876025 342.485536 
L 643.113219 340.255851 
L 643.587608 304.280656 
L 643.824802 325.489895 
L 644.536386 291.297788 
L 645.010775 334.790577 
L 645.247969 322.499883 
L 645.485164 303.039262 
L 646.196747 325.790788 
L 646.433942 266.648451 
L 646.671136 363.837866 
L 646.908331 267.070008 
L 647.145525 408.633229 
L 648.094303 240.919912 
L 648.331497 388.504505 
L 648.568692 239.517893 
L 648.805886 273.546185 
L 649.754664 371.13058 
L 649.991859 317.79528 
L 650.229053 326.346156 
L 650.466248 356.154482 
L 651.177831 357.137764 
L 651.415026 241.615899 
L 651.65222 325.442438 
L 651.889415 346.228213 
L 652.126609 308.208792 
L 652.838192 376.503931 
L 653.075387 309.200824 
L 653.312581 189.671106 
L 653.549776 417.782577 
L 653.78697 349.042911 
L 654.735748 278.506762 
L 654.972943 342.906443 
L 655.210137 332.374206 
L 655.447332 272.93743 
L 656.158915 459.331588 
L 656.39611 251.59421 
L 656.633304 320.007253 
L 656.870498 338.96987 
L 657.107693 325.947242 
L 658.056471 307.776891 
L 658.293665 358.438976 
L 658.53086 303.837779 
L 659.479638 366.339601 
L 659.954027 333.56902 
L 660.191221 354.801047 
L 661.377193 343.127769 
L 661.614388 378.783005 
L 661.851582 299.791347 
L 662.80036 313.864141 
L 663.037555 289.26691 
L 663.274749 343.376494 
L 663.511944 290.18612 
L 663.749138 356.347432 
L 664.460722 350.622504 
L 664.697916 323.427758 
L 664.935111 345.446668 
L 665.4095 291.908114 
L 666.358277 333.950737 
L 666.595472 398.801659 
L 666.832666 351.453133 
L 667.069861 355.472462 
L 668.018639 313.174255 
L 668.255833 369.713308 
L 668.493028 332.063448 
L 668.730222 325.24023 
L 669.441806 310.583902 
L 669.679 341.596566 
L 669.916195 313.362526 
L 670.153389 407.249219 
L 670.390583 264.167784 
L 671.102167 341.148724 
L 671.339361 314.323301 
L 671.576556 333.606854 
L 671.81375 333.459794 
L 672.050945 333.644735 
L 672.762528 328.475571 
L 672.999723 328.84654 
L 673.236917 354.689817 
L 673.474112 363.633049 
L 673.711306 344.23079 
L 674.42289 323.760027 
L 674.660084 336.726853 
L 674.897278 363.678099 
L 675.134473 342.003803 
L 675.371667 375.806784 
L 676.083251 329.545235 
L 676.55764 348.171502 
L 677.032029 313.853806 
L 677.743612 337.024923 
L 677.980807 332.618759 
L 678.218001 331.892096 
L 678.455196 333.21041 
L 678.69239 314.927766 
L 679.403973 367.757732 
L 679.641168 349.747213 
L 679.878362 345.500705 
L 680.115557 319.710013 
L 680.352751 313.313747 
L 681.064335 299.767147 
L 681.301529 332.53832 
L 681.538724 303.297141 
L 681.775918 413.83741 
L 682.724696 342.388065 
L 682.961891 357.905039 
L 683.199085 285.154088 
L 683.43628 322.025197 
L 683.673474 391.140083 
L 684.385057 290.650256 
L 684.622252 321.022511 
L 684.859446 385.012951 
L 685.096641 295.300303 
L 685.333835 326.206112 
L 686.045419 254.418088 
L 686.282613 355.864767 
L 686.757002 296.22924 
L 686.994197 319.438137 
L 687.70578 343.365256 
L 687.942975 370.032109 
L 688.180169 334.083748 
L 688.417364 357.279352 
L 688.654558 304.28887 
L 689.366141 315.480005 
L 689.603336 334.523814 
L 689.84053 344.54591 
L 690.077725 337.77998 
L 690.314919 359.807552 
L 691.026503 320.64371 
L 691.263697 338.915075 
L 691.500892 377.943487 
L 691.975281 329.227439 
L 692.686864 284.47425 
L 692.924059 359.356703 
L 693.161253 304.388562 
L 693.398447 352.744919 
L 693.635642 345.573987 
L 694.347225 317.762647 
L 694.58442 350.472399 
L 694.821614 245.79066 
L 695.058809 339.590899 
L 695.296003 337.361149 
L 696.007587 311.508875 
L 696.244781 290.029686 
L 696.481976 255.723316 
L 696.956365 281.422006 
L 697.667948 383.106828 
L 697.905142 326.958703 
L 698.142337 313.574311 
L 698.616726 365.536804 
L 699.328309 350.258079 
L 699.565504 307.581841 
L 699.802698 340.946392 
L 700.039893 314.742149 
L 700.277087 357.837222 
L 700.988671 356.609825 
L 701.225865 313.20219 
L 701.46306 328.374485 
L 701.700254 287.0417 
L 701.937449 306.325374 
L 702.649032 305.510257 
L 702.886226 326.616602 
L 703.123421 304.843356 
L 703.360615 374.249967 
L 703.59781 312.237233 
L 704.309393 298.07133 
L 704.546588 333.886803 
L 704.783782 293.310736 
L 705.020977 322.389465 
L 705.258171 367.111007 
L 705.969755 295.13271 
L 706.206949 307.183263 
L 706.444144 268.536636 
L 706.918532 396.635335 
L 707.86731 291.624374 
L 708.104505 350.198505 
L 708.341699 366.552687 
L 708.578894 254.534249 
L 709.290477 238.124598 
L 709.527672 301.26725 
L 709.764866 319.666557 
L 710.002061 285.200321 
L 710.239255 314.274683 
L 710.950839 291.393766 
L 711.188033 269.278155 
L 711.425227 304.288103 
L 711.662422 289.26709 
L 711.899616 284.549055 
L 712.6112 313.197758 
L 712.848394 366.813309 
L 713.085589 342.628031 
L 713.322783 336.35058 
L 713.559978 306.223491 
L 714.508756 339.448075 
L 714.74595 341.389175 
L 714.983145 266.579934 
L 715.220339 279.125756 
L 715.931922 396.314642 
L 716.406311 280.043754 
L 716.643506 359.972272 
L 716.8807 192.142219 
L 717.592284 377.398442 
L 717.829478 266.757513 
L 718.066673 350.900717 
L 718.303867 193.781609 
L 718.541062 281.091761 
L 719.252645 242.274906 
L 719.48984 312.651654 
L 719.727034 208.288888 
L 719.964229 398.31522 
L 720.201423 244.617313 
L 720.913006 401.543423 
L 721.150201 307.135449 
L 721.387395 316.075356 
L 721.62459 329.767581 
L 721.861784 407.018707 
L 722.573368 390.521133 
L 722.810562 359.480385 
L 723.047757 381.661489 
L 723.284951 348.303395 
L 724.233729 337.130887 
L 724.470924 327.004183 
L 724.708118 407.775345 
L 724.945312 356.649875 
L 724.945312 356.649875 
" clip-path="url(#p77aa010f3a)" style="fill: none; stroke: #1f77b4; stroke-width: 1.5; stroke-linecap: square"/>
   </g>
   <g id="patch_3">
    <path d="M 55.345313 561.6 
L 55.345313 7.2 
" style="fill: none; stroke: #000000; stroke-width: 0.8; stroke-linejoin: miter; stroke-linecap: square"/>
   </g>
   <g id="patch_4">
    <path d="M 724.945312 561.6 
L 724.945312 7.2 
" style="fill: none; stroke: #000000; stroke-width: 0.8; stroke-linejoin: miter; stroke-linecap: square"/>
   </g>
   <g id="patch_5">
    <path d="M 55.345312 561.6 
L 724.945312 561.6 
" style="fill: none; stroke: #000000; stroke-width: 0.8; stroke-linejoin: miter; stroke-linecap: square"/>
   </g>
   <g id="patch_6">
    <path d="M 55.345312 7.2 
L 724.945312 7.2 
" style="fill: none; stroke: #000000; stroke-width: 0.8; stroke-linejoin: miter; stroke-linecap: square"/>
   </g>
  </g>
 </g>
 <defs>
  <clipPath id="p77aa010f3a">
   <rect x="55.345313" y="7.2" width="669.6" height="554.4"/>
  </clipPath>
 </defs>
</svg>
